{
.appVersion = "1274";
DisplayStrings = (
"/superscriptfour",
"/DIVISIONSLASH"
);
copyright = "Copyright 2019 The Jost Project Authors (https://github.com/bghryct/Jost)";
customParameters = (
{
name = note;
value = "2016-6-10: Created with FontForge (http://fontforge.org)\0122019-10-23: Re-Created in Glyphs app";
},
{
name = openTypeNameLicense;
value = "Copyright 2019 jost https://github.com/bghryct/Jost";
},
{
name = openTypeNameLicenseURL;
value = "http://scripts.sil.org/OFL";
},
{
name = openTypeNameVersion;
value = "Version 3.5";
},
{
name = openTypeOS2FamilyClass;
value = (
0,
0
);
},
{
name = fsType;
value = (
);
},
{
name = vendorID;
value = GOOG;
},
{
name = Axes;
value = (
{
Name = Weight;
Tag = wght;
},
{
Name = Slant;
Tag = slnt;
}
);
}
);
date = "2019-11-20 18:27:44 +0000";
designer = "Owen Earl, Mirko Velimirovic";
familyName = jost;
featurePrefixes = (
{
automatic = 1;
code = "languagesystem DFLT dflt;\012\012languagesystem latn dflt;\012languagesystem latn AZE;\012languagesystem latn CRT;\012languagesystem latn KAZ;\012languagesystem latn TAT;\012languagesystem latn TRK;\012languagesystem latn ROM;\012languagesystem latn MOL;\012";
name = Languagesystems;
},
{
automatic = 1;
code = "";
name = Prefix;
}
);
features = (
{
automatic = 1;
code = "feature locl;\012feature sups;\012feature numr;\012feature dnom;\012feature frac;\012feature ordn;\012";
name = aalt;
},
{
automatic = 1;
code = "lookup ccmp_Other_1 {\012	@CombiningTopAccents = [acutecomb brevecomb caroncomb circumflexcomb commaturnedabovecomb dieresiscomb dotaccentcomb gravecomb hungarumlautcomb macroncomb ringcomb tildecomb];\012	@CombiningNonTopAccents = [cedillacomb ogonekcomb];\012	sub [i]' @CombiningTopAccents by [idotless];\012	sub [i]' @CombiningNonTopAccents @CombiningTopAccents by [idotless];\012} ccmp_Other_1;\012";
name = ccmp;
},
{
automatic = 1;

glyphs = (
{
color = 4;
glyphname = A;
lastChange = "2019-11-20 17:32:10 +0000";
layers = (
{
anchors = (
{
name = bottom;
position = "{600, 0}";
},
{
name = ogonek;
position = "{1170, 0}";
},
{
name = top;
position = "{600, 1400}";
}
);
layerId = master01;
paths = (
{
closed = 1;
nodes = (
"54 0 LINE",
"270 546 LINE",
"272 554 LINE",
"600 1376 LINE",
"930 552 LINE",
"932 546 LINE",
"1146 0 LINE",
"1170 0 LINE",
"600 1430 LINE",
"30 0 LINE"
);
},
{
closed = 1;
nodes = (
"944 544 LINE",
"944 564 LINE",
"258 564 LINE",
"258 544 LINE"
);
}
);
width = 1200;
},
{
anchors = (
{
name = bottom;
position = "{564, 0}";
},
{
name = ogonek;
position = "{992, 0}";
},
{
name = top;
position = "{770, 1400}";
}
);
layerId = "CD8D3C65-81B5-4831-B5B6-20AA0404C7C2";
paths = (
{
closed = 1;
nodes = (
"-60 0 LINE",
"257 546 LINE",
"260 554 LINE",
"737 1376 LINE",
"878 552 LINE",
"879 546 LINE",
"968 0 LINE",
"992 0 LINE",
"745 1430 LINE",
"-84 0 LINE"
);
},
{
closed = 1;
nodes = (
"890 544 LINE",
"893 564 LINE",
"247 564 LINE",
"244 544 LINE"
);
}
);
width = 1128;
},
{
anchors = (
{
name = bottom;
position = "{620, 0}";
},
{
name = ogonek;
position = "{1122, 0}";
},
{
name = top;
position = "{789, 1400}";
}
);
layerId = "CF6F8622-38E2-4A45-B461-838A78B3383E";
paths = (
{
closed = 1;
nodes = (
"84 0 LINE",
"383 492 LINE",
"404 528 LINE",
"740 1084 LINE",
"845 520 LINE",
"851 480 LINE",
"946 0 LINE",
"1122 0 LINE",
"807 1476 LINE",
"-110 0 LINE"
);
},
{
closed = 1;
nodes = (
"953 420 LINE",
"927 578 LINE",
"337 578 LINE",
"253 420 LINE"
);
}
);
userData = {
com.schriftgestaltung.Glyphs.lastChange = "2019-10-03 14:51:18 +0000";
};
width = 1240;
},
{
anchors = (
{
name = bottom;
position = "{660, 0}";
},
{
name = ogonek;
position = "{1310, 0}";
},
{
name = top;
position = "{660, 1400}";
}
);
layerId = "C81D5947-3D41-4C9D-B8BA-C68D41D38A45";
paths = (
{
closed = 1;
nodes = (
"200 0 LINE",
"408 492 LINE",
"424 528 LINE",
"660 1084 LINE",
"900 520 LINE",
"916 480 LINE",
"1120 0 LINE",
"1310 0 LINE",
"660 1470 LINE",
"10 0 LINE"
);
},
{
closed = 1;
nodes = (
"1034 420 LINE",
"974 580 LINE",
"354 580 LINE",
"294 420 LINE"
);
}
);
width = 1320;
},
{
anchors = (
{
name = bottom;
position = "{780, 0}";
},
{
name = ogonek;
position = "{1570, 0}";
},
{
name = top;
position = "{780, 1400}";
}
);
layerId = "2EABF22E-58CD-4ADD-8975-1500671E7F04";
paths = (
{
closed = 1;
nodes = (
"490 0 LINE",
"642 278 LINE",
"608 378 LINE",
"780 764 LINE",
"952 378 LINE",
"922 264 LINE",
"1070 0 LINE",
"1570 0 LINE",
"780 1500 LINE",
"-10 0 LINE"
);
},
{
closed = 1;
nodes = (
"1154 180 LINE",
"1154 496 LINE",
"414 496 LINE",
"414 180 LINE"
);
}
);
width = 1560;
},
{
anchors = (
{
name = bottom;
position = "{733, 0}";
},
{
name = ogonek;
position = "{1364, 0}";
},
{
name = top;
position = "{903, 1420}";
}
);
layerId = "9017EC39-7277-4FD3-B807-1ABD7559DC0D";
paths = (
{
closed = 1;
nodes = (
"368 0 LINE",
"563 274 LINE",
"549 376 LINE",
"775 764 LINE",
"865 378 LINE",
"831 266 LINE",
"904 0 LINE",
"1364 0 LINE",
"920 1510 LINE",
"-136 0 LINE"
);
},
{
closed = 1;
nodes = (
"1019 180 LINE",
"1086 496 LINE",
"376 496 LINE",
"309 180 LINE"
);
}
);
width = 1466;
}
);
unicode = 0041;
},
{
color = 4;
glyphname = AE;
lastChange = "2019-11-13 15:44:41 +0000";
layers = (
{
anchors = (
{
name = bottom;
position = "{980, 0}";
},
{
name = top;
position = "{1229, 1400}";
}
);
layerId = master01;
paths = (
{
closed = 1;
nodes = (
"36 0 LINE",
"420 560 LINE",
"980 560 LINE",
"980 0 LINE",
"1632 0 LINE",
"1632 20 LINE",
"1002 20 LINE",
"1002 768 LINE",
"1592 768 LINE",
"1592 788 LINE",
"1002 788 LINE",
"1002 1380 LINE",
"1632 1380 LINE",
"1632 1400 LINE",
"970 1400 LINE",
"10 0 LINE"
);
},
{
closed = 1;
nodes = (
"980 1377 LINE",
"980 580 LINE",
"434 580 LINE"
);
}
);
width = 1792;
},
{
anchors = (
{
name = bottom;
position = "{843, 0}";
},
{
name = top;
position = "{1254, 1400}";
}
);
layerId = "CD8D3C65-81B5-4831-B5B6-20AA0404C7C2";
paths = (
{
closed = 1;
nodes = (
"-76 0 LINE",
"401 560 LINE",
"925 560 LINE",
"810 0 LINE",
"1428 0 LINE",
"1431 20 LINE",
"836 20 LINE",
"990 768 LINE",
"1544 768 LINE",
"1547 788 LINE",
"994 788 LINE",
"1116 1380 LINE",
"1704 1380 LINE",
"1709 1400 LINE",
"1085 1400 LINE",
"-102 0 LINE"
);
},
{
closed = 1;
nodes = (
"1091 1370 LINE",
"929 580 LINE",
"418 580 LINE"
);
}
);
width = 1686;
},
{
anchors = (
{
name = bottom;
position = "{903, 0}";
},
{
name = top;
position = "{1434, 1400}";
}
);
layerId = "CF6F8622-38E2-4A45-B461-838A78B3383E";
paths = (
{
closed = 1;
nodes = (
"86 0 LINE",
"416 422 LINE",
"897 420 LINE",
"814 0 LINE",
"1572 0 LINE",
"1606 160 LINE",
"1007 160 LINE",
"1114 682 LINE",
"1672 680 LINE",
"1704 840 LINE",
"1146 840 LINE",
"1229 1240 LINE",
"1822 1240 LINE",
"1853 1400 LINE",
"999 1400 LINE",
"-100 0 LINE"
);
},
{
closed = 1;
nodes = (
"1060 1245 LINE",
"928 580 LINE",
"539 580 LINE"
);
}
);
userData = {
com.schriftgestaltung.Glyphs.lastChange = "2019-10-03 14:51:18 +0000";
};
width = 1806;
},
{
anchors = (
{
name = bottom;
position = "{960, 0}";
},
{
name = top;
position = "{1291, 1400}";
}
);
layerId = "C81D5947-3D41-4C9D-B8BA-C68D41D38A45";
paths = (
{
closed = 1;
nodes = (
"200 0 LINE",
"457 420 LINE",
"980 420 LINE",
"980 0 LINE",
"1780 0 LINE",
"1780 160 LINE",
"1150 160 LINE",
"1150 680 LINE",
"1740 680 LINE",
"1740 840 LINE",
"1150 840 LINE",
"1150 1240 LINE",
"1780 1240 LINE",
"1780 1400 LINE",
"870 1400 LINE",
"10 0 LINE"
);
},
{
closed = 1;
nodes = (
"980 1274 LINE",
"980 580 LINE",
"555 580 LINE"
);
}
);
width = 1920;
},
{
anchors = (
{
name = bottom;
position = "{1160, 0}";
},
{
name = top;
position = "{1493, 1400}";
}
);
layerId = "2EABF22E-58CD-4ADD-8975-1500671E7F04";
paths = (
{
closed = 1;
nodes = (
"610 0 LINE",
"733 230 LINE",
"1170 230 LINE",
"1170 0 LINE",
"2180 0 LINE",
"2180 350 LINE",
"1650 350 LINE",
"1650 550 LINE",
"2140 550 LINE",
"2140 890 LINE",
"1650 890 LINE",
"1650 1050 LINE",
"2180 1050 LINE",
"2180 1400 LINE",
"880 1400 LINE",
"40 0 LINE"
);
},
{
closed = 1;
nodes = (
"1170 1044 LINE",
"1170 630 LINE",
"948 630 LINE"
);
}
);
width = 2320;
},
{
anchors = (
{
name = bottom;
position = "{1091, 0}";
},
{
name = top;
position = "{1571, 1400}";
}
);
layerId = "9017EC39-7277-4FD3-B807-1ABD7559DC0D";
paths = (
{
closed = 1;
nodes = (
"482 0 LINE",
"645 230 LINE",
"1031 230 LINE",
"984 0 LINE",
"1948 0 LINE",
"2021 350 LINE",
"1521 350 LINE",
"1562 550 LINE",
"2021 550 LINE",
"2093 890 LINE",
"1630 890 LINE",
"1662 1050 LINE",
"2158 1050 LINE",
"2231 1400 LINE",
"1017 1400 LINE",
"-90 0 LINE"
);
},
{
closed = 1;
nodes = (
"1185 995 LINE",
"1111 630 LINE",
"927 630 LINE"
);
}
);
width = 2182;
}
);
unicode = 00C6;
},
{
color = 4;
glyphname = B;
lastChange = "2019-11-13 15:48:31 +0000";
layers = (
{
anchors = (
{
name = bottom;
position = "{495, 0}";
},
{
name = top;
position = "{495, 1400}";
}
);
layerId = master01;
paths = (
{
closed = 1;
nodes = (
"420 0 LINE SMOOTH",
"711 0 OFFCURVE",
"870 141 OFFCURVE",
"870 400 CURVE SMOOTH",
"870 605 OFFCURVE",
"669 784 OFFCURVE",
"440 784 CURVE SMOOTH",
"194 784 LINE",
"194 768 LINE",
"420 768 LINE SMOOTH",
"655 768 OFFCURVE",
"848 602 OFFCURVE",
"848 400 CURVE SMOOTH",
"848 154 OFFCURVE",
"698 22 OFFCURVE",
"420 22 CURVE SMOOTH",
"200 22 LINE",
"200 1378 LINE",
"400 1378 LINE SMOOTH",
"638 1378 OFFCURVE",
"774 1270 OFFCURVE",
"774 1080 CURVE SMOOTH",
"774 896 OFFCURVE",
"636 788 OFFCURVE",
"400 788 CURVE SMOOTH",
"194 788 LINE",
"194 772 LINE",
"420 772 LINE SMOOTH",
"658 772 OFFCURVE",
"796 885 OFFCURVE",
"796 1080 CURVE SMOOTH",
"796 1280 OFFCURVE",
"648 1400 OFFCURVE",
"400 1400 CURVE SMOOTH",
"180 1400 LINE",
"180 0 LINE"
);
}
);
width = 990;
},
{
anchors = (
{
name = bottom;
position = "{288, 0}";
},
{
name = top;
position = "{547, 1400}";
}
);
layerId = "CD8D3C65-81B5-4831-B5B6-20AA0404C7C2";
paths = (
{
closed = 1;
nodes = (
"288 0 LINE SMOOTH",
"537 0 OFFCURVE",
"762 166 OFFCURVE",
"792 400 CURVE SMOOTH",
"820 617 OFFCURVE",
"667 784 OFFCURVE",
"460 784 CURVE SMOOTH",
"230 784 LINE",
"228 768 LINE",
"442 768 LINE SMOOTH",
"647 768 OFFCURVE",
"800 612 OFFCURVE",
"770 401 CURVE SMOOTH",
"740 185 OFFCURVE",
"534 22 OFFCURVE",
"289 22 CURVE SMOOTH",
"83 22 LINE",
"358 1378 LINE",
"546 1378 LINE SMOOTH",
"735 1378 OFFCURVE",
"873 1264 OFFCURVE",
"836 1079 CURVE SMOOTH",
"798 889 OFFCURVE",
"614 792 OFFCURVE",
"423 792 CURVE SMOOTH",
"231 792 LINE",
"230 776 LINE",
"444 776 LINE SMOOTH",
"639 776 OFFCURVE",
"824 884 OFFCURVE",
"859 1080 CURVE SMOOTH",
"895 1283 OFFCURVE",
"736 1400 OFFCURVE",
"547 1400 CURVE SMOOTH",
"343 1400 LINE",
"58 0 LINE"
);
}
);
width = 930;
},
{
anchors = (
{
name = bottom;
position = "{412, 0}";
},
{
name = top;
position = "{649, 1400}";
}
);
layerId = "CF6F8622-38E2-4A45-B461-838A78B3383E";
paths = (
{
closed = 1;
nodes = (
"412 0 LINE SMOOTH",
"679 0 OFFCURVE",
"898 173 OFFCURVE",
"932 405 CURVE SMOOTH",
"964 625 OFFCURVE",
"810 776 OFFCURVE",
"546 777 CURVE SMOOTH",
"323 778 LINE",
"303 688 LINE",
"546 686 LINE SMOOTH",
"706 685 OFFCURVE",
"803 570 OFFCURVE",
"771 420 CURVE SMOOTH",
"739 267 OFFCURVE",
"590 154 OFFCURVE",
"417 152 CURVE SMOOTH",
"235 150 LINE",
"456 1250 LINE",
"643 1248 LINE SMOOTH",
"767 1247 OFFCURVE",
"845 1156 OFFCURVE",
"820 1040 CURVE SMOOTH",
"795 923 OFFCURVE",
"678 836 OFFCURVE",
"539 834 CURVE SMOOTH",
"333 832 LINE",
"316 746 LINE",
"538 746 LINE SMOOTH",
"780 746 OFFCURVE",
"953 868 OFFCURVE",
"987 1050 CURVE SMOOTH",
"1024 1248 OFFCURVE",
"877 1400 OFFCURVE",
"649 1400 CURVE SMOOTH",
"321 1400 LINE",
"38 0 LINE"
);
}
);
userData = {
com.schriftgestaltung.Glyphs.lastChange = "2019-10-03 14:51:18 +0000";
};
width = 1050;
},
{
anchors = (
{
name = bottom;
position = "{540, 0}";
},
{
name = top;
position = "{520, 1400}";
}
);
layerId = "C81D5947-3D41-4C9D-B8BA-C68D41D38A45";
paths = (
{
closed = 1;
nodes = (
"540 0 LINE SMOOTH",
"836 0 OFFCURVE",
"1016 155 OFFCURVE",
"1016 410 CURVE SMOOTH",
"1016 644 OFFCURVE",
"841 780 OFFCURVE",
"540 780 CURVE SMOOTH",
"294 780 LINE",
"294 686 LINE",
"540 686 LINE SMOOTH",
"729 686 OFFCURVE",
"846 584 OFFCURVE",
"846 420 CURVE SMOOTH",
"846 255 OFFCURVE",
"727 150 OFFCURVE",
"540 150 CURVE SMOOTH",
"330 150 LINE",
"330 1250 LINE",
"520 1250 LINE SMOOTH",
"667 1250 OFFCURVE",
"766 1166 OFFCURVE",
"766 1040 CURVE SMOOTH",
"766 915 OFFCURVE",
"669 834 OFFCURVE",
"520 834 CURVE SMOOTH",
"294 834 LINE",
"294 740 LINE",
"520 740 LINE SMOOTH",
"778 740 OFFCURVE",
"936 858 OFFCURVE",
"936 1050 CURVE SMOOTH",
"936 1274 OFFCURVE",
"786 1400 OFFCURVE",
"520 1400 CURVE SMOOTH",
"160 1400 LINE",
"160 0 LINE"
);
}
);
width = 1116;
},
{
anchors = (
{
name = bottom;
position = "{728, 0}";
},
{
name = top;
position = "{750, 1400}";
}
);
layerId = "2EABF22E-58CD-4ADD-8975-1500671E7F04";
paths = (
{
closed = 1;
nodes = (
"790 0 LINE SMOOTH",
"1187 0 OFFCURVE",
"1376 124 OFFCURVE",
"1376 384 CURVE SMOOTH",
"1376 629 OFFCURVE",
"1135 800 OFFCURVE",
"790 800 CURVE SMOOTH",
"464 800 LINE",
"464 560 LINE",
"730 560 LINE SMOOTH",
"861 560 OFFCURVE",
"916 528 OFFCURVE",
"916 454 CURVE SMOOTH",
"916 365 OFFCURVE",
"864 330 OFFCURVE",
"730 330 CURVE SMOOTH",
"580 330 LINE",
"580 1070 LINE",
"690 1070 LINE SMOOTH",
"791 1070 OFFCURVE",
"836 1038 OFFCURVE",
"836 966 CURVE SMOOTH",
"836 890 OFFCURVE",
"785 850 OFFCURVE",
"690 850 CURVE SMOOTH",
"464 850 LINE",
"464 670 LINE",
"750 670 LINE SMOOTH",
"1081 670 OFFCURVE",
"1296 816 OFFCURVE",
"1296 1040 CURVE SMOOTH",
"1296 1261 OFFCURVE",
"1085 1400 OFFCURVE",
"750 1400 CURVE SMOOTH",
"140 1400 LINE",
"140 0 LINE"
);
}
);
width = 1456;
},
{
anchors = (
{
name = bottom;
position = "{660, 0}";
},
{
name = top;
position = "{853, 1400}";
}
);
layerId = "9017EC39-7277-4FD3-B807-1ABD7559DC0D";
paths = (
{
closed = 1;
nodes = (
"660 0 LINE SMOOTH",
"1012 0 OFFCURVE",
"1242 149 OFFCURVE",
"1268 380 CURVE SMOOTH",
"1296 627 OFFCURVE",
"1076 800 OFFCURVE",
"772 800 CURVE SMOOTH",
"484 800 LINE",
"431 560 LINE",
"710 556 LINE SMOOTH",
"808 555 OFFCURVE",
"854 520 OFFCURVE",
"844 457 CURVE SMOOTH",
"832 382 OFFCURVE",
"749 331 OFFCURVE",
"624 331 CURVE SMOOTH",
"504 331 LINE",
"666 1069 LINE",
"772 1069 LINE SMOOTH",
"848 1069 OFFCURVE",
"882 1026 OFFCURVE",
"870 971 CURVE SMOOTH",
"855 902 OFFCURVE",
"778 850 OFFCURVE",
"691 850 CURVE SMOOTH",
"495 850 LINE",
"454 670 LINE",
"756 670 LINE SMOOTH",
"1069 670 OFFCURVE",
"1300 827 OFFCURVE",
"1326 1035 CURVE SMOOTH",
"1353 1245 OFFCURVE",
"1157 1400 OFFCURVE",
"853 1400 CURVE SMOOTH",
"299 1400 LINE",
"16 0 LINE"
);
}
);
width = 1368;
}
);
unicode = 0042;
},
{
color = 4;
glyphname = C;
lastChange = "2019-11-13 15:48:31 +0000";
layers = (
{
anchors = (
{
name = bottom;
position = "{757, -7}";
},
{
name = top;
position = "{760, 1416}";
}
);
layerId = master01;
paths = (
{
closed = 1;
nodes = (
"964 -16 OFFCURVE",
"1092 40 OFFCURVE",
"1210 144 CURVE",
"1210 176 LINE",
"1094 62 OFFCURVE",
"958 8 OFFCURVE",
"760 8 CURVE SMOOTH",
"386 8 OFFCURVE",
"124 300 OFFCURVE",
"124 700 CURVE SMOOTH",
"124 1106 OFFCURVE",
"388 1392 OFFCURVE",
"760 1392 CURVE SMOOTH",
"948 1392 OFFCURVE",
"1098 1338 OFFCURVE",
"1210 1226 CURVE",
"1210 1256 LINE",
"1092 1360 OFFCURVE",
"964 1416 OFFCURVE",
"760 1416 CURVE SMOOTH",
"372 1416 OFFCURVE",
"100 1118 OFFCURVE",
"100 700 CURVE SMOOTH",
"100 282 OFFCURVE",
"372 -16 OFFCURVE",
"760 -16 CURVE SMOOTH"
);
}
);
width = 1370;
},
{
anchors = (
{
name = bottom;
position = "{557, -3}";
},
{
name = top;
position = "{948, 1406}";
}
);
layerId = "CD8D3C65-81B5-4831-B5B6-20AA0404C7C2";
paths = (
{
closed = 1;
nodes = (
"777 -17 OFFCURVE",
"927 52 OFFCURVE",
"1060 142 CURVE",
"1068 172 LINE",
"935 78 OFFCURVE",
"784 7 OFFCURVE",
"607 10 CURVE SMOOTH",
"226 18 OFFCURVE",
"92 379 OFFCURVE",
"150 699 CURVE SMOOTH",
"211 1038 OFFCURVE",
"497 1388 OFFCURVE",
"889 1392 CURVE SMOOTH",
"1042 1393 OFFCURVE",
"1168 1343 OFFCURVE",
"1278 1228 CURVE",
"1284 1258 LINE",
"1166 1366 OFFCURVE",
"1041 1418 OFFCURVE",
"889 1416 CURVE SMOOTH",
"486 1412 OFFCURVE",
"197 1064 OFFCURVE",
"126 700 CURVE SMOOTH",
"66 363 OFFCURVE",
"213 -9 OFFCURVE",
"606 -14 CURVE SMOOTH"
);
}
);
width = 1288;
},
{
anchors = (
{
name = bottom;
position = "{552, 0}";
},
{
name = top;
position = "{924, 1421}";
}
);
layerId = "CF6F8622-38E2-4A45-B461-838A78B3383E";
paths = (
{
closed = 1;
nodes = (
"779 -23 OFFCURVE",
"934 26 OFFCURVE",
"1082 132 CURVE",
"1121 354 LINE",
"948 210 OFFCURVE",
"783 147 OFFCURVE",
"643 152 CURVE SMOOTH",
"387 161 OFFCURVE",
"219 397 OFFCURVE",
"280 699 CURVE SMOOTH",
"341 999 OFFCURVE",
"606 1245 OFFCURVE",
"889 1248 CURVE SMOOTH",
"1041 1249 OFFCURVE",
"1171 1179 OFFCURVE",
"1264 1042 CURVE",
"1305 1264 LINE",
"1182 1372 OFFCURVE",
"1051 1422 OFFCURVE",
"899 1420 CURVE SMOOTH",
"522 1416 OFFCURVE",
"172 1097 OFFCURVE",
"104 700 CURVE SMOOTH",
"35 297 OFFCURVE",
"287 -12 OFFCURVE",
"633 -20 CURVE SMOOTH"
);
}
);
userData = {
com.schriftgestaltung.Glyphs.lastChange = "2019-10-03 14:51:18 +0000";
};
width = 1288;
},
{
anchors = (
{
name = bottom;
position = "{771, 0}";
},
{
name = top;
position = "{805, 1420}";
}
);
layerId = "C81D5947-3D41-4C9D-B8BA-C68D41D38A45";
paths = (
{
closed = 1;
nodes = (
"984 -20 OFFCURVE",
"1112 30 OFFCURVE",
"1230 134 CURVE",
"1230 358 LINE",
"1132 234 OFFCURVE",
"978 150 OFFCURVE",
"780 150 CURVE SMOOTH",
"504 150 OFFCURVE",
"260 374 OFFCURVE",
"260 700 CURVE SMOOTH",
"260 1026 OFFCURVE",
"504 1250 OFFCURVE",
"780 1250 CURVE SMOOTH",
"978 1250 OFFCURVE",
"1132 1166 OFFCURVE",
"1230 1042 CURVE",
"1230 1266 LINE",
"1112 1370 OFFCURVE",
"984 1420 OFFCURVE",
"780 1420 CURVE SMOOTH",
"392 1420 OFFCURVE",
"80 1118 OFFCURVE",
"80 700 CURVE SMOOTH",
"80 282 OFFCURVE",
"392 -20 OFFCURVE",
"780 -20 CURVE SMOOTH"
);
}
);
width = 1370;
},
{
anchors = (
{
name = bottom;
position = "{870, -40}";
},
{
name = top;
position = "{870, 1440}";
}
);
layerId = "2EABF22E-58CD-4ADD-8975-1500671E7F04";
paths = (
{
closed = 1;
nodes = (
"1039 -40 OFFCURVE",
"1161 -2 OFFCURVE",
"1300 94 CURVE",
"1300 546 LINE",
"1174 426 OFFCURVE",
"1054 374 OFFCURVE",
"902 374 CURVE SMOOTH",
"685 374 OFFCURVE",
"544 503 OFFCURVE",
"544 700 CURVE SMOOTH",
"544 897 OFFCURVE",
"685 1026 OFFCURVE",
"902 1026 CURVE SMOOTH",
"1054 1026 OFFCURVE",
"1174 974 OFFCURVE",
"1300 854 CURVE",
"1300 1306 LINE",
"1161 1402 OFFCURVE",
"1039 1440 OFFCURVE",
"870 1440 CURVE SMOOTH",
"381 1440 OFFCURVE",
"60 1147 OFFCURVE",
"60 700 CURVE SMOOTH",
"60 253 OFFCURVE",
"381 -40 OFFCURVE",
"870 -40 CURVE SMOOTH"
);
}
);
width = 1420;
},
{
anchors = (
{
name = bottom;
position = "{728, -40}";
},
{
name = top;
position = "{1037, 1440}";
}
);
layerId = "9017EC39-7277-4FD3-B807-1ABD7559DC0D";
paths = (
{
closed = 1;
nodes = (
"874 -40 OFFCURVE",
"997 0 OFFCURVE",
"1147 94 CURVE",
"1216 542 LINE",
"1035 422 OFFCURVE",
"910 373 OFFCURVE",
"794 376 CURVE SMOOTH",
"607 381 OFFCURVE",
"503 518 OFFCURVE",
"548 700 CURVE SMOOTH",
"594 886 OFFCURVE",
"772 1023 OFFCURVE",
"970 1024 CURVE SMOOTH",
"1095 1025 OFFCURVE",
"1201 972 OFFCURVE",
"1302 854 CURVE",
"1375 1304 LINE",
"1261 1397 OFFCURVE",
"1134 1440 OFFCURVE",
"978 1440 CURVE SMOOTH",
"542 1440 OFFCURVE",
"150 1104 OFFCURVE",
"82 700 CURVE SMOOTH",
"13 289 OFFCURVE",
"309 -40 OFFCURVE",
"728 -40 CURVE SMOOTH"
);
}
);
width = 1336;
}
);
unicode = 0043;
},
{
color = 4;
glyphname = D;
lastChange = "2019-11-13 15:48:31 +0000";
layers = (
{
anchors = (
{
name = bottom;
position = "{500, 0}";
},
{
name = center;
position = "{635, 700}";
},
{
name = top;
position = "{590, 1400}";
}
);
layerId = master01;
paths = (
{
closed = 1;
nodes = (
"500 0 LINE SMOOTH",
"908 0 OFFCURVE",
"1170 282 OFFCURVE",
"1170 700 CURVE SMOOTH",
"1170 1118 OFFCURVE",
"908 1400 OFFCURVE",
"500 1400 CURVE SMOOTH",
"180 1400 LINE",
"180 0 LINE"
);
},
{
closed = 1;
nodes = (
"202 1378 LINE",
"500 1378 LINE SMOOTH",
"900 1378 OFFCURVE",
"1148 1106 OFFCURVE",
"1148 700 CURVE SMOOTH",
"1148 292 OFFCURVE",
"900 22 OFFCURVE",
"500 22 CURVE SMOOTH",
"202 22 LINE"
);
}
);
width = 1270;
},
{
anchors = (
{
name = bottom;
position = "{597, 0}";
},
{
name = center;
position = "{499, 700}";
},
{
name = top;
position = "{801, 1400}";
}
);
layerId = "CD8D3C65-81B5-4831-B5B6-20AA0404C7C2";
paths = (
{
closed = 1;
nodes = (
"364 0 LINE SMOOTH",
"774 0 OFFCURVE",
"1069 339 OFFCURVE",
"1134 701 CURVE SMOOTH",
"1203 1089 OFFCURVE",
"1002 1400 OFFCURVE",
"641 1400 CURVE SMOOTH",
"344 1400 LINE",
"58 0 LINE"
);
},
{
closed = 1;
nodes = (
"361 1378 LINE",
"640 1378 LINE SMOOTH",
"991 1378 OFFCURVE",
"1181 1075 OFFCURVE",
"1112 701 CURVE SMOOTH",
"1045 340 OFFCURVE",
"757 22 OFFCURVE",
"365 22 CURVE SMOOTH",
"85 22 LINE"
);
}
);
width = 1194;
},
{
anchors = (
{
name = bottom;
position = "{639, 0}";
},
{
name = center;
position = "{541, 700}";
},
{
name = top;
position = "{825, 1400}";
}
);
layerId = "CF6F8622-38E2-4A45-B461-838A78B3383E";
paths = (
{
closed = 1;
nodes = (
"450 0 LINE SMOOTH",
"856 0 OFFCURVE",
"1177 325 OFFCURVE",
"1240 702 CURVE SMOOTH",
"1305 1094 OFFCURVE",
"1066 1400 OFFCURVE",
"705 1399 CURVE SMOOTH",
"318 1398 LINE",
"44 0 LINE"
);
},
{
closed = 1;
nodes = (
"454 1230 LINE",
"695 1230 LINE SMOOTH",
"976 1230 OFFCURVE",
"1133 991 OFFCURVE",
"1074 700 CURVE SMOOTH",
"1016 413 OFFCURVE",
"772 170 OFFCURVE",
"460 170 CURVE SMOOTH",
"237 170 LINE"
);
}
);
userData = {
com.schriftgestaltung.Glyphs.lastChange = "2019-10-03 14:51:18 +0000";
};
width = 1278;
},
{
anchors = (
{
name = bottom;
position = "{680, 0}";
},
{
name = center;
position = "{680, 700}";
},
{
name = top;
position = "{680, 1400}";
}
);
layerId = "C81D5947-3D41-4C9D-B8BA-C68D41D38A45";
paths = (
{
closed = 1;
nodes = (
"580 0 LINE SMOOTH",
"988 0 OFFCURVE",
"1280 282 OFFCURVE",
"1280 700 CURVE SMOOTH",
"1280 1118 OFFCURVE",
"988 1400 OFFCURVE",
"580 1400 CURVE SMOOTH",
"160 1400 LINE",
"160 0 LINE"
);
},
{
closed = 1;
nodes = (
"330 1230 LINE",
"580 1230 LINE SMOOTH",
"896 1230 OFFCURVE",
"1110 1026 OFFCURVE",
"1110 700 CURVE SMOOTH",
"1110 374 OFFCURVE",
"896 170 OFFCURVE",
"580 170 CURVE SMOOTH",
"330 170 LINE"
);
}
);
width = 1360;
},
{
anchors = (
{
name = bottom;
position = "{765, 0}";
},
{
name = center;
position = "{765, 700}";
},
{
name = top;
position = "{765, 1400}";
}
);
layerId = "2EABF22E-58CD-4ADD-8975-1500671E7F04";
paths = (
{
closed = 1;
nodes = (
"690 0 LINE SMOOTH",
"1178 0 OFFCURVE",
"1470 262 OFFCURVE",
"1470 700 CURVE SMOOTH",
"1470 1138 OFFCURVE",
"1178 1400 OFFCURVE",
"690 1400 CURVE SMOOTH",
"140 1400 LINE",
"140 0 LINE"
);
},
{
closed = 1;
nodes = (
"598 1020 LINE",
"670 1020 LINE SMOOTH",
"826 1020 OFFCURVE",
"1010 986 OFFCURVE",
"1010 700 CURVE SMOOTH",
"1010 414 OFFCURVE",
"826 380 OFFCURVE",
"670 380 CURVE SMOOTH",
"598 380 LINE"
);
}
);
width = 1530;
},
{
anchors = (
{
name = bottom;
position = "{378, 0}";
},
{
name = center;
position = "{606, 700}";
},
{
name = top;
position = "{879, 1400}";
}
);
layerId = "9017EC39-7277-4FD3-B807-1ABD7559DC0D";
paths = (
{
closed = 1;
nodes = (
"564 0 LINE SMOOTH",
"1001 0 OFFCURVE",
"1360 290 OFFCURVE",
"1422 699 CURVE SMOOTH",
"1485 1112 OFFCURVE",
"1208 1400 OFFCURVE",
"797 1400 CURVE SMOOTH",
"299 1400 LINE",
"16 0 LINE"
);
},
{
closed = 1;
nodes = (
"666 1022 LINE",
"748 1022 LINE SMOOTH",
"945 1022 OFFCURVE",
"1021 883 OFFCURVE",
"978 701 CURVE SMOOTH",
"932 507 OFFCURVE",
"780 380 OFFCURVE",
"575 380 CURVE SMOOTH",
"537 380 LINE"
);
}
);
width = 1438;
}
);
unicode = 0044;
},
{
color = 5;
glyphname = Eth;
lastChange = "2019-11-13 15:48:31 +0000";
layers = (
{
layerId = master01;
paths = (
{
closed = 1;
nodes = (
"500 0 LINE SMOOTH",
"904 0 OFFCURVE",
"1170 278 OFFCURVE",
"1170 700 CURVE SMOOTH",
"1170 1122 OFFCURVE",
"904 1400 OFFCURVE",
"500 1400 CURVE SMOOTH",
"180 1400 LINE",
"180 710 LINE",
"10 710 LINE",
"10 690 LINE",
"180 690 LINE",
"180 0 LINE"
);
},
{
closed = 1;
nodes = (
"202 690 LINE",
"610 690 LINE",
"610 710 LINE",
"202 710 LINE",
"202 1378 LINE",
"500 1378 LINE SMOOTH",
"892 1378 OFFCURVE",
"1148 1110 OFFCURVE",
"1148 700 CURVE SMOOTH",
"1148 290 OFFCURVE",
"892 22 OFFCURVE",
"500 22 CURVE SMOOTH",
"202 22 LINE"
);
}
);
width = 1360;
},
{
background = {
paths = (
{
closed = 1;
nodes = (
"364 0 LINE SMOOTH",
"743 11 OFFCURVE",
"1096 295 OFFCURVE",
"1232 700 CURVE SMOOTH",
"1362 1083 OFFCURVE",
"1191 1388 OFFCURVE",
"838 1400 CURVE SMOOTH",
"548 1400 LINE",
"547 1398 LINE",
"540 1398 LINE",
"303 710 LINE",
"142 710 LINE",
"136 690 LINE",
"296 690 LINE",
"58 0 LINE"
);
},
{
closed = 1;
nodes = (
"318 690 LINE",
"702 690 LINE",
"708 710 LINE",
"325 710 LINE",
"555 1378 LINE",
"834 1378 LINE SMOOTH",
"1175 1364 OFFCURVE",
"1338 1070 OFFCURVE",
"1210 700 CURVE SMOOTH",
"1076 310 OFFCURVE",
"735 35 OFFCURVE",
"368 22 CURVE SMOOTH",
"88 22 LINE"
);
}
);
};
layerId = "CD8D3C65-81B5-4831-B5B6-20AA0404C7C2";
paths = (
{
closed = 1;
nodes = (
"364 0 LINE SMOOTH",
"796 0 OFFCURVE",
"1150 406 OFFCURVE",
"1150 836 CURVE SMOOTH",
"1150 1169 OFFCURVE",
"938 1400 OFFCURVE",
"641 1400 CURVE SMOOTH",
"343 1400 LINE",
"203 710 LINE",
"42 710 LINE",
"39 690 LINE",
"199 690 LINE",
"58 0 LINE"
);
},
{
closed = 1;
nodes = (
"221 690 LINE",
"605 690 LINE",
"608 710 LINE",
"225 710 LINE",
"361 1378 LINE",
"640 1378 LINE SMOOTH",
"925 1378 OFFCURVE",
"1129 1156 OFFCURVE",
"1129 837 CURVE SMOOTH",
"1129 422 OFFCURVE",
"783 22 OFFCURVE",
"365 22 CURVE SMOOTH",
"85 22 LINE"
);
}
);
width = 1278;
},
{
background = {
paths = (
{
closed = 1;
nodes = (
"450 0 LINE SMOOTH",
"834 0 OFFCURVE",
"1206 293 OFFCURVE",
"1338 700 CURVE SMOOTH",
"1462 1082 OFFCURVE",
"1264 1400 OFFCURVE",
"902 1400 CURVE SMOOTH",
"514 1400 LINE",
"303 770 LINE",
"164 770 LINE",
"114 621 LINE",
"253 621 LINE",
"44 0 LINE"
);
},
{
closed = 1;
nodes = (
"417 621 LINE",
"684 621 LINE",
"734 770 LINE",
"468 770 LINE",
"627 1230 LINE",
"868 1230 LINE SMOOTH",
"1141 1230 OFFCURVE",
"1277 993 OFFCURVE",
"1172 700 CURVE SMOOTH",
"1059 387 OFFCURVE",
"778 170 OFFCURVE",
"484 170 CURVE SMOOTH",
"261 170 LINE"
);
}
);
};
layerId = "CF6F8622-38E2-4A45-B461-838A78B3383E";
paths = (
{
closed = 1;
nodes = (
"450 0 LINE SMOOTH",
"882 0 OFFCURVE",
"1253 394 OFFCURVE",
"1253 820 CURVE SMOOTH",
"1253 1156 OFFCURVE",
"1023 1400 OFFCURVE",
"706 1400 CURVE SMOOTH",
"318 1400 LINE",
"195 770 LINE",
"56 770 LINE",
"27 621 LINE",
"166 621 LINE",
"44 0 LINE"
);
},
{
closed = 1;
nodes = (
"330 621 LINE",
"597 621 LINE",
"626 770 LINE",
"360 770 LINE",
"454 1230 LINE",
"695 1230 LINE SMOOTH",
"927 1230 OFFCURVE",
"1088 1059 OFFCURVE",
"1088 812 CURVE SMOOTH",
"1088 479 OFFCURVE",
"796 170 OFFCURVE",
"460 170 CURVE SMOOTH",
"237 170 LINE"
);
}
);
userData = {
com.schriftgestaltung.Glyphs.lastChange = "2019-10-03 14:51:18 +0000";
};
width = 1278;
},
{
layerId = "C81D5947-3D41-4C9D-B8BA-C68D41D38A45";
paths = (
{
closed = 1;
nodes = (
"580 0 LINE SMOOTH",
"993 0 OFFCURVE",
"1280 287 OFFCURVE",
"1280 700 CURVE SMOOTH",
"1280 1113 OFFCURVE",
"993 1400 OFFCURVE",
"580 1400 CURVE SMOOTH",
"160 1400 LINE",
"160 770 LINE",
"10 770 LINE",
"10 620 LINE",
"160 620 LINE",
"160 0 LINE"
);
},
{
closed = 1;
nodes = (
"330 620 LINE",
"610 620 LINE",
"610 770 LINE",
"330 770 LINE",
"330 1230 LINE",
"580 1230 LINE SMOOTH",
"901 1230 OFFCURVE",
"1110 1021 OFFCURVE",
"1110 700 CURVE SMOOTH",
"1110 379 OFFCURVE",
"901 170 OFFCURVE",
"580 170 CURVE SMOOTH",
"330 170 LINE"
);
}
);
width = 1360;
},
{
layerId = "2EABF22E-58CD-4ADD-8975-1500671E7F04";
paths = (
{
closed = 1;
nodes = (
"690 0 LINE SMOOTH",
"1178 0 OFFCURVE",
"1470 262 OFFCURVE",
"1470 700 CURVE SMOOTH",
"1470 1138 OFFCURVE",
"1178 1400 OFFCURVE",
"690 1400 CURVE SMOOTH",
"140 1400 LINE",
"140 826 LINE",
"12 826 LINE",
"12 596 LINE",
"140 596 LINE",
"140 0 LINE"
);
},
{
closed = 1;
nodes = (
"598 596 LINE",
"772 596 LINE",
"772 826 LINE",
"598 826 LINE",
"598 1020 LINE",
"670 1020 LINE SMOOTH",
"900 1020 OFFCURVE",
"1010 916 OFFCURVE",
"1010 700 CURVE SMOOTH",
"1010 484 OFFCURVE",
"900 380 OFFCURVE",
"670 380 CURVE SMOOTH",
"598 380 LINE"
);
}
);
width = 1530;
},
{
background = {
paths = (
{
closed = 1;
nodes = (
"564 0 LINE SMOOTH",
"1000 0 OFFCURVE",
"1389 278 OFFCURVE",
"1520 700 CURVE SMOOTH",
"1645 1104 OFFCURVE",
"1404 1400 OFFCURVE",
"994 1400 CURVE SMOOTH",
"496 1400 LINE",
"299 826 LINE",
"180 826 LINE",
"98 596 LINE",
"220 596 LINE",
"16 0 LINE"
);
},
{
closed = 1;
nodes = (
"664 596 LINE",
"826 596 LINE",
"908 826 LINE",
"743 826 LINE",
"809 1019 LINE",
"892 1018 LINE SMOOTH",
"1090 1016 OFFCURVE",
"1146 878 OFFCURVE",
"1076 700 CURVE SMOOTH",
"1000 506 OFFCURVE",
"836 380 OFFCURVE",
"628 380 CURVE SMOOTH",
"590 380 LINE"
);
}
);
};
layerId = "9017EC39-7277-4FD3-B807-1ABD7559DC0D";
paths = (
{
closed = 1;
nodes = (
"604 0 LINE SMOOTH",
"1054 0 OFFCURVE",
"1433 370 OFFCURVE",
"1433 805 CURVE SMOOTH",
"1433 1193 OFFCURVE",
"1132 1400 OFFCURVE",
"797 1400 CURVE SMOOTH",
"299 1400 LINE",
"183 826 LINE",
"64 826 LINE",
"14 596 LINE",
"136 596 LINE",
"16 0 LINE"
);
},
{
closed = 1;
nodes = (
"580 596 LINE",
"742 596 LINE",
"792 826 LINE",
"627 826 LINE",
"666 1019 LINE",
"749 1018 LINE SMOOTH",
"883 1016 OFFCURVE",
"991 951 OFFCURVE",
"991 786 CURVE SMOOTH",
"991 574 OFFCURVE",
"814 380 OFFCURVE",
"614 380 CURVE SMOOTH",
"536 380 LINE"
);
}
);
width = 1438;
}
);
unicode = 00D0;
},
{
color = 4;
glyphname = E;
lastChange = "2019-11-13 15:44:41 +0000";
layers = (
{
anchors = (
{
name = bottom;
position = "{510, 0}";
},
{
name = ogonek;
position = "{701, 20}";
},
{
name = top;
position = "{519, 1400}";
},
{
name = topleft;
position = "{20, 1400}";
}
);
layerId = master01;
paths = (
{
closed = 1;
nodes = (
"860 0 LINE",
"860 20 LINE",
"202 20 LINE",
"202 768 LINE",
"820 768 LINE",
"820 788 LINE",
"202 788 LINE",
"202 1380 LINE",
"860 1380 LINE",
"860 1400 LINE",
"180 1400 LINE",
"180 0 LINE"
);
}
);
width = 1020;
},
{
anchors = (
{
name = bottom;
position = "{441, 0}";
},
{
name = ogonek;
position = "{511, 10}";
},
{
name = top;
position = "{750, 1400}";
},
{
name = topleft;
position = "{-177, 1400}";
}
);
layerId = "CD8D3C65-81B5-4831-B5B6-20AA0404C7C2";
paths = (
{
closed = 1;
nodes = (
"702 0 LINE",
"705 20 LINE",
"84 20 LINE",
"237 768 LINE",
"818 768 LINE",
"821 788 LINE",
"241 788 LINE",
"362 1380 LINE",
"978 1380 LINE",
"981 1400 LINE",
"343 1400 LINE",
"58 0 LINE"
);
}
);
width = 958;
},
{
anchors = (
{
name = bottom;
position = "{367, 0}";
},
{
name = ogonek;
position = "{505, 59}";
},
{
name = top;
position = "{735, 1400}";
},
{
name = topleft;
position = "{-177, 1400}";
}
);
layerId = "CF6F8622-38E2-4A45-B461-838A78B3383E";
paths = (
{
closed = 1;
nodes = (
"802 0 LINE",
"834 160 LINE",
"235 160 LINE",
"342 682 LINE",
"900 682 LINE",
"932 840 LINE",
"374 840 LINE",
"457 1240 LINE",
"1050 1240 LINE",
"1081 1400 LINE",
"317 1400 LINE",
"44 0 LINE"
);
}
);
userData = {
com.schriftgestaltung.Glyphs.lastChange = "2019-10-03 14:51:18 +0000";
};
width = 1034;
},
{
anchors = (
{
name = bottom;
position = "{550, 0}";
},
{
name = ogonek;
position = "{717, 53}";
},
{
name = top;
position = "{550, 1400}";
},
{
name = topleft;
position = "{20, 1400}";
}
);
layerId = "C81D5947-3D41-4C9D-B8BA-C68D41D38A45";
paths = (
{
closed = 1;
nodes = (
"960 0 LINE",
"960 160 LINE",
"330 160 LINE",
"330 680 LINE",
"920 680 LINE",
"920 840 LINE",
"330 840 LINE",
"330 1240 LINE",
"960 1240 LINE",
"960 1400 LINE",
"160 1400 LINE",
"160 0 LINE"
);
}
);
width = 1100;
},
{
anchors = (
{
name = bottom;
position = "{635, 0}";
},
{
name = ogonek;
position = "{809, 70}";
},
{
name = top;
position = "{635, 1400}";
},
{
name = topleft;
position = "{20, 1400}";
}
);
layerId = "2EABF22E-58CD-4ADD-8975-1500671E7F04";
paths = (
{
closed = 1;
nodes = (
"1150 0 LINE",
"1150 350 LINE",
"560 350 LINE",
"560 550 LINE",
"1110 550 LINE",
"1110 890 LINE",
"560 890 LINE",
"560 1050 LINE",
"1150 1050 LINE",
"1150 1400 LINE",
"140 1400 LINE",
"140 0 LINE"
);
}
);
width = 1270;
},
{
anchors = (
{
name = bottom;
position = "{540, 28}";
},
{
name = ogonek;
position = "{589, 10}";
},
{
name = top;
position = "{815, 1400}";
},
{
name = topleft;
position = "{299, 1400}";
}
);
layerId = "9017EC39-7277-4FD3-B807-1ABD7559DC0D";
paths = (
{
closed = 1;
nodes = (
"978 0 LINE",
"1053 350 LINE",
"495 350 LINE",
"536 550 LINE",
"1051 550 LINE",
"1123 890 LINE",
"604 890 LINE",
"636 1050 LINE",
"1190 1050 LINE",
"1263 1400 LINE",
"299 1400 LINE",
"16 0 LINE"
);
}
);
width = 1194;
}
);
unicode = 0045;
},
{
color = 4;
glyphname = F;
lastChange = "2019-11-13 15:44:41 +0000";
layers = (
{
anchors = (
{
name = bottom;
position = "{450, 0}";
},
{
name = top;
position = "{450, 1400}";
}
);
layerId = master01;
paths = (
{
closed = 1;
nodes = (
"202 0 LINE",
"202 746 LINE",
"760 746 LINE",
"760 766 LINE",
"202 766 LINE",
"202 1378 LINE",
"780 1378 LINE",
"780 1400 LINE",
"180 1400 LINE",
"180 0 LINE"
);
}
);
width = 900;
},
{
anchors = (
{
name = bottom;
position = "{423, 0}";
},
{
name = top;
position = "{226, 1400}";
}
);
layerId = "CD8D3C65-81B5-4831-B5B6-20AA0404C7C2";
paths = (
{
closed = 1;
nodes = (
"80 0 LINE",
"232 746 LINE",
"757 746 LINE",
"760 766 LINE",
"236 766 LINE",
"361 1378 LINE",
"902 1378 LINE",
"907 1400 LINE",
"344 1400 LINE",
"58 0 LINE"
);
}
);
width = 846;
},
{
anchors = (
{
name = bottom;
position = "{470, 0}";
},
{
name = top;
position = "{273, 1400}";
}
);
layerId = "CF6F8622-38E2-4A45-B461-838A78B3383E";
paths = (
{
closed = 1;
nodes = (
"202 0 LINE",
"342 682 LINE",
"844 682 LINE",
"876 840 LINE",
"374 840 LINE",
"457 1240 LINE",
"976 1240 LINE",
"1007 1400 LINE",
"317 1400 LINE",
"44 0 LINE"
);
}
);
userData = {
com.schriftgestaltung.Glyphs.lastChange = "2019-10-03 14:51:18 +0000";
};
width = 940;
},
{
anchors = (
{
name = bottom;
position = "{500, 0}";
},
{
name = top;
position = "{500, 1400}";
}
);
layerId = "C81D5947-3D41-4C9D-B8BA-C68D41D38A45";
paths = (
{
closed = 1;
nodes = (
"330 0 LINE",
"330 680 LINE",
"860 680 LINE",
"860 840 LINE",
"330 840 LINE",
"330 1240 LINE",
"880 1240 LINE",
"880 1400 LINE",
"160 1400 LINE",
"160 0 LINE"
);
}
);
width = 1000;
},
{
anchors = (
{
name = bottom;
position = "{585, 0}";
},
{
name = top;
position = "{585, 1400}";
}
);
layerId = "2EABF22E-58CD-4ADD-8975-1500671E7F04";
paths = (
{
closed = 1;
nodes = (
"560 0 LINE",
"560 490 LINE",
"1050 490 LINE",
"1050 830 LINE",
"560 830 LINE",
"560 1030 LINE",
"1070 1030 LINE",
"1070 1400 LINE",
"140 1400 LINE",
"140 0 LINE"
);
}
);
width = 1170;
},
{
anchors = (
{
name = bottom;
position = "{550, 0}";
},
{
name = top;
position = "{667, 1400}";
}
);
layerId = "9017EC39-7277-4FD3-B807-1ABD7559DC0D";
paths = (
{
closed = 1;
nodes = (
"424 0 LINE",
"523 490 LINE",
"983 490 LINE",
"1055 830 LINE",
"592 830 LINE",
"632 1030 LINE",
"1109 1030 LINE",
"1187 1400 LINE",
"299 1400 LINE",
"16 0 LINE"
);
}
);
width = 1100;
}
);
unicode = 0046;
},
{
color = 4;
glyphname = G;
lastChange = "2019-11-13 15:48:31 +0000";
layers = (
{
anchors = (
{
name = bottom;
position = "{780, -16}";
},
{
name = top;
position = "{780, 1416}";
}
);
layerId = master01;
paths = (
{
closed = 1;
nodes = (
"1168 -16 OFFCURVE",
"1420 312 OFFCURVE",
"1420 680 CURVE",
"840 680 LINE",
"840 660 LINE",
"1398 660 LINE",
"1390 310 OFFCURVE",
"1148 6 OFFCURVE",
"780 6 CURVE SMOOTH",
"396 6 OFFCURVE",
"122 300 OFFCURVE",
"122 700 CURVE SMOOTH",
"122 1106 OFFCURVE",
"398 1394 OFFCURVE",
"780 1394 CURVE SMOOTH",
"1024 1394 OFFCURVE",
"1216 1266 OFFCURVE",
"1316 1100 CURVE",
"1336 1112 LINE",
"1216 1286 OFFCURVE",
"1038 1416 OFFCURVE",
"780 1416 CURVE SMOOTH",
"392 1416 OFFCURVE",
"100 1118 OFFCURVE",
"100 700 CURVE SMOOTH",
"100 282 OFFCURVE",
"392 -16 OFFCURVE",
"780 -16 CURVE SMOOTH"
);
}
);
width = 1530;
},
{
anchors = (
{
name = bottom;
position = "{617, 1}";
},
{
name = top;
position = "{907, 1416}";
}
);
layerId = "CD8D3C65-81B5-4831-B5B6-20AA0404C7C2";
paths = (
{
closed = 1;
nodes = (
"1025 -14 OFFCURVE",
"1277 347 OFFCURVE",
"1365 678 CURVE",
"819 680 LINE",
"816 660 LINE",
"1342 658 LINE",
"1249 347 OFFCURVE",
"1008 8 OFFCURVE",
"631 8 CURVE SMOOTH",
"239 8 OFFCURVE",
"89 375 OFFCURVE",
"148 699 CURVE SMOOTH",
"209 1035 OFFCURVE",
"513 1401 OFFCURVE",
"908 1394 CURVE SMOOTH",
"1121 1390 OFFCURVE",
"1267 1278 OFFCURVE",
"1354 1100 CURVE",
"1374 1112 LINE",
"1271 1298 OFFCURVE",
"1123 1412 OFFCURVE",
"907 1416 CURVE SMOOTH",
"514 1424 OFFCURVE",
"190 1062 OFFCURVE",
"126 699 CURVE SMOOTH",
"66 357 OFFCURVE",
"232 -14 OFFCURVE",
"631 -14 CURVE SMOOTH"
);
}
);
width = 1438;
},
{
anchors = (
{
name = bottom;
position = "{643, -20}";
},
{
name = top;
position = "{979, 1420}";
}
);
layerId = "CF6F8622-38E2-4A45-B461-838A78B3383E";
paths = (
{
closed = 1;
nodes = (
"1061 -20 OFFCURVE",
"1327 348 OFFCURVE",
"1407 708 CURVE",
"795 708 LINE",
"759 550 LINE",
"1187 550 LINE",
"1084 360 OFFCURVE",
"922 147 OFFCURVE",
"653 152 CURVE SMOOTH",
"346 158 OFFCURVE",
"229 441 OFFCURVE",
"280 699 CURVE SMOOTH",
"334 973 OFFCURVE",
"584 1245 OFFCURVE",
"899 1248 CURVE SMOOTH",
"1068 1249 OFFCURVE",
"1201 1173 OFFCURVE",
"1280 1014 CURVE",
"1411 1118 LINE",
"1304 1315 OFFCURVE",
"1133 1420 OFFCURVE",
"908 1420 CURVE SMOOTH",
"497 1420 OFFCURVE",
"166 1068 OFFCURVE",
"104 700 CURVE SMOOTH",
"44 343 OFFCURVE",
"243 -20 OFFCURVE",
"651 -20 CURVE SMOOTH"
);
}
);
userData = {
com.schriftgestaltung.Glyphs.lastChange = "2019-10-03 14:51:18 +0000";
};
width = 1458;
},
{
anchors = (
{
name = bottom;
position = "{790, -20}";
},
{
name = top;
position = "{790, 1420}";
}
);
layerId = "C81D5947-3D41-4C9D-B8BA-C68D41D38A45";
paths = (
{
closed = 1;
nodes = (
"1218 -20 OFFCURVE",
"1460 322 OFFCURVE",
"1460 710 CURVE",
"810 710 LINE",
"810 550 LINE",
"1276 550 LINE",
"1230 332 OFFCURVE",
"1068 150 OFFCURVE",
"790 150 CURVE SMOOTH",
"494 150 OFFCURVE",
"260 374 OFFCURVE",
"260 700 CURVE SMOOTH",
"260 1026 OFFCURVE",
"494 1250 OFFCURVE",
"790 1250 CURVE SMOOTH",
"1004 1250 OFFCURVE",
"1164 1160 OFFCURVE",
"1252 1012 CURVE",
"1372 1122 LINE",
"1252 1316 OFFCURVE",
"1048 1420 OFFCURVE",
"790 1420 CURVE SMOOTH",
"382 1420 OFFCURVE",
"80 1118 OFFCURVE",
"80 700 CURVE SMOOTH",
"80 282 OFFCURVE",
"382 -20 OFFCURVE",
"790 -20 CURVE SMOOTH"
);
}
);
width = 1550;
},
{
anchors = (
{
name = bottom;
position = "{860, -60}";
},
{
name = top;
position = "{880, 1440}";
}
);
layerId = "2EABF22E-58CD-4ADD-8975-1500671E7F04";
paths = (
{
closed = 1;
nodes = (
"1368 -60 OFFCURVE",
"1644 322 OFFCURVE",
"1604 800 CURVE",
"860 800 LINE",
"860 480 LINE",
"1175 480 LINE",
"1129 376 OFFCURVE",
"1041 310 OFFCURVE",
"880 310 CURVE SMOOTH",
"664 310 OFFCURVE",
"520 454 OFFCURVE",
"520 700 CURVE SMOOTH",
"520 946 OFFCURVE",
"684 1070 OFFCURVE",
"880 1070 CURVE SMOOTH",
"1014 1070 OFFCURVE",
"1084 992 OFFCURVE",
"1132 904 CURVE",
"1542 1088 LINE",
"1402 1282 OFFCURVE",
"1198 1440 OFFCURVE",
"880 1440 CURVE SMOOTH",
"412 1440 OFFCURVE",
"60 1158 OFFCURVE",
"60 700 CURVE SMOOTH",
"60 242 OFFCURVE",
"392 -60 OFFCURVE",
"860 -60 CURVE SMOOTH"
);
}
);
width = 1676;
},
{
anchors = (
{
name = bottom;
position = "{735, -60}";
},
{
name = top;
position = "{1114, 1440}";
}
);
layerId = "9017EC39-7277-4FD3-B807-1ABD7559DC0D";
paths = (
{
closed = 1;
nodes = (
"1258 -60 OFFCURVE",
"1512 366 OFFCURVE",
"1556 798 CURVE",
"856 798 LINE",
"787 480 LINE",
"1057 480 LINE",
"993 366 OFFCURVE",
"894 312 OFFCURVE",
"773 312 CURVE SMOOTH",
"533 312 OFFCURVE",
"483 527 OFFCURVE",
"526 700 CURVE SMOOTH",
"572 885 OFFCURVE",
"746 1068 OFFCURVE",
"947 1068 CURVE SMOOTH",
"1066 1068 OFFCURVE",
"1111 1004 OFFCURVE",
"1157 904 CURVE",
"1568 1082 LINE",
"1424 1302 OFFCURVE",
"1245 1440 OFFCURVE",
"968 1440 CURVE SMOOTH",
"539 1440 OFFCURVE",
"145 1109 OFFCURVE",
"82 700 CURVE SMOOTH",
"20 299 OFFCURVE",
"289 -60 OFFCURVE",
"753 -60 CURVE SMOOTH"
);
}
);
width = 1576;
}
);
unicode = 0047;
},
{
color = 4;
glyphname = H;
lastChange = "2019-11-13 15:44:41 +0000";
layers = (
{
anchors = (
{
name = bottom;
position = "{647, 0}";
},
{
name = center;
position = "{647, 700}";
},
{
name = top;
position = "{647, 1400}";
},
{
name = topleft;
position = "{20, 1400}";
}
);
layerId = master01;
paths = (
{
closed = 1;
nodes = (
"202 0 LINE",
"202 754 LINE",
"1092 754 LINE",
"1092 0 LINE",
"1114 0 LINE",
"1114 1400 LINE",
"1092 1400 LINE",
"1092 774 LINE",
"202 774 LINE",
"202 1400 LINE",
"180 1400 LINE",
"180 0 LINE"
);
}
);
width = 1294;
},
{
anchors = (
{
name = bottom;
position = "{608, 0}";
},
{
name = center;
position = "{510, 700}";
},
{
name = top;
position = "{799, 1400}";
},
{
name = topleft;
position = "{-177, 1400}";
}
);
layerId = "CD8D3C65-81B5-4831-B5B6-20AA0404C7C2";
paths = (
{
closed = 1;
nodes = (
"80 0 LINE",
"234 754 LINE",
"1070 754 LINE",
"916 0 LINE",
"938 0 LINE",
"1224 1398 LINE",
"1202 1398 LINE",
"1074 774 LINE",
"238 774 LINE",
"366 1398 LINE",
"344 1398 LINE",
"58 0 LINE"
);
}
);
width = 1216;
},
{
anchors = (
{
name = bottom;
position = "{672, 0}";
},
{
name = center;
position = "{574, 700}";
},
{
name = top;
position = "{840, 1400}";
},
{
name = topleft;
position = "{-177, 1400}";
}
);
layerId = "CF6F8622-38E2-4A45-B461-838A78B3383E";
paths = (
{
closed = 1;
nodes = (
"202 0 LINE",
"342 682 LINE",
"1061 682 LINE",
"928 0 LINE",
"1086 0 LINE",
"1375 1400 LINE",
"1202 1398 LINE",
"1092 840 LINE",
"374 840 LINE",
"489 1400 LINE",
"318 1398 LINE",
"44 0 LINE"
);
}
);
userData = {
com.schriftgestaltung.Glyphs.lastChange = "2019-10-03 14:51:18 +0000";
};
width = 1344;
},
{
anchors = (
{
name = bottom;
position = "{715, 0}";
},
{
name = center;
position = "{715, 700}";
},
{
name = top;
position = "{715, 1400}";
},
{
name = topleft;
position = "{20, 1400}";
}
);
layerId = "C81D5947-3D41-4C9D-B8BA-C68D41D38A45";
paths = (
{
closed = 1;
nodes = (
"330 0 LINE",
"330 680 LINE",
"1100 680 LINE",
"1100 0 LINE",
"1270 0 LINE",
"1270 1400 LINE",
"1100 1400 LINE",
"1100 840 LINE",
"330 840 LINE",
"330 1400 LINE",
"160 1400 LINE",
"160 0 LINE"
);
}
);
width = 1430;
},
{
anchors = (
{
name = bottom;
position = "{830, 0}";
},
{
name = center;
position = "{830, 700}";
},
{
name = top;
position = "{830, 1400}";
},
{
name = topleft;
position = "{20, 1400}";
}
);
layerId = "2EABF22E-58CD-4ADD-8975-1500671E7F04";
paths = (
{
closed = 1;
nodes = (
"580 0 LINE",
"580 530 LINE",
"1080 530 LINE",
"1080 0 LINE",
"1520 0 LINE",
"1520 1400 LINE",
"1080 1400 LINE",
"1080 920 LINE",
"580 920 LINE",
"580 1400 LINE",
"140 1400 LINE",
"140 0 LINE"
);
}
);
width = 1660;
},
{
anchors = (
{
name = bottom;
position = "{780, 0}";
},
{
name = center;
position = "{682, 700}";
},
{
name = top;
position = "{1000, 1400}";
},
{
name = topleft;
position = "{-177, 1400}";
}
);
layerId = "9017EC39-7277-4FD3-B807-1ABD7559DC0D";
paths = (
{
closed = 1;
nodes = (
"442 0 LINE",
"550 530 LINE",
"1008 530 LINE",
"900 0 LINE",
"1328 0 LINE",
"1611 1400 LINE",
"1183 1400 LINE",
"1086 920 LINE",
"630 920 LINE",
"727 1400 LINE",
"299 1400 LINE",
"16 0 LINE"
);
}
);
width = 1560;
}
);
unicode = 0048;
},
{
color = 4;
glyphname = Hbar;
lastChange = "2019-11-13 15:44:41 +0000";
layers = (
{
anchors = (
{
name = bottom;
position = "{647, 0}";
},
{
name = center;
position = "{647, 700}";
},
{
name = top;
position = "{647, 1400}";
},
{
name = topleft;
position = "{20, 1400}";
}
);
layerId = master01;
paths = (
{
closed = 1;
nodes = (
"202 0 LINE",
"202 754 LINE",
"1092 754 LINE",
"1092 0 LINE",
"1114 0 LINE",
"1114 954 LINE",
"1173 954 LINE",
"1173 974 LINE",
"1114 974 LINE",
"1114 1400 LINE",
"1092 1400 LINE",
"1092 974 LINE",
"202 974 LINE",
"202 1400 LINE",
"180 1400 LINE",
"180 974 LINE",
"121 974 LINE",
"121 954 LINE",
"180 954 LINE",
"180 0 LINE"
);
},
{
closed = 1;
nodes = (
"202 954 LINE",
"1092 954 LINE",
"1092 774 LINE",
"202 774 LINE"
);
}
);
width = 1294;
},
{
anchors = (
{
name = bottom;
position = "{608, 0}";
},
{
name = center;
position = "{510, 700}";
},
{
name = top;
position = "{799, 1400}";
},
{
name = topleft;
position = "{-177, 1400}";
}
);
layerId = "CD8D3C65-81B5-4831-B5B6-20AA0404C7C2";
paths = (
{
closed = 1;
nodes = (
"80 0 LINE",
"234 754 LINE",
"1070 754 LINE",
"916 0 LINE",
"938 0 LINE",
"1133 954 LINE",
"1236 954 LINE",
"1239 974 LINE",
"1137 974 LINE",
"1224 1398 LINE",
"1202 1398 LINE",
"1115 974 LINE",
"279 974 LINE",
"366 1398 LINE",
"344 1398 LINE",
"257 974 LINE",
"187 974 LINE",
"184 954 LINE",
"253 954 LINE",
"58 0 LINE"
);
},
{
closed = 1;
nodes = (
"275 954 LINE",
"1111 954 LINE",
"1074 774 LINE",
"238 774 LINE"
);
}
);
width = 1216;
},
{
anchors = (
{
name = bottom;
position = "{715, 0}";
},
{
name = center;
position = "{715, 700}";
},
{
name = top;
position = "{715, 1400}";
},
{
name = topleft;
position = "{20, 1400}";
}
);
layerId = "C81D5947-3D41-4C9D-B8BA-C68D41D38A45";
paths = (
{
closed = 1;
nodes = (
"330 0 LINE",
"330 580 LINE",
"1100 580 LINE",
"1100 0 LINE",
"1270 0 LINE",
"1270 930 LINE",
"1352 930 LINE",
"1352 1090 LINE",
"1270 1090 LINE",
"1270 1400 LINE",
"1100 1400 LINE",
"1100 1090 LINE",
"330 1090 LINE",
"330 1400 LINE",
"160 1400 LINE",
"160 1090 LINE",
"78 1090 LINE",
"78 930 LINE",
"160 930 LINE",
"160 0 LINE"
);
},
{
closed = 1;
nodes = (
"330 930 LINE",
"1100 930 LINE",
"1100 740 LINE",
"330 740 LINE"
);
}
);
width = 1430;
},
{
anchors = (
{
name = bottom;
position = "{672, 0}";
},
{
name = center;
position = "{574, 700}";
},
{
name = top;
position = "{840, 1400}";
},
{
name = topleft;
position = "{-177, 1400}";
}
);
layerId = "CF6F8622-38E2-4A45-B461-838A78B3383E";
paths = (
{
closed = 1;
nodes = (
"202 0 LINE",
"321 582 LINE",
"1042 582 LINE",
"928 0 LINE",
"1086 0 LINE",
"1278 930 LINE",
"1398 930 LINE",
"1422 1090 LINE",
"1311 1090 LINE",
"1375 1400 LINE",
"1202 1398 LINE",
"1141 1090 LINE",
"426 1090 LINE",
"489 1400 LINE",
"318 1398 LINE",
"257 1090 LINE",
"148 1090 LINE",
"124 930 LINE",
"226 930 LINE",
"44 0 LINE"
);
},
{
closed = 1;
nodes = (
"393 930 LINE",
"1110 930 LINE",
"1073 740 LINE",
"354 740 LINE"
);
}
);
width = 1344;
},
{
anchors = (
{
name = bottom;
position = "{830, 0}";
},
{
name = center;
position = "{830, 700}";
},
{
name = top;
position = "{830, 1400}";
},
{
name = topleft;
position = "{20, 1400}";
}
);
layerId = "2EABF22E-58CD-4ADD-8975-1500671E7F04";
paths = (
{
closed = 1;
nodes = (
"580 0 LINE",
"580 480 LINE",
"1080 480 LINE",
"1080 0 LINE",
"1520 0 LINE",
"1520 870 LINE",
"1576 870 LINE",
"1576 1119 LINE",
"1520 1119 LINE",
"1520 1400 LINE",
"1080 1400 LINE",
"1080 1119 LINE",
"580 1119 LINE",
"580 1400 LINE",
"140 1400 LINE",
"140 1119 LINE",
"84 1119 LINE",
"84 870 LINE",
"140 870 LINE",
"140 0 LINE"
);
},
{
closed = 1;
nodes = (
"580 870 LINE",
"1080 870 LINE",
"1080 729 LINE",
"580 729 LINE"
);
}
);
width = 1660;
},
{
anchors = (
{
name = bottom;
position = "{780, 0}";
},
{
name = center;
position = "{682, 700}";
},
{
name = top;
position = "{1000, 1400}";
},
{
name = topleft;
position = "{-177, 1400}";
}
);
background = {
paths = (
{
closed = 1;
nodes = (
"1520 0 LINE",
"1520 1400 LINE",
"1080 1400 LINE",
"1080 0 LINE"
);
},
{
closed = 1;
nodes = (
"580 0 LINE",
"580 1400 LINE",
"140 1400 LINE",
"140 0 LINE"
);
},
{
closed = 1;
nodes = (
"1096 480 LINE",
"1096 729 LINE",
"564 729 LINE",
"564 480 LINE"
);
},
{
closed = 1;
nodes = (
"1576 870 LINE",
"1576 1119 LINE",
"84 1119 LINE",
"84 870 LINE"
);
}
);
};
layerId = "9017EC39-7277-4FD3-B807-1ABD7559DC0D";
paths = (
{
closed = 1;
nodes = (
"442 0 LINE",
"540 481 LINE",
"997 481 LINE",
"900 0 LINE",
"1328 0 LINE",
"1505 871 LINE",
"1631 871 LINE",
"1676 1119 LINE",
"1555 1119 LINE",
"1611 1400 LINE",
"1183 1400 LINE",
"1127 1119 LINE",
"670 1119 LINE",
"727 1400 LINE",
"299 1400 LINE",
"243 1119 LINE",
"111 1119 LINE",
"59 871 LINE",
"193 871 LINE",
"16 0 LINE"
);
},
{
closed = 1;
nodes = (
"620 871 LINE",
"1077 871 LINE",
"1048 729 LINE",
"591 729 LINE"
);
}
);
width = 1560;
}
);
unicode = 0126;
},
{
color = 4;
glyphname = I;
lastChange = "2019-11-13 15:44:41 +0000";
layers = (
{
anchors = (
{
name = bottom;
position = "{186, 0}";
},
{
name = ogonek;
position = "{190, 0}";
},
{
name = top;
position = "{180, 1400}";
},
{
name = topleft;
position = "{20, 1400}";
}
);
layerId = master01;
paths = (
{
closed = 1;
nodes = (
"190 0 LINE",
"190 1400 LINE",
"170 1400 LINE",
"170 0 LINE"
);
}
);
width = 360;
},
{
anchors = (
{
name = bottom;
position = "{156, 0}";
},
{
name = ogonek;
position = "{68, 0}";
},
{
name = top;
position = "{342, 1400}";
},
{
name = topleft;
position = "{-177, 1400}";
}
);
layerId = "CD8D3C65-81B5-4831-B5B6-20AA0404C7C2";
paths = (
{
closed = 1;
nodes = (
"68 0 LINE",
"356 1398 LINE",
"336 1398 LINE",
"48 0 LINE"
);
}
);
width = 338;
},
{
anchors = (
{
name = bottom;
position = "{137, 0}";
},
{
name = ogonek;
position = "{202, 0}";
},
{
name = top;
position = "{478, 1400}";
},
{
name = topleft;
position = "{-177, 1400}";
}
);
layerId = "CF6F8622-38E2-4A45-B461-838A78B3383E";
paths = (
{
closed = 1;
nodes = (
"202 0 LINE",
"489 1400 LINE",
"317 1400 LINE",
"44 0 LINE"
);
}
);
userData = {
com.schriftgestaltung.Glyphs.lastChange = "2019-10-03 14:51:18 +0000";
};
width = 460;
},
{
anchors = (
{
name = bottom;
position = "{245, 0}";
},
{
name = ogonek;
position = "{330, 0}";
},
{
name = top;
position = "{245, 1400}";
},
{
name = topleft;
position = "{20, 1400}";
}
);
layerId = "C81D5947-3D41-4C9D-B8BA-C68D41D38A45";
paths = (
{
closed = 1;
nodes = (
"330 0 LINE",
"330 1400 LINE",
"160 1400 LINE",
"160 0 LINE"
);
}
);
width = 490;
},
{
anchors = (
{
name = bottom;
position = "{365, 0}";
},
{
name = ogonek;
position = "{590, 0}";
},
{
name = top;
position = "{365, 1400}";
},
{
name = topleft;
position = "{20, 1400}";
}
);
layerId = "2EABF22E-58CD-4ADD-8975-1500671E7F04";
paths = (
{
closed = 1;
nodes = (
"590 0 LINE",
"590 1400 LINE",
"140 1400 LINE",
"140 0 LINE"
);
}
);
width = 730;
},
{
anchors = (
{
name = bottom;
position = "{218, 0}";
},
{
name = ogonek;
position = "{452, 0}";
},
{
name = top;
position = "{526, 1400}";
},
{
name = topleft;
position = "{-177, 1400}";
}
);
layerId = "9017EC39-7277-4FD3-B807-1ABD7559DC0D";
paths = (
{
closed = 1;
nodes = (
"452 0 LINE",
"735 1400 LINE",
"299 1400 LINE",
"16 0 LINE"
);
}
);
width = 686;
}
);
unicode = 0049;
},
{
color = 4;
glyphname = J;
lastChange = "2019-11-13 15:48:31 +0000";
layers = (
{
anchors = (
{
name = bottom;
position = "{565, 0}";
},
{
name = top;
position = "{571, 1400}";
}
);
layerId = master01;
paths = (
{
closed = 1;
nodes = (
"508 -19 OFFCURVE",
"582 84 OFFCURVE",
"582 324 CURVE SMOOTH",
"582 1400 LINE",
"560 1400 LINE",
"560 335 LINE SMOOTH",
"560 99 OFFCURVE",
"492 3 OFFCURVE",
"334 3 CURVE SMOOTH",
"247 3 OFFCURVE",
"183 30 OFFCURVE",
"114 105 CURVE",
"100 91 LINE",
"160 20 OFFCURVE",
"237 -19 OFFCURVE",
"336 -19 CURVE SMOOTH"
);
}
);
width = 762;
},
{
anchors = (
{
name = bottom;
position = "{663, 0}";
},
{
name = top;
position = "{864, 1398}";
}
);
layerId = "CD8D3C65-81B5-4831-B5B6-20AA0404C7C2";
paths = (
{
closed = 1;
nodes = (
"477 -16 OFFCURVE",
"595 103 OFFCURVE",
"636 306 CURVE SMOOTH",
"856 1398 LINE",
"834 1398 LINE",
"617 326 LINE SMOOTH",
"576 124 OFFCURVE",
"468 4 OFFCURVE",
"337 10 CURVE SMOOTH",
"274 13 OFFCURVE",
"214 44 OFFCURVE",
"151 108 CURVE",
"137 96 LINE",
"200 26 OFFCURVE",
"267 -10 OFFCURVE",
"340 -12 CURVE SMOOTH"
);
}
);
width = 848;
},
{
anchors = (
{
name = bottom;
position = "{417, 0}";
},
{
name = top;
position = "{684, 1400}";
}
);
background = {
paths = (
{
closed = 1;
nodes = (
"245 -442 OFFCURVE",
"383 -290 OFFCURVE",
"447 -122 CURVE SMOOTH",
"965 1400 LINE",
"807 1400 LINE",
"293 -100 LINE SMOOTH",
"265 -182 OFFCURVE",
"193 -272 OFFCURVE",
"97 -280 CURVE SMOOTH",
"39 -284 OFFCURVE",
"7 -252 OFFCURVE",
"-25 -210 CURVE",
"-147 -336 LINE",
"-91 -398 OFFCURVE",
"-33 -436 OFFCURVE",
"53 -438 CURVE SMOOTH"
);
}
);
};
layerId = "CF6F8622-38E2-4A45-B461-838A78B3383E";
paths = (
{
closed = 1;
nodes = (
"375 -20 OFFCURVE",
"521 99 OFFCURVE",
"559 290 CURVE SMOOTH",
"780 1400 LINE",
"610 1400 LINE",
"398 340 LINE SMOOTH",
"383 267 OFFCURVE",
"360 140 OFFCURVE",
"219 140 CURVE SMOOTH",
"161 140 OFFCURVE",
"106 162 OFFCURVE",
"68 204 CURVE",
"-32 85 LINE",
"18 11 OFFCURVE",
"82 -20 OFFCURVE",
"181 -20 CURVE SMOOTH"
);
}
);
userData = {
com.schriftgestaltung.Glyphs.lastChange = "2019-10-03 14:51:18 +0000";
};
width = 739;
},
{
anchors = (
{
name = bottom;
position = "{562, 0}";
},
{
name = top;
position = "{562, 1400}";
}
);
layerId = "C81D5947-3D41-4C9D-B8BA-C68D41D38A45";
paths = (
{
closed = 1;
nodes = (
"518 -20 OFFCURVE",
"642 106 OFFCURVE",
"642 290 CURVE SMOOTH",
"642 1400 LINE",
"472 1400 LINE",
"472 340 LINE SMOOTH",
"472 196 OFFCURVE",
"444 140 OFFCURVE",
"346 140 CURVE SMOOTH",
"284 140 OFFCURVE",
"226 162 OFFCURVE",
"178 204 CURVE",
"96 75 LINE",
"155 14 OFFCURVE",
"241 -20 OFFCURVE",
"336 -20 CURVE SMOOTH"
);
}
);
width = 802;
},
{
anchors = (
{
name = bottom;
position = "{827, 0}";
},
{
name = top;
position = "{827, 1400}";
}
);
layerId = "2EABF22E-58CD-4ADD-8975-1500671E7F04";
paths = (
{
closed = 1;
nodes = (
"839 -24 OFFCURVE",
"1072 171 OFFCURVE",
"1072 476 CURVE SMOOTH",
"1072 1400 LINE",
"622 1400 LINE",
"622 506 LINE SMOOTH",
"622 416 OFFCURVE",
"555 356 OFFCURVE",
"456 356 CURVE SMOOTH",
"390 356 OFFCURVE",
"338 383 OFFCURVE",
"262 458 CURVE",
"50 146 LINE",
"150 30 OFFCURVE",
"286 -24 OFFCURVE",
"476 -24 CURVE SMOOTH"
);
}
);
width = 1212;
},
{
anchors = (
{
name = bottom;
position = "{761, 0}";
},
{
name = top;
position = "{969, 1400}";
}
);
background = {
paths = (
{
closed = 1;
nodes = (
"491 -500 OFFCURVE",
"765 -376 OFFCURVE",
"859 -102 CURVE SMOOTH",
"1369 1400 LINE",
"895 1400 LINE",
"415 12 LINE SMOOTH",
"389 -60 OFFCURVE",
"317 -140 OFFCURVE",
"233 -142 CURVE SMOOTH",
"183 -144 OFFCURVE",
"139 -108 OFFCURVE",
"101 -80 CURVE",
"-211 -372 LINE",
"-79 -448 OFFCURVE",
"59 -500 OFFCURVE",
"213 -500 CURVE SMOOTH"
);
}
);
};
layerId = "9017EC39-7277-4FD3-B807-1ABD7559DC0D";
paths = (
{
closed = 1;
nodes = (
"628 -24 OFFCURVE",
"896 170 OFFCURVE",
"960 476 CURVE SMOOTH",
"1153 1400 LINE",
"723 1400 LINE",
"535 506 LINE SMOOTH",
"516 417 OFFCURVE",
"432 356 OFFCURVE",
"329 356 CURVE SMOOTH",
"262 356 OFFCURVE",
"218 382 OFFCURVE",
"156 458 CURVE",
"-121 146 LINE",
"-46 31 OFFCURVE",
"79 -24 OFFCURVE",
"269 -24 CURVE SMOOTH"
);
}
);
width = 1123;
}
);
unicode = 004A;
},
{
color = 4;
glyphname = K;
lastChange = "2019-11-13 15:44:41 +0000";
layers = (
{
anchors = (
{
name = bottom;
position = "{454, 0}";
},
{
name = top;
position = "{454, 1400}";
}
);
layerId = master01;
paths = (
{
closed = 1;
nodes = (
"878 0 LINE",
"218 744 LINE",
"848 1400 LINE",
"816 1400 LINE",
"188 744 LINE",
"844 0 LINE"
);
},
{
closed = 1;
nodes = (
"192 0 LINE",
"192 1400 LINE",
"170 1400 LINE",
"170 0 LINE"
);
}
);
width = 908;
},
{
anchors = (
{
name = bottom;
position = "{427, 0}";
},
{
name = top;
position = "{629, 1400}";
}
);
layerId = "CD8D3C65-81B5-4831-B5B6-20AA0404C7C2";
paths = (
{
closed = 1;
nodes = (
"714 0 LINE",
"242 742 LINE",
"974 1396 LINE",
"942 1396 LINE",
"217 746 LINE",
"688 0 LINE"
);
},
{
closed = 1;
nodes = (
"70 0 LINE",
"356 1398 LINE",
"336 1398 LINE",
"48 0 LINE"
);
}
);
width = 854;
},
{
anchors = (
{
name = bottom;
position = "{434, 0}";
},
{
name = top;
position = "{749, 1400}";
}
);
layerId = "CF6F8622-38E2-4A45-B461-838A78B3383E";
paths = (
{
closed = 1;
nodes = (
"940 0 LINE",
"495 736 LINE",
"1210 1398 LINE",
"992 1398 LINE",
"301 750 LINE",
"754 0 LINE"
);
},
{
closed = 1;
nodes = (
"202 0 LINE",
"489 1400 LINE",
"317 1400 LINE",
"44 0 LINE"
);
}
);
userData = {
com.schriftgestaltung.Glyphs.lastChange = "2019-10-03 14:51:18 +0000";
};
width = 1062;
},
{
anchors = (
{
name = bottom;
position = "{565, 0}";
},
{
name = top;
position = "{565, 1400}";
}
);
layerId = "C81D5947-3D41-4C9D-B8BA-C68D41D38A45";
paths = (
{
closed = 1;
nodes = (
"1120 0 LINE",
"484 744 LINE",
"1090 1400 LINE",
"880 1400 LINE",
"278 740 LINE",
"910 0 LINE"
);
},
{
closed = 1;
nodes = (
"330 0 LINE",
"330 1400 LINE",
"160 1400 LINE",
"160 0 LINE"
);
}
);
width = 1130;
},
{
anchors = (
{
name = bottom;
position = "{781, 0}";
},
{
name = top;
position = "{781, 1400}";
}
);
layerId = "2EABF22E-58CD-4ADD-8975-1500671E7F04";
paths = (
{
closed = 1;
nodes = (
"1572 0 LINE",
"996 744 LINE",
"1542 1400 LINE",
"1030 1400 LINE",
"474 730 LINE",
"1040 0 LINE"
);
},
{
closed = 1;
nodes = (
"600 0 LINE",
"600 1400 LINE",
"140 1400 LINE",
"140 0 LINE"
);
}
);
width = 1562;
},
{
anchors = (
{
name = bottom;
position = "{677, 0}";
},
{
name = top;
position = "{899, 1400}";
}
);
layerId = "9017EC39-7277-4FD3-B807-1ABD7559DC0D";
paths = (
{
closed = 1;
nodes = (
"1362 0 LINE",
"978 726 LINE",
"1646 1398 LINE",
"1124 1398 LINE",
"483 750 LINE",
"880 0 LINE"
);
},
{
closed = 1;
nodes = (
"462 0 LINE",
"745 1400 LINE",
"299 1400 LINE",
"16 0 LINE"
);
}
);
width = 1468;
}
);
unicode = 004B;
},
{
color = 4;
glyphname = L;
lastChange = "2019-11-13 15:44:41 +0000";
layers = (
{
anchors = (
{
name = bottom;
position = "{455, 0}";
},
{
name = center;
position = "{190, 710}";
},
{
name = top;
position = "{470, 1410}";
},
{
name = topright;
position = "{840, 1400}";
}
);
layerId = master01;
paths = (
{
closed = 1;
nodes = (
"820 0 LINE",
"820 20 LINE",
"200 20 LINE",
"200 1400 LINE",
"180 1400 LINE",
"180 0 LINE"
);
}
);
width = 860;
},
{
anchors = (
{
name = bottom;
position = "{404, 0}";
},
{
name = center;
position = "{214, 700}";
},
{
name = top;
position = "{657, 1400}";
},
{
name = topright;
position = "{591, 1400}";
}
);
layerId = "CD8D3C65-81B5-4831-B5B6-20AA0404C7C2";
paths = (
{
closed = 1;
nodes = (
"664 0 LINE",
"667 20 LINE",
"83 20 LINE",
"364 1398 LINE",
"344 1398 LINE",
"60 0 LINE"
);
}
);
width = 808;
},
{
anchors = (
{
name = bottom;
position = "{423, 0}";
},
{
name = center;
position = "{282, 700}";
},
{
name = top;
position = "{800, 1400}";
},
{
name = topright;
position = "{629, 1400}";
}
);
layerId = "CF6F8622-38E2-4A45-B461-838A78B3383E";
paths = (
{
closed = 1;
nodes = (
"722 0 LINE",
"756 160 LINE",
"238 160 LINE",
"489 1400 LINE",
"321 1400 LINE",
"38 0 LINE"
);
}
);
userData = {
com.schriftgestaltung.Glyphs.lastChange = "2019-10-03 14:51:18 +0000";
};
width = 846;
},
{
anchors = (
{
name = bottom;
position = "{481, 0}";
},
{
name = center;
position = "{450, 700}";
},
{
name = top;
position = "{570, 1400}";
},
{
name = topright;
position = "{880, 1400}";
}
);
layerId = "C81D5947-3D41-4C9D-B8BA-C68D41D38A45";
paths = (
{
closed = 1;
nodes = (
"880 0 LINE",
"880 160 LINE",
"330 160 LINE",
"330 1400 LINE",
"160 1400 LINE",
"160 0 LINE"
);
}
);
width = 900;
},
{
anchors = (
{
name = bottom;
position = "{575, 0}";
},
{
name = center;
position = "{415, 740}";
},
{
name = top;
position = "{839, 1400}";
},
{
name = topright;
position = "{1130, 1400}";
}
);
layerId = "2EABF22E-58CD-4ADD-8975-1500671E7F04";
paths = (
{
closed = 1;
nodes = (
"1150 0 LINE",
"1150 370 LINE",
"580 370 LINE",
"580 1400 LINE",
"140 1400 LINE",
"140 0 LINE"
);
}
);
width = 1150;
},
{
anchors = (
{
name = bottom;
position = "{541, 0}";
},
{
name = center;
position = "{443, 700}";
},
{
name = top;
position = "{947, 1400}";
},
{
name = topright;
position = "{865, 1400}";
}
);
layerId = "9017EC39-7277-4FD3-B807-1ABD7559DC0D";
paths = (
{
closed = 1;
nodes = (
"978 0 LINE",
"1056 370 LINE",
"518 370 LINE",
"727 1400 LINE",
"299 1400 LINE",
"16 0 LINE"
);
}
);
width = 1082;
}
);
unicode = 004C;
},
{
color = 4;
glyphname = Lslash;
lastChange = "2019-11-13 15:44:41 +0000";
layers = (
{
anchors = (
{
name = bottom;
position = "{455, 0}";
},
{
name = center;
position = "{190, 710}";
},
{
name = top;
position = "{470, 1410}";
},
{
name = topright;
position = "{840, 1400}";
}
);
layerId = master01;
paths = (
{
closed = 1;
nodes = (
"820 0 LINE",
"820 20 LINE",
"200 20 LINE",
"200 1400 LINE",
"180 1400 LINE",
"180 0 LINE"
);
},
{
closed = 1;
nodes = (
"407 1053 LINE",
"396 1069 LINE",
"23 827 LINE",
"34 811 LINE"
);
}
);
width = 860;
},
{
anchors = (
{
name = bottom;
position = "{404, 0}";
},
{
name = center;
position = "{214, 700}";
},
{
name = top;
position = "{657, 1400}";
},
{
name = topright;
position = "{591, 1400}";
}
);
layerId = "CD8D3C65-81B5-4831-B5B6-20AA0404C7C2";
paths = (
{
closed = 1;
nodes = (
"664 0 LINE",
"667 20 LINE",
"83 20 LINE",
"364 1398 LINE",
"344 1398 LINE",
"60 0 LINE"
);
},
{
closed = 1;
nodes = (
"491 1053 LINE",
"483 1069 LINE",
"75 827 LINE",
"83 811 LINE"
);
}
);
width = 808;
},
{
anchors = (
{
name = bottom;
position = "{481, 0}";
},
{
name = center;
position = "{450, 700}";
},
{
name = top;
position = "{570, 1400}";
},
{
name = topright;
position = "{880, 1400}";
}
);
layerId = "C81D5947-3D41-4C9D-B8BA-C68D41D38A45";
paths = (
{
closed = 1;
nodes = (
"880 0 LINE",
"880 160 LINE",
"330 160 LINE",
"330 1400 LINE",
"160 1400 LINE",
"160 0 LINE"
);
},
{
closed = 1;
nodes = (
"534 1015 LINE",
"440 1144 LINE",
"-4 821 LINE",
"90 692 LINE"
);
}
);
width = 900;
},
{
anchors = (
{
name = bottom;
position = "{423, 0}";
},
{
name = center;
position = "{282, 700}";
},
{
name = top;
position = "{801, 1400}";
},
{
name = topright;
position = "{630, 1400}";
}
);
layerId = "CF6F8622-38E2-4A45-B461-838A78B3383E";
paths = (
{
closed = 1;
nodes = (
"722 0 LINE",
"756 160 LINE",
"238 160 LINE",
"490 1400 LINE",
"322 1400 LINE",
"38 0 LINE"
);
},
{
closed = 1;
nodes = (
"622 993 LINE",
"559 1128 LINE",
"28 863 LINE",
"91 728 LINE"
);
}
);
width = 846;
},
{
anchors = (
{
name = bottom;
position = "{575, 0}";
},
{
name = center;
position = "{415, 740}";
},
{
name = top;
position = "{839, 1400}";
},
{
name = topright;
position = "{1130, 1400}";
}
);
layerId = "2EABF22E-58CD-4ADD-8975-1500671E7F04";
paths = (
{
closed = 1;
nodes = (
"1150 0 LINE",
"1150 370 LINE",
"580 370 LINE",
"580 1400 LINE",
"140 1400 LINE",
"140 0 LINE"
);
},
{
closed = 1;
nodes = (
"825 883 LINE",
"735 1160 LINE",
"-40 908 LINE",
"50 631 LINE"
);
}
);
width = 1150;
},
{
anchors = (
{
name = bottom;
position = "{541, 0}";
},
{
name = center;
position = "{442, 700}";
},
{
name = top;
position = "{947, 1400}";
},
{
name = topright;
position = "{865, 1400}";
}
);
layerId = "9017EC39-7277-4FD3-B807-1ABD7559DC0D";
paths = (
{
closed = 1;
nodes = (
"978 0 LINE",
"1056 370 LINE",
"518 370 LINE",
"727 1400 LINE",
"299 1400 LINE",
"16 0 LINE"
);
},
{
closed = 1;
nodes = (
"857 883 LINE",
"808 1160 LINE",
"-4 908 LINE",
"45 631 LINE"
);
}
);
width = 1082;
}
);
unicode = 0141;
},
{
color = 4;
glyphname = M;
lastChange = "2019-11-13 15:44:41 +0000";
layers = (
{
anchors = (
{
name = bottom;
position = "{825, 242}";
},
{
name = top;
position = "{928, 1113}";
}
);
layerId = master01;
paths = (
{
closed = 1;
nodes = (
"142 0 LINE",
"284 1350 LINE",
"830 210 LINE",
"1376 1350 LINE",
"1518 0 LINE",
"1540 0 LINE",
"1390 1430 LINE",
"830 262 LINE",
"270 1430 LINE",
"120 0 LINE"
);
}
);
width = 1660;
},
{
anchors = (
{
name = bottom;
position = "{671, 256}";
},
{
name = top;
position = "{960, 1116}";
}
);
layerId = "CD8D3C65-81B5-4831-B5B6-20AA0404C7C2";
paths = (
{
closed = 1;
nodes = (
"22 0 LINE",
"433 1348 LINE",
"715 208 LINE",
"1461 1344 LINE",
"1318 0 LINE",
"1338 0 LINE",
"1491 1432 LINE",
"723 264 LINE",
"435 1430 LINE",
"2 0 LINE"
);
}
);
width = 1560;
},
{
anchors = (
{
name = bottom;
position = "{594, 181}";
},
{
name = top;
position = "{864, 1400}";
}
);
layerId = "CF6F8622-38E2-4A45-B461-838A78B3383E";
paths = (
{
closed = 1;
nodes = (
"130 0 LINE",
"421 944 LINE",
"682 126 LINE",
"1272 928 LINE",
"1176 0 LINE",
"1340 0 LINE",
"1483 1486 LINE",
"739 462 LINE",
"421 1472 LINE",
"-40 0 LINE"
);
}
);
userData = {
com.schriftgestaltung.Glyphs.lastChange = "2019-10-03 14:51:18 +0000";
};
width = 1524;
},
{
anchors = (
{
name = bottom;
position = "{759, 204}";
},
{
name = top;
position = "{867, 1191}";
}
);
layerId = "C81D5947-3D41-4C9D-B8BA-C68D41D38A45";
paths = (
{
closed = 1;
nodes = (
"250 0 LINE",
"354 946 LINE",
"810 130 LINE",
"1266 946 LINE",
"1370 0 LINE",
"1540 0 LINE",
"1370 1470 LINE",
"810 456 LINE",
"250 1470 LINE",
"80 0 LINE"
);
}
);
width = 1620;
},
{
anchors = (
{
name = bottom;
position = "{919, 198}";
},
{
name = top;
position = "{940, 1279}";
}
);
layerId = "2EABF22E-58CD-4ADD-8975-1500671E7F04";
paths = (
{
closed = 1;
nodes = (
"530 0 LINE",
"602 571 LINE",
"940 130 LINE",
"1278 571 LINE",
"1350 0 LINE",
"1820 0 LINE",
"1560 1470 LINE",
"940 714 LINE",
"320 1470 LINE",
"60 0 LINE"
);
}
);
width = 1880;
},
{
anchors = (
{
name = bottom;
position = "{771, 240}";
},
{
name = top;
position = "{970, 1302}";
}
);
layerId = "9017EC39-7277-4FD3-B807-1ABD7559DC0D";
paths = (
{
closed = 1;
nodes = (
"398 0 LINE",
"584 570 LINE",
"815 124 LINE",
"1206 542 LINE",
"1156 0 LINE",
"1606 0 LINE",
"1660 1492 LINE",
"905 720 LINE",
"479 1470 LINE",
"-64 0 LINE"
);
}
);
width = 1768;
}
);
unicode = 004D;
},
{
color = 4;
glyphname = N;
lastChange = "2019-11-13 15:44:41 +0000";
layers = (
{
anchors = (
{
name = bottom;
position = "{725, 0}";
},
{
name = top;
position = "{725, 1400}";
}
);
layerId = master01;
paths = (
{
closed = 1;
nodes = (
"1270 1400 LINE",
"1248 1400 LINE",
"1248 34 LINE",
"180 1430 LINE",
"180 0 LINE",
"202 0 LINE",
"202 1356 LINE",
"1270 -30 LINE"
);
}
);
width = 1450;
},
{
anchors = (
{
name = bottom;
position = "{434, 0}";
},
{
name = top;
position = "{800, 1400}";
}
);
layerId = "CD8D3C65-81B5-4831-B5B6-20AA0404C7C2";
paths = (
{
closed = 1;
nodes = (
"1296 1398 LINE",
"1274 1398 LINE",
"995 34 LINE",
"273 1430 LINE",
"-18 0 LINE",
"4 0 LINE",
"281 1356 LINE",
"1004 -30 LINE"
);
}
);
width = 1250;
},
{
anchors = (
{
name = bottom;
position = "{646, 0}";
},
{
name = top;
position = "{871, 1400}";
}
);
layerId = "CF6F8622-38E2-4A45-B461-838A78B3383E";
paths = (
{
closed = 1;
nodes = (
"1485 1400 LINE",
"1319 1400 LINE",
"1106 356 LINE",
"334 1466 LINE",
"36 0 LINE",
"204 0 LINE",
"417 1044 LINE",
"1187 -66 LINE"
);
}
);
userData = {
com.schriftgestaltung.Glyphs.lastChange = "2019-10-03 14:51:18 +0000";
};
width = 1458;
},
{
anchors = (
{
name = bottom;
position = "{775, 0}";
},
{
name = top;
position = "{775, 1400}";
}
);
layerId = "C81D5947-3D41-4C9D-B8BA-C68D41D38A45";
paths = (
{
closed = 1;
nodes = (
"1390 1400 LINE",
"1220 1400 LINE",
"1220 358 LINE",
"160 1470 LINE",
"160 0 LINE",
"330 0 LINE",
"330 1042 LINE",
"1390 -70 LINE"
);
}
);
width = 1550;
},
{
anchors = (
{
name = bottom;
position = "{861, 0}";
},
{
name = top;
position = "{805, 1400}";
}
);
layerId = "2EABF22E-58CD-4ADD-8975-1500671E7F04";
paths = (
{
closed = 1;
nodes = (
"1470 1400 LINE",
"1050 1400 LINE",
"1050 767 LINE",
"140 1470 LINE",
"140 0 LINE",
"560 0 LINE",
"560 633 LINE",
"1470 -70 LINE"
);
}
);
width = 1610;
},
{
anchors = (
{
name = bottom;
position = "{822, 0}";
},
{
name = top;
position = "{819, 1400}";
}
);
layerId = "9017EC39-7277-4FD3-B807-1ABD7559DC0D";
paths = (
{
closed = 1;
nodes = (
"1563 1400 LINE",
"1155 1400 LINE",
"1023 760 LINE",
"311 1462 LINE",
"16 0 LINE",
"424 0 LINE",
"554 640 LINE",
"1269 -62 LINE"
);
}
);
width = 1514;
}
);
unicode = 004E;
},
{
color = 4;
glyphname = Eng;
lastChange = "2019-11-13 15:48:31 +0000";
layers = (
{
anchors = (
{
name = bottom;
position = "{725, 0}";
},
{
name = top;
position = "{725, 1400}";
}
);
layerId = master01;
paths = (
{
closed = 1;
nodes = (
"1222 -440 OFFCURVE",
"1270 -302 OFFCURVE",
"1270 -164 CURVE SMOOTH",
"1270 1400 LINE",
"1248 1400 LINE",
"1248 34 LINE",
"180 1430 LINE",
"180 0 LINE",
"202 0 LINE",
"202 1356 LINE",
"1250 -4 LINE",
"1250 -164 LINE SMOOTH",
"1250 -276 OFFCURVE",
"1214 -420 OFFCURVE",
"1054 -420 CURVE SMOOTH",
"980 -420 OFFCURVE",
"930 -370 OFFCURVE",
"898 -330 CURVE",
"884 -344 LINE",
"914 -384 OFFCURVE",
"968 -440 OFFCURVE",
"1054 -440 CURVE SMOOTH"
);
}
);
width = 1450;
},
{
anchors = (
{
name = bottom;
position = "{434, 0}";
},
{
name = top;
position = "{800, 1400}";
}
);
background = {
paths = (
{
closed = 1;
nodes = (
"1492 1398 LINE",
"1470 1398 LINE",
"1000 34 LINE",
"474 1430 LINE",
"-18 0 LINE",
"4 0 LINE",
"472 1356 LINE",
"1000 -30 LINE"
);
}
);
};
layerId = "CD8D3C65-81B5-4831-B5B6-20AA0404C7C2";
paths = (
{
closed = 1;
nodes = (
"852 -438 OFFCURVE",
"945 -330 OFFCURVE",
"979 -164 CURVE SMOOTH",
"1296 1398 LINE",
"1274 1398 LINE",
"995 34 LINE",
"273 1430 LINE",
"-18 0 LINE",
"4 0 LINE",
"281 1356 LINE",
"992 -5 LINE",
"959 -164 LINE SMOOTH",
"928 -315 OFFCURVE",
"837 -418 OFFCURVE",
"740 -418 CURVE SMOOTH",
"688 -418 OFFCURVE",
"641 -389 OFFCURVE",
"592 -330 CURVE",
"576 -344 LINE",
"637 -413 OFFCURVE",
"682 -438 OFFCURVE",
"737 -438 CURVE SMOOTH"
);
}
);
width = 1250;
},
{
anchors = (
{
name = bottom;
position = "{775, 0}";
},
{
name = top;
position = "{775, 1400}";
}
);
layerId = "C81D5947-3D41-4C9D-B8BA-C68D41D38A45";
paths = (
{
closed = 1;
nodes = (
"1292 -440 OFFCURVE",
"1390 -322 OFFCURVE",
"1390 -120 CURVE SMOOTH",
"1390 1400 LINE",
"1220 1400 LINE",
"1220 358 LINE",
"160 1470 LINE",
"160 0 LINE",
"330 0 LINE",
"330 1042 LINE",
"1230 98 LINE",
"1230 -100 LINE SMOOTH",
"1230 -229 OFFCURVE",
"1203 -280 OFFCURVE",
"1134 -280 CURVE SMOOTH",
"1092 -280 OFFCURVE",
"1056 -261 OFFCURVE",
"1036 -228 CURVE",
"948 -360 LINE",
"988 -414 OFFCURVE",
"1045 -440 OFFCURVE",
"1124 -440 CURVE SMOOTH"
);
}
);
width = 1550;
},
{
anchors = (
{
name = bottom;
position = "{646, 0}";
},
{
name = top;
position = "{871, 1400}";
}
);
layerId = "CF6F8622-38E2-4A45-B461-838A78B3383E";
paths = (
{
closed = 1;
nodes = (
"1029 -442 OFFCURVE",
"1135 -326 OFFCURVE",
"1176 -122 CURVE SMOOTH",
"1485 1400 LINE",
"1319 1400 LINE",
"1106 356 LINE",
"334 1466 LINE",
"36 0 LINE",
"204 0 LINE",
"417 1044 LINE",
"1062 114 LINE",
"1019 -100 LINE SMOOTH",
"996 -212 OFFCURVE",
"942 -287 OFFCURVE",
"886 -282 CURVE SMOOTH",
"862 -280 OFFCURVE",
"829 -259 OFFCURVE",
"807 -230 CURVE",
"703 -354 LINE",
"760 -408 OFFCURVE",
"820 -436 OFFCURVE",
"887 -438 CURVE SMOOTH"
);
}
);
width = 1458;
},
{
anchors = (
{
name = bottom;
position = "{861, 0}";
},
{
name = top;
position = "{805, 1400}";
}
);
layerId = "2EABF22E-58CD-4ADD-8975-1500671E7F04";
paths = (
{
closed = 1;
nodes = (
"1317 -424 OFFCURVE",
"1470 -292 OFFCURVE",
"1470 -84 CURVE SMOOTH",
"1470 1400 LINE",
"1050 1400 LINE",
"1050 767 LINE",
"140 1470 LINE",
"140 0 LINE",
"560 0 LINE",
"560 633 LINE",
"1100 216 LINE",
"1100 26 LINE SMOOTH",
"1100 -43 OFFCURVE",
"1064 -84 OFFCURVE",
"1004 -84 CURVE SMOOTH",
"970 -84 OFFCURVE",
"946 -71 OFFCURVE",
"914 -34 CURVE",
"772 -310 LINE",
"877 -394 OFFCURVE",
"957 -424 OFFCURVE",
"1074 -424 CURVE SMOOTH"
);
}
);
width = 1610;
},
{
anchors = (
{
name = bottom;
position = "{822, 0}";
},
{
name = top;
position = "{819, 1400}";
}
);
layerId = "9017EC39-7277-4FD3-B807-1ABD7559DC0D";
paths = (
{
closed = 1;
nodes = (
"1037 -488 OFFCURVE",
"1212 -351 OFFCURVE",
"1252 -152 CURVE SMOOTH",
"1563 1400 LINE",
"1155 1400 LINE",
"1023 760 LINE",
"311 1462 LINE",
"16 0 LINE",
"424 0 LINE",
"554 640 LINE",
"961 240 LINE",
"903 -38 LINE SMOOTH",
"889 -105 OFFCURVE",
"847 -152 OFFCURVE",
"801 -152 CURVE SMOOTH",
"770 -152 OFFCURVE",
"735 -132 OFFCURVE",
"708 -102 CURVE",
"534 -370 LINE",
"641 -456 OFFCURVE",
"719 -488 OFFCURVE",
"823 -488 CURVE SMOOTH"
);
}
);
width = 1514;
}
);
unicode = 014A;
},
{
color = 4;
glyphname = O;
lastChange = "2019-11-13 15:48:31 +0000";
layers = (
{
anchors = (
{
name = bottom;
position = "{774, 0}";
},
{
name = center;
position = "{774, 700}";
},
{
name = ogonek;
position = "{876, 10}";
},
{
name = top;
position = "{774, 1400}";
},
{
name = topleft;
position = "{20, 1400}";
},
{
name = topright;
position = "{1528, 1400}";
}
);
layerId = master01;
paths = (
{
closed = 1;
nodes = (
"1165 -16 OFFCURVE",
"1448 285 OFFCURVE",
"1448 700 CURVE SMOOTH",
"1448 1115 OFFCURVE",
"1165 1416 OFFCURVE",
"774 1416 CURVE SMOOTH",
"383 1416 OFFCURVE",
"100 1115 OFFCURVE",
"100 700 CURVE SMOOTH",
"100 285 OFFCURVE",
"383 -16 OFFCURVE",
"774 -16 CURVE SMOOTH"
);
},
{
closed = 1;
nodes = (
"394 6 OFFCURVE",
"122 296 OFFCURVE",
"122 700 CURVE SMOOTH",
"122 1104 OFFCURVE",
"394 1394 OFFCURVE",
"774 1394 CURVE SMOOTH",
"1154 1394 OFFCURVE",
"1426 1104 OFFCURVE",
"1426 700 CURVE SMOOTH",
"1426 296 OFFCURVE",
"1154 6 OFFCURVE",
"774 6 CURVE SMOOTH"
);
}
);
width = 1548;
},
{
anchors = (
{
name = bottom;
position = "{728, 0}";
},
{
name = center;
position = "{630, 700}";
},
{
name = ogonek;
position = "{1309, 10}";
},
{
name = top;
position = "{901, 1416}";
},
{
name = topleft;
position = "{-166, 1400}";
},
{
name = topright;
position = "{1240, 1400}";
}
);
background = {
paths = (
{
closed = 1;
nodes = (
"1022 -18 OFFCURVE",
"1372 336 OFFCURVE",
"1494 700 CURVE SMOOTH",
"1602 1024 OFFCURVE",
"1496 1414 OFFCURVE",
"1100 1416 CURVE SMOOTH",
"696 1418 OFFCURVE",
"346 1064 OFFCURVE",
"224 700 CURVE SMOOTH",
"116 376 OFFCURVE",
"222 -14 OFFCURVE",
"618 -16 CURVE SMOOTH"
);
},
{
closed = 1;
nodes = (
"234 8 OFFCURVE",
"140 388 OFFCURVE",
"246 700 CURVE SMOOTH",
"366 1052 OFFCURVE",
"704 1396 OFFCURVE",
"1098 1394 CURVE SMOOTH",
"1484 1392 OFFCURVE",
"1578 1012 OFFCURVE",
"1472 700 CURVE SMOOTH",
"1352 348 OFFCURVE",
"1014 4 OFFCURVE",
"620 6 CURVE SMOOTH"
);
}
);
};
layerId = "CD8D3C65-81B5-4831-B5B6-20AA0404C7C2";
paths = (
{
closed = 1;
nodes = (
"1017 -20 OFFCURVE",
"1410 394 OFFCURVE",
"1410 847 CURVE SMOOTH",
"1410 1181 OFFCURVE",
"1196 1413 OFFCURVE",
"901 1416 CURVE SMOOTH",
"500 1420 OFFCURVE",
"112 1002 OFFCURVE",
"112 555 CURVE SMOOTH",
"112 230 OFFCURVE",
"317 -13 OFFCURVE",
"621 -16 CURVE SMOOTH"
);
},
{
closed = 1;
nodes = (
"331 9 OFFCURVE",
"133 236 OFFCURVE",
"133 552 CURVE SMOOTH",
"133 991 OFFCURVE",
"516 1398 OFFCURVE",
"902 1394 CURVE SMOOTH",
"1188 1391 OFFCURVE",
"1389 1165 OFFCURVE",
"1389 846 CURVE SMOOTH",
"1389 410 OFFCURVE",
"1012 2 OFFCURVE",
"620 6 CURVE SMOOTH"
);
}
);
width = 1456;
},
{
anchors = (
{
name = bottom;
position = "{743, 0}";
},
{
name = center;
position = "{645, 700}";
},
{
name = ogonek;
position = "{679, 40}";
},
{
name = top;
position = "{908, 1420}";
},
{
name = topleft;
position = "{-176, 1400}";
},
{
name = topright;
position = "{1275, 1423}";
}
);
layerId = "CF6F8622-38E2-4A45-B461-838A78B3383E";
paths = (
{
closed = 1;
nodes = (
"1049 -25 OFFCURVE",
"1458 374 OFFCURVE",
"1458 826 CURVE SMOOTH",
"1458 1162 OFFCURVE",
"1232 1416 OFFCURVE",
"907 1420 CURVE SMOOTH",
"500 1424 OFFCURVE",
"92 1027 OFFCURVE",
"92 574 CURVE SMOOTH",
"92 234 OFFCURVE",
"323 -16 OFFCURVE",
"643 -20 CURVE SMOOTH"
);
},
{
closed = 1;
nodes = (
"424 157 OFFCURVE",
"268 327 OFFCURVE",
"268 578 CURVE SMOOTH",
"268 938 OFFCURVE",
"587 1254 OFFCURVE",
"899 1248 CURVE SMOOTH",
"1126 1244 OFFCURVE",
"1284 1071 OFFCURVE",
"1284 820 CURVE SMOOTH",
"1284 462 OFFCURVE",
"963 145 OFFCURVE",
"653 152 CURVE SMOOTH"
);
}
);
userData = {
com.schriftgestaltung.Glyphs.lastChange = "2019-10-03 14:55:32 +0000";
};
width = 1486;
},
{
anchors = (
{
name = bottom;
position = "{790, 0}";
},
{
name = center;
position = "{790, 700}";
},
{
name = ogonek;
position = "{922, 20}";
},
{
name = top;
position = "{790, 1400}";
},
{
name = topleft;
position = "{20, 1400}";
},
{
name = topright;
position = "{1560, 1400}";
}
);
background = {
paths = (
{
closed = 1;
nodes = (
"1198 -20 OFFCURVE",
"1500 292 OFFCURVE",
"1500 700 CURVE SMOOTH",
"1500 1108 OFFCURVE",
"1198 1420 OFFCURVE",
"790 1420 CURVE SMOOTH",
"382 1420 OFFCURVE",
"80 1108 OFFCURVE",
"80 700 CURVE SMOOTH",
"80 292 OFFCURVE",
"382 -20 OFFCURVE",
"790 -20 CURVE SMOOTH"
);
},
{
closed = 1;
nodes = (
"484 150 OFFCURVE",
"260 384 OFFCURVE",
"260 700 CURVE SMOOTH",
"260 1016 OFFCURVE",
"484 1250 OFFCURVE",
"790 1250 CURVE SMOOTH",
"1096 1250 OFFCURVE",
"1320 1016 OFFCURVE",
"1320 700 CURVE SMOOTH",
"1320 384 OFFCURVE",
"1096 150 OFFCURVE",
"790 150 CURVE SMOOTH"
);
}
);
};
layerId = "C81D5947-3D41-4C9D-B8BA-C68D41D38A45";
paths = (
{
closed = 1;
nodes = (
"1195 -20 OFFCURVE",
"1500 289 OFFCURVE",
"1500 700 CURVE SMOOTH",
"1500 1111 OFFCURVE",
"1195 1420 OFFCURVE",
"790 1420 CURVE SMOOTH",
"385 1420 OFFCURVE",
"80 1111 OFFCURVE",
"80 700 CURVE SMOOTH",
"80 289 OFFCURVE",
"385 -20 OFFCURVE",
"790 -20 CURVE SMOOTH"
);
},
{
closed = 1;
nodes = (
"485 150 OFFCURVE",
"260 383 OFFCURVE",
"260 700 CURVE SMOOTH",
"260 1017 OFFCURVE",
"485 1250 OFFCURVE",
"790 1250 CURVE SMOOTH",
"1095 1250 OFFCURVE",
"1320 1017 OFFCURVE",
"1320 700 CURVE SMOOTH",
"1320 383 OFFCURVE",
"1095 150 OFFCURVE",
"790 150 CURVE SMOOTH"
);
}
);
width = 1580;
},
{
anchors = (
{
name = bottom;
position = "{840, 0}";
},
{
name = center;
position = "{840, 700}";
},
{
name = ogonek;
position = "{990, 10}";
},
{
name = top;
position = "{840, 1400}";
},
{
name = topleft;
position = "{20, 1400}";
},
{
name = topright;
position = "{1660, 1400}";
}
);
background = {
paths = (
{
closed = 1;
nodes = (
"1298 -60 OFFCURVE",
"1620 252 OFFCURVE",
"1620 700 CURVE SMOOTH",
"1620 1148 OFFCURVE",
"1288 1440 OFFCURVE",
"840 1440 CURVE SMOOTH",
"402 1440 OFFCURVE",
"60 1148 OFFCURVE",
"60 700 CURVE SMOOTH",
"60 252 OFFCURVE",
"382 -60 OFFCURVE",
"840 -60 CURVE SMOOTH"
);
},
{
closed = 1;
nodes = (
"644 356 OFFCURVE",
"526 494 OFFCURVE",
"526 700 CURVE SMOOTH",
"526 906 OFFCURVE",
"644 1044 OFFCURVE",
"840 1044 CURVE SMOOTH",
"1046 1044 OFFCURVE",
"1154 906 OFFCURVE",
"1154 700 CURVE SMOOTH",
"1154 494 OFFCURVE",
"1036 356 OFFCURVE",
"840 356 CURVE SMOOTH"
);
}
);
};
layerId = "2EABF22E-58CD-4ADD-8975-1500671E7F04";
paths = (
{
closed = 1;
nodes = (
"1296 -60 OFFCURVE",
"1620 256 OFFCURVE",
"1620 700 CURVE SMOOTH",
"1620 1136 OFFCURVE",
"1300 1440 OFFCURVE",
"840 1440 CURVE SMOOTH",
"378 1440 OFFCURVE",
"60 1138 OFFCURVE",
"60 700 CURVE SMOOTH",
"60 256 OFFCURVE",
"384 -60 OFFCURVE",
"840 -60 CURVE SMOOTH"
);
},
{
closed = 1;
nodes = (
"648 356 OFFCURVE",
"526 489 OFFCURVE",
"526 700 CURVE SMOOTH",
"526 913 OFFCURVE",
"646 1044 OFFCURVE",
"840 1044 CURVE SMOOTH",
"1033 1044 OFFCURVE",
"1154 912 OFFCURVE",
"1154 700 CURVE SMOOTH",
"1154 489 OFFCURVE",
"1033 356 OFFCURVE",
"840 356 CURVE SMOOTH"
);
}
);
width = 1680;
},
{
anchors = (
{
name = bottom;
position = "{790, 0}";
},
{
name = center;
position = "{692, 700}";
},
{
name = ogonek;
position = "{719, 10}";
},
{
name = top;
position = "{942, 1400}";
},
{
name = topleft;
position = "{-177, 1400}";
},
{
name = topright;
position = "{1363, 1400}";
}
);
background = {
paths = (
{
closed = 1;
nodes = (
"1109 -62 OFFCURVE",
"1527 264 OFFCURVE",
"1662 700 CURVE SMOOTH",
"1787 1102 OFFCURVE",
"1552 1440 OFFCURVE",
"1148 1440 CURVE SMOOTH",
"726 1440 OFFCURVE",
"312 1124 OFFCURVE",
"180 700 CURVE SMOOTH",
"52 289 OFFCURVE",
"283 -58 OFFCURVE",
"686 -60 CURVE SMOOTH"
);
},
{
closed = 1;
nodes = (
"622 363 OFFCURVE",
"557 511 OFFCURVE",
"630 700 CURVE SMOOTH",
"707 901 OFFCURVE",
"889 1045 OFFCURVE",
"1062 1042 CURVE SMOOTH",
"1222 1039 OFFCURVE",
"1287 891 OFFCURVE",
"1212 700 CURVE SMOOTH",
"1131 496 OFFCURVE",
"951 353 OFFCURVE",
"780 358 CURVE SMOOTH"
);
}
);
};
layerId = "9017EC39-7277-4FD3-B807-1ABD7559DC0D";
paths = (
{
closed = 1;
nodes = (
"1157 -62 OFFCURVE",
"1575 367 OFFCURVE",
"1575 818 CURVE SMOOTH",
"1575 1169 OFFCURVE",
"1322 1440 OFFCURVE",
"947 1440 CURVE SMOOTH",
"486 1440 OFFCURVE",
"71 1030 OFFCURVE",
"71 574 CURVE SMOOTH",
"71 212 OFFCURVE",
"333 -58 OFFCURVE",
"695 -60 CURVE SMOOTH"
);
},
{
closed = 1;
nodes = (
"605 358 OFFCURVE",
"519 455 OFFCURVE",
"519 603 CURVE SMOOTH",
"519 823 OFFCURVE",
"709 1042 OFFCURVE",
"911 1042 CURVE SMOOTH",
"1045 1042 OFFCURVE",
"1128 947 OFFCURVE",
"1128 800 CURVE SMOOTH",
"1128 578 OFFCURVE",
"940 358 OFFCURVE",
"739 358 CURVE SMOOTH"
);
}
);
width = 1580;
}
);
unicode = 004F;
},
{
color = 5;
glyphname = Oslash;
lastChange = "2019-11-13 15:48:31 +0000";
layers = (
{
anchors = (
{
name = bottom;
position = "{790, 0}";
},
{
name = center;
position = "{774, 700}";
},
{
name = ogonek;
position = "{876, 10}";
},
{
name = top;
position = "{790, 1400}";
},
{
name = topleft;
position = "{20, 1400}";
},
{
name = topright;
position = "{1528, 1400}";
}
);
layerId = master01;
paths = (
{
closed = 1;
nodes = (
"335 153 LINE",
"338 157 LINE",
"1241 1214 LINE",
"1246 1220 LINE",
"1446 1454 LINE",
"1424 1466 LINE",
"1227 1235 LINE",
"1224 1231 LINE",
"322 173 LINE",
"319 169 LINE",
"128 -54 LINE",
"148 -66 LINE"
);
},
{
closed = 1;
nodes = (
"1165 -16 OFFCURVE",
"1448 285 OFFCURVE",
"1448 700 CURVE SMOOTH",
"1448 1115 OFFCURVE",
"1165 1416 OFFCURVE",
"774 1416 CURVE SMOOTH",
"383 1416 OFFCURVE",
"100 1115 OFFCURVE",
"100 700 CURVE SMOOTH",
"100 285 OFFCURVE",
"383 -16 OFFCURVE",
"774 -16 CURVE SMOOTH"
);
},
{
closed = 1;
nodes = (
"394 6 OFFCURVE",
"122 296 OFFCURVE",
"122 700 CURVE SMOOTH",
"122 1104 OFFCURVE",
"394 1394 OFFCURVE",
"774 1394 CURVE SMOOTH",
"1154 1394 OFFCURVE",
"1426 1104 OFFCURVE",
"1426 700 CURVE SMOOTH",
"1426 296 OFFCURVE",
"1154 6 OFFCURVE",
"774 6 CURVE SMOOTH"
);
}
);
width = 1580;
},
{
anchors = (
{
name = bottom;
position = "{743, 0}";
},
{
name = center;
position = "{630, 700}";
},
{
name = ogonek;
position = "{1309, 10}";
},
{
name = top;
position = "{546, 1400}";
},
{
name = topleft;
position = "{-167, 1400}";
},
{
name = topright;
position = "{1239, 1400}";
}
);
layerId = "CD8D3C65-81B5-4831-B5B6-20AA0404C7C2";
paths = (
{
closed = 1;
nodes = (
"246 162 LINE",
"251 167 LINE",
"1294 1201 LINE",
"1299 1205 LINE",
"1546 1450 LINE",
"1526 1464 LINE",
"1284 1223 LINE",
"1280 1219 LINE",
"237 187 LINE",
"231 181 LINE",
"-3 -50 LINE",
"17 -64 LINE"
);
},
{
closed = 1;
nodes = (
"1019 -20 OFFCURVE",
"1410 397 OFFCURVE",
"1410 847 CURVE SMOOTH",
"1410 1176 OFFCURVE",
"1200 1413 OFFCURVE",
"901 1416 CURVE SMOOTH",
"499 1420 OFFCURVE",
"112 1001 OFFCURVE",
"112 553 CURVE SMOOTH",
"112 221 OFFCURVE",
"325 -13 OFFCURVE",
"620 -16 CURVE SMOOTH"
);
},
{
closed = 1;
nodes = (
"333 9 OFFCURVE",
"133 234 OFFCURVE",
"133 551 CURVE SMOOTH",
"133 989 OFFCURVE",
"514 1398 OFFCURVE",
"902 1394 CURVE SMOOTH",
"1187 1391 OFFCURVE",
"1389 1165 OFFCURVE",
"1389 845 CURVE SMOOTH",
"1389 406 OFFCURVE",
"1007 1 OFFCURVE",
"619 6 CURVE SMOOTH"
);
}
);
width = 1486;
},
{
anchors = (
{
name = bottom;
position = "{743, 0}";
},
{
name = center;
position = "{645, 700}";
},
{
name = ogonek;
position = "{678, 40}";
},
{
name = top;
position = "{546, 1400}";
},
{
name = topleft;
position = "{-177, 1400}";
},
{
name = topright;
position = "{1275, 1423}";
}
);
layerId = "CF6F8622-38E2-4A45-B461-838A78B3383E";
paths = (
{
closed = 1;
nodes = (
"355 191 LINE",
"389 225 LINE",
"1251 1080 LINE",
"1279 1108 LINE",
"1587 1414 LINE",
"1480 1498 LINE",
"1196 1216 LINE",
"1166 1186 LINE",
"293 319 LINE",
"265 291 LINE",
"-42 -14 LINE",
"64 -98 LINE"
);
},
{
closed = 1;
nodes = (
"1052 -24 OFFCURVE",
"1458 377 OFFCURVE",
"1458 827 CURVE SMOOTH",
"1458 1167 OFFCURVE",
"1226 1417 OFFCURVE",
"906 1420 CURVE SMOOTH",
"495 1424 OFFCURVE",
"92 1022 OFFCURVE",
"92 573 CURVE SMOOTH",
"92 230 OFFCURVE",
"327 -17 OFFCURVE",
"643 -20 CURVE SMOOTH"
);
},
{
closed = 1;
nodes = (
"420 156 OFFCURVE",
"267 334 OFFCURVE",
"267 578 CURVE SMOOTH",
"267 922 OFFCURVE",
"572 1256 OFFCURVE",
"899 1248 CURVE SMOOTH",
"1130 1242 OFFCURVE",
"1284 1068 OFFCURVE",
"1284 820 CURVE SMOOTH",
"1284 465 OFFCURVE",
"969 147 OFFCURVE",
"653 152 CURVE SMOOTH"
);
}
);
userData = {
com.schriftgestaltung.Glyphs.lastChange = "2019-10-03 14:51:18 +0000";
};
width = 1486;
},
{
anchors = (
{
name = bottom;
position = "{790, 0}";
},
{
name = center;
position = "{790, 700}";
},
{
name = ogonek;
position = "{922, 20}";
},
{
name = top;
position = "{790, 1400}";
},
{
name = topleft;
position = "{20, 1400}";
},
{
name = topright;
position = "{1560, 1400}";
}
);
layerId = "C81D5947-3D41-4C9D-B8BA-C68D41D38A45";
paths = (
{
closed = 1;
nodes = (
"429 173 LINE",
"459 208 LINE",
"1229 1111 LINE",
"1256 1142 LINE",
"1494 1420 LINE",
"1376 1500 LINE",
"1141 1224 LINE",
"1116 1194 LINE",
"353 301 LINE",
"325 268 LINE",
"80 -20 LINE",
"196 -100 LINE"
);
},
{
closed = 1;
nodes = (
"1195 -20 OFFCURVE",
"1500 289 OFFCURVE",
"1500 700 CURVE SMOOTH",
"1500 1111 OFFCURVE",
"1195 1420 OFFCURVE",
"790 1420 CURVE SMOOTH",
"385 1420 OFFCURVE",
"80 1111 OFFCURVE",
"80 700 CURVE SMOOTH",
"80 289 OFFCURVE",
"385 -20 OFFCURVE",
"790 -20 CURVE SMOOTH"
);
},
{
closed = 1;
nodes = (
"485 150 OFFCURVE",
"260 383 OFFCURVE",
"260 700 CURVE SMOOTH",
"260 1017 OFFCURVE",
"485 1250 OFFCURVE",
"790 1250 CURVE SMOOTH",
"1095 1250 OFFCURVE",
"1320 1017 OFFCURVE",
"1320 700 CURVE SMOOTH",
"1320 383 OFFCURVE",
"1095 150 OFFCURVE",
"790 150 CURVE SMOOTH"
);
}
);
width = 1580;
},
{
anchors = (
{
name = bottom;
position = "{790, 0}";
},
{
name = center;
position = "{840, 700}";
},
{
name = ogonek;
position = "{990, 10}";
},
{
name = top;
position = "{790, 1400}";
},
{
name = topleft;
position = "{20, 1400}";
},
{
name = topright;
position = "{1660, 1400}";
}
);
layerId = "2EABF22E-58CD-4ADD-8975-1500671E7F04";
paths = (
{
closed = 1;
nodes = (
"591 261 LINE",
"612 314 LINE",
"1167 954 LINE",
"1271 1057 LINE",
"1564 1400 LINE",
"1406 1520 LINE",
"1120 1185 LINE",
"1049 1087 LINE",
"474 422 LINE",
"427 372 LINE",
"110 0 LINE",
"266 -120 LINE"
);
},
{
closed = 1;
nodes = (
"1296 -60 OFFCURVE",
"1620 256 OFFCURVE",
"1620 700 CURVE SMOOTH",
"1620 1136 OFFCURVE",
"1300 1440 OFFCURVE",
"840 1440 CURVE SMOOTH",
"378 1440 OFFCURVE",
"60 1138 OFFCURVE",
"60 700 CURVE SMOOTH",
"60 256 OFFCURVE",
"384 -60 OFFCURVE",
"840 -60 CURVE SMOOTH"
);
},
{
closed = 1;
nodes = (
"648 356 OFFCURVE",
"526 489 OFFCURVE",
"526 700 CURVE SMOOTH",
"526 913 OFFCURVE",
"646 1044 OFFCURVE",
"840 1044 CURVE SMOOTH",
"1033 1044 OFFCURVE",
"1154 912 OFFCURVE",
"1154 700 CURVE SMOOTH",
"1154 489 OFFCURVE",
"1033 356 OFFCURVE",
"840 356 CURVE SMOOTH"
);
}
);
width = 1580;
},
{
anchors = (
{
name = bottom;
position = "{743, 0}";
},
{
name = center;
position = "{692, 700}";
},
{
name = ogonek;
position = "{719, 10}";
},
{
name = top;
position = "{546, 1400}";
},
{
name = topleft;
position = "{-177, 1400}";
},
{
name = topright;
position = "{1363, 1400}";
}
);
background = {
paths = (
{
closed = 1;
nodes = (
"1842 1380 LINE",
"1712 1518 LINE",
"-10 0 LINE",
"114 -120 LINE"
);
},
{
closed = 1;
nodes = (
"1128 -62 OFFCURVE",
"1534 288 OFFCURVE",
"1662 700 CURVE SMOOTH",
"1782 1086 OFFCURVE",
"1566 1438 OFFCURVE",
"1148 1440 CURVE SMOOTH",
"710 1442 OFFCURVE",
"308 1112 OFFCURVE",
"180 700 CURVE SMOOTH",
"60 316 OFFCURVE",
"260 -58 OFFCURVE",
"686 -60 CURVE SMOOTH"
);
},
{
closed = 1;
nodes = (
"584 362 OFFCURVE",
"572 552 OFFCURVE",
"630 700 CURVE SMOOTH",
"698 874 OFFCURVE",
"862 1048 OFFCURVE",
"1062 1042 CURVE SMOOTH",
"1258 1038 OFFCURVE",
"1270 848 OFFCURVE",
"1212 700 CURVE SMOOTH",
"1144 526 OFFCURVE",
"980 352 OFFCURVE",
"780 358 CURVE SMOOTH"
);
}
);
};
layerId = "9017EC39-7277-4FD3-B807-1ABD7559DC0D";
paths = (
{
closed = 1;
nodes = (
"521 267 LINE",
"614 374 LINE",
"1162 916 LINE",
"1276 1012 LINE",
"1648 1380 LINE",
"1499 1518 LINE",
"1144 1161 LINE",
"1056 1059 LINE",
"503 501 LINE",
"387 399 LINE",
"-10 0 LINE",
"131 -120 LINE"
);
},
{
closed = 1;
nodes = (
"1152 -62 OFFCURVE",
"1575 362 OFFCURVE",
"1575 817 CURVE SMOOTH",
"1575 1170 OFFCURVE",
"1321 1440 OFFCURVE",
"946 1440 CURVE SMOOTH",
"484 1440 OFFCURVE",
"71 1029 OFFCURVE",
"71 575 CURVE SMOOTH",
"71 212 OFFCURVE",
"333 -58 OFFCURVE",
"694 -60 CURVE SMOOTH"
);
},
{
closed = 1;
nodes = (
"603 358 OFFCURVE",
"519 457 OFFCURVE",
"519 603 CURVE SMOOTH",
"519 822 OFFCURVE",
"708 1042 OFFCURVE",
"911 1042 CURVE SMOOTH",
"1045 1042 OFFCURVE",
"1127 946 OFFCURVE",
"1127 799 CURVE SMOOTH",
"1127 577 OFFCURVE",
"939 358 OFFCURVE",
"739 358 CURVE SMOOTH"
);
}
);
width = 1486;
}
);
unicode = 00D8;
},
{
color = 4;
glyphname = OE;
lastChange = "2019-11-13 15:48:31 +0000";
layers = (
{
anchors = (
{
name = bottom;
position = "{951, 0}";
},
{
name = top;
position = "{1070, 1400}";
}
);
layerId = master01;
paths = (
{
closed = 1;
nodes = (
"1742 0 LINE",
"1742 20 LINE",
"1052 20 LINE",
"1052 770 LINE",
"1700 770 LINE",
"1700 790 LINE",
"1052 790 LINE",
"1052 1380 LINE",
"1740 1380 LINE",
"1740 1400 LINE",
"780 1400 LINE SMOOTH",
"368 1400 OFFCURVE",
"80 1113 OFFCURVE",
"80 700 CURVE SMOOTH",
"80 288 OFFCURVE",
"368 0 OFFCURVE",
"780 0 CURVE SMOOTH"
);
},
{
closed = 1;
nodes = (
"390 20 OFFCURVE",
"100 310 OFFCURVE",
"100 700 CURVE SMOOTH",
"100 1091 OFFCURVE",
"390 1380 OFFCURVE",
"780 1380 CURVE SMOOTH",
"1030 1380 LINE",
"1030 20 LINE",
"780 20 LINE SMOOTH"
);
}
);
width = 1902;
},
{
anchors = (
{
name = bottom;
position = "{894, 0}";
},
{
name = top;
position = "{1159, 1400}";
}
);
layerId = "CD8D3C65-81B5-4831-B5B6-20AA0404C7C2";
paths = (
{
closed = 1;
nodes = (
"1532 6 LINE",
"1535 20 LINE",
"882 20 LINE",
"1036 770 LINE",
"1646 770 LINE",
"1649 790 LINE",
"1040 790 LINE",
"1161 1380 LINE",
"1806 1380 LINE",
"1809 1394 LINE",
"903 1394 LINE SMOOTH",
"471 1394 OFFCURVE",
"92 996 OFFCURVE",
"92 567 CURVE SMOOTH",
"92 249 OFFCURVE",
"301 6 OFFCURVE",
"628 6 CURVE SMOOTH"
);
},
{
closed = 1;
nodes = (
"322 26 OFFCURVE",
"112 262 OFFCURVE",
"112 570 CURVE SMOOTH",
"112 980 OFFCURVE",
"484 1374 OFFCURVE",
"904 1374 CURVE SMOOTH",
"1141 1374 LINE",
"862 26 LINE",
"627 26 LINE SMOOTH"
);
}
);
width = 1788;
},
{
anchors = (
{
name = bottom;
position = "{926, 0}";
},
{
name = top;
position = "{1226, 1400}";
}
);
layerId = "CF6F8622-38E2-4A45-B461-838A78B3383E";
paths = (
{
closed = 1;
nodes = (
"1616 6 LINE",
"1646 158 LINE",
"1053 160 LINE",
"1160 682 LINE",
"1719 680 LINE",
"1750 840 LINE",
"1193 840 LINE",
"1275 1240 LINE",
"1864 1240 LINE",
"1899 1394 LINE",
"893 1394 LINE SMOOTH",
"464 1394 OFFCURVE",
"91 999 OFFCURVE",
"91 575 CURVE SMOOTH",
"91 252 OFFCURVE",
"307 6 OFFCURVE",
"638 6 CURVE SMOOTH"
);
},
{
closed = 1;
nodes = (
"408 166 OFFCURVE",
"256 338 OFFCURVE",
"256 580 CURVE SMOOTH",
"256 919 OFFCURVE",
"553 1234 OFFCURVE",
"888 1234 CURVE SMOOTH",
"1105 1234 LINE",
"893 166 LINE",
"646 166 LINE SMOOTH"
);
}
);
userData = {
com.schriftgestaltung.Glyphs.lastChange = "2019-10-03 14:51:18 +0000";
};
width = 1852;
},
{
anchors = (
{
name = bottom;
position = "{985, 0}";
},
{
name = top;
position = "{1114, 1400}";
}
);
layerId = "C81D5947-3D41-4C9D-B8BA-C68D41D38A45";
paths = (
{
closed = 1;
nodes = (
"1832 0 LINE",
"1832 160 LINE",
"1200 160 LINE",
"1200 680 LINE",
"1790 680 LINE",
"1790 840 LINE",
"1200 840 LINE",
"1200 1240 LINE",
"1830 1240 LINE",
"1830 1400 LINE",
"780 1400 LINE SMOOTH",
"368 1400 OFFCURVE",
"80 1113 OFFCURVE",
"80 700 CURVE SMOOTH",
"80 288 OFFCURVE",
"368 0 OFFCURVE",
"780 0 CURVE SMOOTH"
);
},
{
closed = 1;
nodes = (
"463 160 OFFCURVE",
"250 377 OFFCURVE",
"250 700 CURVE SMOOTH",
"250 1024 OFFCURVE",
"462 1240 OFFCURVE",
"780 1240 CURVE SMOOTH",
"1030 1240 LINE",
"1030 160 LINE",
"780 160 LINE SMOOTH"
);
}
);
width = 1970;
},
{
anchors = (
{
name = bottom;
position = "{985, 0}";
},
{
name = top;
position = "{1140, 1400}";
}
);
layerId = "2EABF22E-58CD-4ADD-8975-1500671E7F04";
paths = (
{
closed = 1;
nodes = (
"1942 0 LINE",
"1942 350 LINE",
"1350 350 LINE",
"1350 550 LINE",
"1900 550 LINE",
"1900 890 LINE",
"1350 890 LINE",
"1350 1050 LINE",
"1940 1050 LINE",
"1940 1400 LINE",
"780 1400 LINE SMOOTH",
"362 1400 OFFCURVE",
"60 1107 OFFCURVE",
"60 700 CURVE SMOOTH",
"60 293 OFFCURVE",
"362 0 OFFCURVE",
"780 0 CURVE SMOOTH"
);
},
{
closed = 1;
nodes = (
"625 380 OFFCURVE",
"520 474 OFFCURVE",
"520 700 CURVE SMOOTH",
"520 926 OFFCURVE",
"625 1020 OFFCURVE",
"880 1020 CURVE SMOOTH",
"930 1020 LINE",
"930 380 LINE",
"880 380 LINE SMOOTH"
);
}
);
width = 1970;
},
{
anchors = (
{
name = bottom;
position = "{926, 0}";
},
{
name = top;
position = "{1219, 1400}";
}
);
layerId = "9017EC39-7277-4FD3-B807-1ABD7559DC0D";
paths = (
{
closed = 1;
nodes = (
"1724 0 LINE",
"1785 348 LINE",
"1238 349 LINE",
"1278 550 LINE",
"1794 550 LINE",
"1867 890 LINE",
"1348 890 LINE",
"1380 1050 LINE",
"1932 1050 LINE",
"2007 1400 LINE",
"881 1400 LINE SMOOTH",
"452 1400 OFFCURVE",
"71 1013 OFFCURVE",
"71 591 CURVE SMOOTH",
"71 256 OFFCURVE",
"312 0 OFFCURVE",
"650 0 CURVE SMOOTH"
);
},
{
closed = 1;
nodes = (
"601 381 OFFCURVE",
"512 460 OFFCURVE",
"512 609 CURVE SMOOTH",
"512 832 OFFCURVE",
"711 1020 OFFCURVE",
"948 1020 CURVE SMOOTH",
"964 1020 LINE",
"834 381 LINE",
"772 381 LINE SMOOTH"
);
}
);
width = 1852;
}
);
unicode = 0152;
},
{
color = 4;
glyphname = P;
lastChange = "2019-11-13 15:48:31 +0000";
layers = (
{
anchors = (
{
name = bottom;
position = "{480, 0}";
},
{
name = top;
position = "{480, 1400}";
}
);
layerId = master01;
paths = (
{
closed = 1;
nodes = (
"202 0 LINE",
"202 588 LINE",
"430 588 LINE SMOOTH",
"680 588 OFFCURVE",
"860 736 OFFCURVE",
"860 994 CURVE SMOOTH",
"860 1252 OFFCURVE",
"680 1400 OFFCURVE",
"430 1400 CURVE SMOOTH",
"180 1400 LINE",
"180 0 LINE"
);
},
{
closed = 1;
nodes = (
"202 1380 LINE",
"430 1380 LINE SMOOTH",
"670 1380 OFFCURVE",
"838 1240 OFFCURVE",
"838 994 CURVE SMOOTH",
"838 748 OFFCURVE",
"670 608 OFFCURVE",
"430 608 CURVE SMOOTH",
"202 608 LINE"
);
}
);
width = 960;
},
{
anchors = (
{
name = bottom;
position = "{451, 0}";
},
{
name = top;
position = "{575, 1400}";
}
);
layerId = "CD8D3C65-81B5-4831-B5B6-20AA0404C7C2";
paths = (
{
closed = 1;
nodes = (
"80 0 LINE",
"200 588 LINE",
"415 588 LINE SMOOTH",
"678 588 OFFCURVE",
"911 814 OFFCURVE",
"911 1070 CURVE SMOOTH",
"911 1262 OFFCURVE",
"779 1400 OFFCURVE",
"575 1400 CURVE SMOOTH",
"343 1400 LINE",
"58 0 LINE"
);
},
{
closed = 1;
nodes = (
"362 1380 LINE",
"574 1380 LINE SMOOTH",
"764 1380 OFFCURVE",
"889 1255 OFFCURVE",
"889 1071 CURVE SMOOTH",
"889 823 OFFCURVE",
"664 608 OFFCURVE",
"417 608 CURVE SMOOTH",
"205 608 LINE"
);
}
);
width = 902;
},
{
anchors = (
{
name = bottom;
position = "{515, 0}";
},
{
name = top;
position = "{318, 1400}";
}
);
layerId = "CF6F8622-38E2-4A45-B461-838A78B3383E";
paths = (
{
closed = 1;
nodes = (
"202 0 LINE",
"317 560 LINE",
"523 560 LINE SMOOTH",
"808 560 OFFCURVE",
"1055 788 OFFCURVE",
"1055 1044 CURVE SMOOTH",
"1055 1250 OFFCURVE",
"894 1401 OFFCURVE",
"669 1400 CURVE SMOOTH",
"318 1398 LINE",
"44 0 LINE"
);
},
{
closed = 1;
nodes = (
"456 1239 LINE",
"660 1237 LINE SMOOTH",
"803 1236 OFFCURVE",
"889 1156 OFFCURVE",
"889 1036 CURVE SMOOTH",
"889 870 OFFCURVE",
"726 725 OFFCURVE",
"533 725 CURVE SMOOTH",
"350 725 LINE"
);
}
);
userData = {
com.schriftgestaltung.Glyphs.lastChange = "2019-10-03 14:51:18 +0000";
};
width = 1030;
},
{
anchors = (
{
name = bottom;
position = "{548, 0}";
},
{
name = top;
position = "{548, 1400}";
}
);
layerId = "C81D5947-3D41-4C9D-B8BA-C68D41D38A45";
paths = (
{
closed = 1;
nodes = (
"330 0 LINE",
"330 560 LINE",
"540 560 LINE SMOOTH",
"810 560 OFFCURVE",
"1016 722 OFFCURVE",
"1016 980 CURVE SMOOTH",
"1016 1238 OFFCURVE",
"810 1400 OFFCURVE",
"540 1400 CURVE SMOOTH",
"160 1400 LINE",
"160 0 LINE"
);
},
{
closed = 1;
nodes = (
"330 1240 LINE",
"540 1240 LINE SMOOTH",
"720 1240 OFFCURVE",
"846 1152 OFFCURVE",
"846 980 CURVE SMOOTH",
"846 808 OFFCURVE",
"720 720 OFFCURVE",
"540 720 CURVE SMOOTH",
"330 720 LINE"
);
}
);
width = 1096;
},
{
anchors = (
{
name = bottom;
position = "{668, 0}";
},
{
name = top;
position = "{668, 1400}";
}
);
layerId = "2EABF22E-58CD-4ADD-8975-1500671E7F04";
paths = (
{
closed = 1;
nodes = (
"580 0 LINE",
"580 440 LINE",
"690 440 LINE SMOOTH",
"1100 440 OFFCURVE",
"1276 622 OFFCURVE",
"1276 920 CURVE SMOOTH",
"1276 1218 OFFCURVE",
"1100 1400 OFFCURVE",
"690 1400 CURVE SMOOTH",
"140 1400 LINE",
"140 0 LINE"
);
},
{
closed = 1;
nodes = (
"580 1050 LINE",
"690 1050 LINE SMOOTH",
"800 1050 OFFCURVE",
"856 1002 OFFCURVE",
"856 920 CURVE SMOOTH",
"856 838 OFFCURVE",
"800 790 OFFCURVE",
"690 790 CURVE SMOOTH",
"580 790 LINE"
);
}
);
width = 1336;
},
{
anchors = (
{
name = bottom;
position = "{628, 0}";
},
{
name = top;
position = "{732, 1400}";
}
);
layerId = "9017EC39-7277-4FD3-B807-1ABD7559DC0D";
paths = (
{
closed = 1;
nodes = (
"442 0 LINE",
"531 445 LINE",
"654 445 LINE SMOOTH",
"1035 445 OFFCURVE",
"1283 651 OFFCURVE",
"1283 961 CURVE SMOOTH",
"1283 1222 OFFCURVE",
"1106 1396 OFFCURVE",
"797 1396 CURVE SMOOTH",
"299 1396 LINE",
"16 0 LINE"
);
},
{
closed = 1;
nodes = (
"656 1051 LINE",
"768 1051 LINE SMOOTH",
"838 1051 OFFCURVE",
"881 1010 OFFCURVE",
"881 951 CURVE SMOOTH",
"881 863 OFFCURVE",
"786 790 OFFCURVE",
"677 790 CURVE SMOOTH",
"603 790 LINE"
);
}
);
width = 1256;
}
);
unicode = 0050;
},
{
color = 4;
glyphname = Thorn;
lastChange = "2019-11-13 15:48:31 +0000";
layers = (
{
anchors = (
{
name = bottom;
position = "{520, 0}";
},
{
name = top;
position = "{520, 1400}";
}
);
layerId = master01;
paths = (
{
closed = 1;
nodes = (
"180 0 LINE",
"180 280 LINE",
"480 280 LINE SMOOTH",
"750 280 OFFCURVE",
"956 442 OFFCURVE",
"956 700 CURVE SMOOTH",
"956 958 OFFCURVE",
"750 1120 OFFCURVE",
"480 1120 CURVE SMOOTH",
"180 1120 LINE",
"180 1400 LINE",
"160 1400 LINE",
"160 0 LINE"
);
},
{
closed = 1;
nodes = (
"180 1100 LINE",
"480 1100 LINE SMOOTH",
"730 1100 OFFCURVE",
"934 952 OFFCURVE",
"934 700 CURVE SMOOTH",
"934 468 OFFCURVE",
"730 300 OFFCURVE",
"480 300 CURVE SMOOTH",
"180 300 LINE"
);
}
);
width = 1040;
},
{
anchors = (
{
name = bottom;
position = "{489, 0}";
},
{
name = top;
position = "{292, 1400}";
}
);
layerId = "CD8D3C65-81B5-4831-B5B6-20AA0404C7C2";
paths = (
{
closed = 1;
nodes = (
"58 0 LINE",
"116 286 LINE",
"401 286 LINE SMOOTH",
"693 286 OFFCURVE",
"942 521 OFFCURVE",
"942 773 CURVE SMOOTH",
"942 968 OFFCURVE",
"794 1116 OFFCURVE",
"567 1116 CURVE SMOOTH",
"289 1116 LINE",
"346 1398 LINE",
"326 1398 LINE",
"40 0 LINE"
);
},
{
closed = 1;
nodes = (
"284 1094 LINE",
"565 1094 LINE SMOOTH",
"778 1094 OFFCURVE",
"920 956 OFFCURVE",
"920 773 CURVE SMOOTH",
"920 536 OFFCURVE",
"680 307 OFFCURVE",
"402 307 CURVE SMOOTH",
"120 307 LINE"
);
}
);
width = 978;
},
{
anchors = (
{
name = bottom;
position = "{517, 0}";
},
{
name = top;
position = "{320, 1400}";
}
);
layerId = "CF6F8622-38E2-4A45-B461-838A78B3383E";
paths = (
{
closed = 1;
nodes = (
"202 0 LINE",
"260 280 LINE",
"467 280 LINE SMOOTH",
"749 280 OFFCURVE",
"998 507 OFFCURVE",
"998 764 CURVE SMOOTH",
"998 967 OFFCURVE",
"842 1120 OFFCURVE",
"613 1120 CURVE SMOOTH",
"432 1120 LINE",
"489 1400 LINE",
"318 1398 LINE",
"44 0 LINE"
);
},
{
closed = 1;
nodes = (
"399 959 LINE",
"604 958 LINE SMOOTH",
"746 957 OFFCURVE",
"835 878 OFFCURVE",
"835 756 CURVE SMOOTH",
"835 586 OFFCURVE",
"664 440 OFFCURVE",
"476 440 CURVE SMOOTH",
"292 440 LINE"
);
}
);
userData = {
com.schriftgestaltung.Glyphs.lastChange = "2019-10-03 14:51:18 +0000";
};
width = 1034;
},
{
anchors = (
{
name = bottom;
position = "{550, 0}";
},
{
name = top;
position = "{550, 1400}";
}
);
layerId = "C81D5947-3D41-4C9D-B8BA-C68D41D38A45";
paths = (
{
closed = 1;
nodes = (
"330 0 LINE",
"330 280 LINE",
"540 280 LINE SMOOTH",
"821 280 OFFCURVE",
"1016 452 OFFCURVE",
"1016 700 CURVE SMOOTH",
"1016 948 OFFCURVE",
"821 1120 OFFCURVE",
"540 1120 CURVE SMOOTH",
"330 1120 LINE",
"330 1400 LINE",
"160 1400 LINE",
"160 0 LINE"
);
},
{
closed = 1;
nodes = (
"330 960 LINE",
"540 960 LINE SMOOTH",
"731 960 OFFCURVE",
"846 862 OFFCURVE",
"846 700 CURVE SMOOTH",
"846 538 OFFCURVE",
"731 440 OFFCURVE",
"540 440 CURVE SMOOTH",
"330 440 LINE"
);
}
);
width = 1100;
},
{
anchors = (
{
name = bottom;
position = "{650, 0}";
},
{
name = top;
position = "{650, 1400}";
}
);
layerId = "2EABF22E-58CD-4ADD-8975-1500671E7F04";
paths = (
{
closed = 1;
nodes = (
"530 0 LINE",
"530 240 LINE",
"670 240 LINE SMOOTH",
"1080 240 OFFCURVE",
"1256 412 OFFCURVE",
"1256 710 CURVE SMOOTH",
"1256 1008 OFFCURVE",
"1080 1180 OFFCURVE",
"670 1180 CURVE SMOOTH",
"530 1180 LINE",
"530 1400 LINE",
"160 1400 LINE",
"160 0 LINE"
);
},
{
closed = 1;
nodes = (
"530 850 LINE",
"670 850 LINE SMOOTH",
"808 850 OFFCURVE",
"876 822 OFFCURVE",
"876 710 CURVE SMOOTH",
"876 598 OFFCURVE",
"808 570 OFFCURVE",
"670 570 CURVE SMOOTH",
"530 570 LINE"
);
}
);
width = 1300;
},
{
anchors = (
{
name = bottom;
position = "{611, 0}";
},
{
name = top;
position = "{414, 1400}";
}
);
layerId = "9017EC39-7277-4FD3-B807-1ABD7559DC0D";
paths = (
{
closed = 1;
nodes = (
"396 0 LINE",
"444 240 LINE",
"594 240 LINE SMOOTH",
"937 240 OFFCURVE",
"1229 469 OFFCURVE",
"1229 782 CURVE SMOOTH",
"1229 1030 OFFCURVE",
"1047 1180 OFFCURVE",
"734 1180 CURVE SMOOTH",
"635 1180 LINE",
"679 1400 LINE",
"317 1400 LINE",
"34 0 LINE"
);
},
{
closed = 1;
nodes = (
"568 849 LINE",
"713 848 LINE SMOOTH",
"764 848 OFFCURVE",
"861 843 OFFCURVE",
"861 748 CURVE SMOOTH",
"861 647 OFFCURVE",
"753 570 OFFCURVE",
"614 570 CURVE SMOOTH",
"511 570 LINE"
);
}
);
width = 1222;
}
);
unicode = 00DE;
},
{
color = 4;
glyphname = Q;
lastChange = "2019-11-13 15:48:31 +0000";
layers = (
{
anchors = (
{
name = bottom;
position = "{771, 0}";
},
{
name = top;
position = "{771, 1400}";
}
);
layerId = master01;
paths = (
{
closed = 1;
nodes = (
"1165 -16 OFFCURVE",
"1448 285 OFFCURVE",
"1448 700 CURVE SMOOTH",
"1448 1115 OFFCURVE",
"1165 1416 OFFCURVE",
"774 1416 CURVE SMOOTH",
"383 1416 OFFCURVE",
"100 1115 OFFCURVE",
"100 700 CURVE SMOOTH",
"100 285 OFFCURVE",
"383 -16 OFFCURVE",
"774 -16 CURVE SMOOTH"
);
},
{
closed = 1;
nodes = (
"1472 0 LINE",
"832 600 LINE",
"800 600 LINE",
"1440 0 LINE"
);
},
{
closed = 1;
nodes = (
"394 6 OFFCURVE",
"122 296 OFFCURVE",
"122 700 CURVE SMOOTH",
"122 1104 OFFCURVE",
"394 1394 OFFCURVE",
"774 1394 CURVE SMOOTH",
"1154 1394 OFFCURVE",
"1426 1104 OFFCURVE",
"1426 700 CURVE SMOOTH",
"1426 296 OFFCURVE",
"1154 6 OFFCURVE",
"774 6 CURVE SMOOTH"
);
}
);
width = 1542;
},
{
anchors = (
{
name = bottom;
position = "{725, 0}";
},
{
name = top;
position = "{528, 1400}";
}
);
layerId = "CD8D3C65-81B5-4831-B5B6-20AA0404C7C2";
paths = (
{
closed = 1;
nodes = (
"1014 -20 OFFCURVE",
"1409 381 OFFCURVE",
"1409 842 CURVE SMOOTH",
"1409 1181 OFFCURVE",
"1196 1412 OFFCURVE",
"901 1416 CURVE SMOOTH",
"507 1421 OFFCURVE",
"112 1020 OFFCURVE",
"112 558 CURVE SMOOTH",
"112 219 OFFCURVE",
"325 -13 OFFCURVE",
"620 -16 CURVE SMOOTH"
);
},
{
closed = 1;
nodes = (
"1278 0 LINE",
"791 600 LINE",
"763 600 LINE",
"1248 0 LINE"
);
},
{
closed = 1;
nodes = (
"330 9 OFFCURVE",
"133 232 OFFCURVE",
"133 555 CURVE SMOOTH",
"133 1007 OFFCURVE",
"519 1398 OFFCURVE",
"902 1394 CURVE SMOOTH",
"1186 1391 OFFCURVE",
"1388 1169 OFFCURVE",
"1388 844 CURVE SMOOTH",
"1388 396 OFFCURVE",
"1006 2 OFFCURVE",
"619 6 CURVE SMOOTH"
);
}
);
width = 1450;
},
{
anchors = (
{
name = bottom;
position = "{743, 0}";
},
{
name = top;
position = "{547, 1400}";
}
);
layerId = "CF6F8622-38E2-4A45-B461-838A78B3383E";
paths = (
{
closed = 1;
nodes = (
"1053 -24 OFFCURVE",
"1459 379 OFFCURVE",
"1459 828 CURVE SMOOTH",
"1459 1163 OFFCURVE",
"1232 1416 OFFCURVE",
"909 1420 CURVE SMOOTH",
"502 1425 OFFCURVE",
"93 1026 OFFCURVE",
"93 573 CURVE SMOOTH",
"93 228 OFFCURVE",
"329 -17 OFFCURVE",
"643 -20 CURVE SMOOTH"
);
},
{
closed = 1;
nodes = (
"1370 0 LINE",
"926 600 LINE",
"732 600 LINE",
"1176 0 LINE"
);
},
{
closed = 1;
nodes = (
"427 156 OFFCURVE",
"268 327 OFFCURVE",
"268 579 CURVE SMOOTH",
"268 936 OFFCURVE",
"585 1255 OFFCURVE",
"899 1248 CURVE SMOOTH",
"1128 1243 OFFCURVE",
"1284 1068 OFFCURVE",
"1284 820 CURVE SMOOTH",
"1284 468 OFFCURVE",
"971 146 OFFCURVE",
"653 152 CURVE SMOOTH"
);
}
);
userData = {
com.schriftgestaltung.Glyphs.lastChange = "2019-10-03 14:51:18 +0000";
};
width = 1486;
},
{
anchors = (
{
name = bottom;
position = "{790, 0}";
},
{
name = top;
position = "{790, 1400}";
}
);
layerId = "C81D5947-3D41-4C9D-B8BA-C68D41D38A45";
paths = (
{
closed = 1;
nodes = (
"1198 -20 OFFCURVE",
"1500 292 OFFCURVE",
"1500 700 CURVE SMOOTH",
"1500 1108 OFFCURVE",
"1198 1420 OFFCURVE",
"790 1420 CURVE SMOOTH",
"382 1420 OFFCURVE",
"80 1108 OFFCURVE",
"80 700 CURVE SMOOTH",
"80 292 OFFCURVE",
"382 -20 OFFCURVE",
"790 -20 CURVE SMOOTH"
);
},
{
closed = 1;
nodes = (
"1578 0 LINE",
"978 600 LINE",
"758 600 LINE",
"1358 0 LINE"
);
},
{
closed = 1;
nodes = (
"484 150 OFFCURVE",
"260 384 OFFCURVE",
"260 700 CURVE SMOOTH",
"260 1016 OFFCURVE",
"484 1250 OFFCURVE",
"790 1250 CURVE SMOOTH",
"1096 1250 OFFCURVE",
"1320 1016 OFFCURVE",
"1320 700 CURVE SMOOTH",
"1320 384 OFFCURVE",
"1096 150 OFFCURVE",
"790 150 CURVE SMOOTH"
);
}
);
width = 1580;
},
{
anchors = (
{
name = bottom;
position = "{908, 0}";
},
{
name = top;
position = "{908, 1400}";
}
);
layerId = "2EABF22E-58CD-4ADD-8975-1500671E7F04";
paths = (
{
closed = 1;
nodes = (
"1303 -60 OFFCURVE",
"1620 252 OFFCURVE",
"1620 700 CURVE SMOOTH",
"1620 1139 OFFCURVE",
"1307 1440 OFFCURVE",
"850 1440 CURVE SMOOTH",
"386 1440 OFFCURVE",
"60 1135 OFFCURVE",
"60 700 CURVE SMOOTH",
"60 259 OFFCURVE",
"392 -60 OFFCURVE",
"850 -60 CURVE SMOOTH"
);
},
{
closed = 1;
nodes = (
"1836 -40 LINE",
"1116 600 LINE",
"686 600 LINE",
"1386 -40 LINE"
);
},
{
closed = 1;
nodes = (
"671 316 OFFCURVE",
"526 469 OFFCURVE",
"526 700 CURVE SMOOTH",
"526 909 OFFCURVE",
"654 1044 OFFCURVE",
"850 1044 CURVE SMOOTH",
"1062 1044 OFFCURVE",
"1214 875 OFFCURVE",
"1214 640 CURVE SMOOTH",
"1214 440 OFFCURVE",
"1090 316 OFFCURVE",
"890 316 CURVE SMOOTH"
);
}
);
width = 1816;
},
{
anchors = (
{
name = bottom;
position = "{854, 0}";
},
{
name = top;
position = "{657, 1400}";
}
);
layerId = "9017EC39-7277-4FD3-B807-1ABD7559DC0D";
paths = (
{
closed = 1;
nodes = (
"1165 -62 OFFCURVE",
"1575 365 OFFCURVE",
"1575 822 CURVE SMOOTH",
"1575 1183 OFFCURVE",
"1323 1438 OFFCURVE",
"956 1440 CURVE SMOOTH",
"482 1442 OFFCURVE",
"71 1030 OFFCURVE",
"71 581 CURVE SMOOTH",
"71 217 OFFCURVE",
"340 -58 OFFCURVE",
"705 -60 CURVE SMOOTH"
);
},
{
closed = 1;
nodes = (
"1598 -40 LINE",
"1048 600 LINE",
"672 600 LINE",
"1202 -40 LINE"
);
},
{
closed = 1;
nodes = (
"621 318 OFFCURVE",
"520 432 OFFCURVE",
"520 602 CURVE SMOOTH",
"520 836 OFFCURVE",
"713 1042 OFFCURVE",
"917 1042 CURVE SMOOTH",
"1071 1042 OFFCURVE",
"1172 924 OFFCURVE",
"1172 753 CURVE SMOOTH",
"1172 524 OFFCURVE",
"990 318 OFFCURVE",
"778 318 CURVE SMOOTH"
);
}
);
width = 1708;
}
);
unicode = 0051;
},
{
color = 4;
glyphname = R;
lastChange = "2019-11-13 15:48:31 +0000";
layers = (
{
anchors = (
{
name = bottom;
position = "{468, 0}";
},
{
name = top;
position = "{511, 1400}";
}
);
layerId = master01;
paths = (
{
closed = 1;
nodes = (
"202 0 LINE",
"202 628 LINE",
"402 628 LINE",
"838 0 LINE",
"866 0 LINE",
"426 628 LINE",
"710 633 OFFCURVE",
"882 779 OFFCURVE",
"882 1014 CURVE SMOOTH",
"882 1253 OFFCURVE",
"703 1400 OFFCURVE",
"410 1400 CURVE SMOOTH",
"180 1400 LINE",
"180 0 LINE"
);
},
{
closed = 1;
nodes = (
"202 1378 LINE",
"410 1378 LINE SMOOTH",
"694 1378 OFFCURVE",
"860 1243 OFFCURVE",
"860 1014 CURVE SMOOTH",
"860 784 OFFCURVE",
"692 648 OFFCURVE",
"410 648 CURVE SMOOTH",
"202 648 LINE"
);
}
);
width = 936;
},
{
anchors = (
{
name = bottom;
position = "{347, 0}";
},
{
name = top;
position = "{685, 1400}";
}
);
layerId = "CD8D3C65-81B5-4831-B5B6-20AA0404C7C2";
paths = (
{
closed = 1;
nodes = (
"80 0 LINE",
"208 628 LINE",
"396 628 LINE",
"682 0 LINE",
"706 0 LINE",
"418 628 LINE",
"706 643 OFFCURVE",
"933 848 OFFCURVE",
"933 1087 CURVE SMOOTH",
"933 1278 OFFCURVE",
"789 1400 OFFCURVE",
"552 1400 CURVE SMOOTH",
"343 1400 LINE",
"58 0 LINE"
);
},
{
closed = 1;
nodes = (
"360 1378 LINE",
"556 1378 LINE SMOOTH",
"777 1378 OFFCURVE",
"914 1263 OFFCURVE",
"914 1085 CURVE SMOOTH",
"914 857 OFFCURVE",
"687 658 OFFCURVE",
"405 648 CURVE",
"212 648 LINE"
);
}
);
width = 880;
},
{
anchors = (
{
name = bottom;
position = "{467, 0}";
},
{
name = top;
position = "{725, 1400}";
}
);
layerId = "CF6F8622-38E2-4A45-B461-838A78B3383E";
paths = (
{
closed = 1;
nodes = (
"202 0 LINE",
"317 560 LINE",
"475 560 LINE",
"736 0 LINE",
"922 0 LINE",
"647 573 LINE",
"872 623 OFFCURVE",
"1055 819 OFFCURVE",
"1055 1039 CURVE SMOOTH",
"1055 1249 OFFCURVE",
"889 1400 OFFCURVE",
"669 1400 CURVE SMOOTH",
"317 1400 LINE",
"44 0 LINE"
);
},
{
closed = 1;
nodes = (
"458 1250 LINE",
"662 1250 LINE SMOOTH",
"797 1250 OFFCURVE",
"889 1162 OFFCURVE",
"889 1034 CURVE SMOOTH",
"889 860 OFFCURVE",
"720 710 OFFCURVE",
"530 710 CURVE SMOOTH",
"347 710 LINE"
);
}
);
userData = {
com.schriftgestaltung.Glyphs.lastChange = "2019-10-03 14:51:18 +0000";
};
width = 1052;
},
{
anchors = (
{
name = bottom;
position = "{560, 0}";
},
{
name = top;
position = "{560, 1400}";
}
);
layerId = "C81D5947-3D41-4C9D-B8BA-C68D41D38A45";
paths = (
{
closed = 1;
nodes = (
"330 0 LINE",
"330 560 LINE",
"500 560 LINE",
"890 0 LINE",
"1100 0 LINE",
"682 576 LINE",
"889 625 OFFCURVE",
"1016 779 OFFCURVE",
"1016 980 CURVE SMOOTH",
"1016 1228 OFFCURVE",
"821 1400 OFFCURVE",
"540 1400 CURVE SMOOTH",
"160 1400 LINE",
"160 0 LINE"
);
},
{
closed = 1;
nodes = (
"330 1250 LINE",
"540 1250 LINE SMOOTH",
"727 1250 OFFCURVE",
"846 1145 OFFCURVE",
"846 980 CURVE SMOOTH",
"846 815 OFFCURVE",
"727 710 OFFCURVE",
"540 710 CURVE SMOOTH",
"330 710 LINE"
);
}
);
width = 1120;
},
{
anchors = (
{
name = bottom;
position = "{700, 0}";
},
{
name = top;
position = "{700, 1400}";
}
);
layerId = "2EABF22E-58CD-4ADD-8975-1500671E7F04";
paths = (
{
closed = 1;
nodes = (
"580 0 LINE",
"580 440 LINE",
"641 440 LINE",
"890 0 LINE",
"1400 0 LINE",
"1065 503 LINE",
"1238 583 OFFCURVE",
"1316 735 OFFCURVE",
"1316 920 CURVE SMOOTH",
"1316 1198 OFFCURVE",
"1140 1400 OFFCURVE",
"730 1400 CURVE SMOOTH",
"140 1400 LINE",
"140 0 LINE"
);
},
{
closed = 1;
nodes = (
"580 1030 LINE",
"690 1030 LINE SMOOTH",
"800 1030 OFFCURVE",
"856 982 OFFCURVE",
"856 900 CURVE SMOOTH",
"856 818 OFFCURVE",
"800 770 OFFCURVE",
"690 770 CURVE SMOOTH",
"580 770 LINE"
);
}
);
width = 1400;
},
{
anchors = (
{
name = bottom;
position = "{615, 0}";
},
{
name = top;
position = "{835, 1400}";
}
);
layerId = "9017EC39-7277-4FD3-B807-1ABD7559DC0D";
paths = (
{
closed = 1;
nodes = (
"442 0 LINE",
"531 440 LINE",
"588 440 LINE",
"734 0 LINE",
"1200 0 LINE",
"989 497 LINE",
"1198 581 OFFCURVE",
"1323 766 OFFCURVE",
"1323 973 CURVE SMOOTH",
"1323 1229 OFFCURVE",
"1133 1400 OFFCURVE",
"835 1400 CURVE SMOOTH",
"299 1400 LINE",
"16 0 LINE"
);
},
{
closed = 1;
nodes = (
"652 1027 LINE",
"766 1027 LINE SMOOTH",
"836 1027 OFFCURVE",
"878 989 OFFCURVE",
"878 929 CURVE SMOOTH",
"878 845 OFFCURVE",
"785 770 OFFCURVE",
"674 770 CURVE SMOOTH",
"599 770 LINE"
);
}
);
width = 1316;
}
);
unicode = 0052;
},
{
color = 4;
glyphname = S;
lastChange = "2019-11-13 15:48:31 +0000";
layers = (
{
anchors = (
{
name = bottom;
position = "{508, -13}";
},
{
name = top;
position = "{508, 1405}";
}
);
background = {
paths = (
{
closed = 1;
nodes = (
"788 -16 OFFCURVE",
"886 152 OFFCURVE",
"886 350 CURVE SMOOTH",
"886 566 OFFCURVE",
"712 676 OFFCURVE",
"546 736 CURVE SMOOTH",
"376 798 OFFCURVE",
"182 900 OFFCURVE",
"182 1100 CURVE SMOOTH",
"182 1272 OFFCURVE",
"326 1394 OFFCURVE",
"506 1394 CURVE SMOOTH",
"718 1394 OFFCURVE",
"820 1230 OFFCURVE",
"858 1096 CURVE",
"878 1100 LINE",
"842 1242 OFFCURVE",
"732 1416 OFFCURVE",
"506 1416 CURVE SMOOTH",
"318 1416 OFFCURVE",
"160 1292 OFFCURVE",
"160 1100 CURVE SMOOTH",
"160 884 OFFCURVE",
"374 776 OFFCURVE",
"534 718 CURVE SMOOTH",
"686 662 OFFCURVE",
"864 556 OFFCURVE",
"864 350 CURVE SMOOTH",
"864 154 OFFCURVE",
"770 6 OFFCURVE",
"510 6 CURVE SMOOTH",
"268 6 OFFCURVE",
"154 218 OFFCURVE",
"100 394 CURVE",
"80 386 LINE",
"138 192 OFFCURVE",
"260 -16 OFFCURVE",
"510 -16 CURVE SMOOTH"
);
}
);
};
layerId = master01;
paths = (
{
closed = 1;
nodes = (
"731 -16 OFFCURVE",
"886 135 OFFCURVE",
"886 350 CURVE SMOOTH",
"886 535 OFFCURVE",
"785 650 OFFCURVE",
"546 736 CURVE SMOOTH",
"303 824 OFFCURVE",
"182 945 OFFCURVE",
"182 1100 CURVE SMOOTH",
"182 1265 OFFCURVE",
"324 1394 OFFCURVE",
"506 1394 CURVE SMOOTH",
"674 1394 OFFCURVE",
"805 1283 OFFCURVE",
"858 1096 CURVE",
"878 1100 LINE",
"828 1297 OFFCURVE",
"688 1416 OFFCURVE",
"506 1416 CURVE SMOOTH",
"312 1416 OFFCURVE",
"160 1277 OFFCURVE",
"160 1100 CURVE SMOOTH",
"160 943 OFFCURVE",
"296 804 OFFCURVE",
"534 718 CURVE SMOOTH",
"771 631 OFFCURVE",
"864 527 OFFCURVE",
"864 350 CURVE SMOOTH",
"864 146 OFFCURVE",
"719 6 OFFCURVE",
"510 6 CURVE SMOOTH",
"312 6 OFFCURVE",
"181 130 OFFCURVE",
"100 394 CURVE",
"80 386 LINE",
"160 117 OFFCURVE",
"302 -16 OFFCURVE",
"510 -16 CURVE SMOOTH"
);
}
);
width = 976;
},
{
anchors = (
{
name = bottom;
position = "{300, -10}";
},
{
name = top;
position = "{650, 1414}";
}
);
background = {
anchors = (
{
name = bottom;
position = "{298, -10}";
},
{
name = top;
position = "{848, 1414}";
}
);
paths = (
{
closed = 1;
nodes = (
"569 -18 OFFCURVE",
"781 144 OFFCURVE",
"846 350 CURVE SMOOTH",
"899 523 OFFCURVE",
"842 637 OFFCURVE",
"654 736 CURVE SMOOTH",
"459 838 OFFCURVE",
"388 958 OFFCURVE",
"438 1100 CURVE SMOOTH",
"493 1260 OFFCURVE",
"681 1394 OFFCURVE",
"846 1392 CURVE SMOOTH",
"992 1390 OFFCURVE",
"1072 1285 OFFCURVE",
"1072 1096 CURVE",
"1092 1100 LINE",
"1092 1301 OFFCURVE",
"1006 1412 OFFCURVE",
"848 1414 CURVE SMOOTH",
"668 1416 OFFCURVE",
"473 1275 OFFCURVE",
"416 1100 CURVE SMOOTH",
"368 956 OFFCURVE",
"447 820 OFFCURVE",
"640 718 CURVE SMOOTH",
"819 624 OFFCURVE",
"875 511 OFFCURVE",
"824 350 CURVE SMOOTH",
"761 153 OFFCURVE",
"564 4 OFFCURVE",
"370 8 CURVE SMOOTH",
"198 11 OFFCURVE",
"117 136 OFFCURVE",
"120 394 CURVE",
"100 386 LINE",
"97 124 OFFCURVE",
"187 -11 OFFCURVE",
"368 -14 CURVE SMOOTH"
);
}
);
};
layerId = "CD8D3C65-81B5-4831-B5B6-20AA0404C7C2";
paths = (
{
closed = 1;
nodes = (
"602 -14 OFFCURVE",
"804 194 OFFCURVE",
"804 417 CURVE SMOOTH",
"804 594 OFFCURVE",
"678 669 OFFCURVE",
"552 735 CURVE SMOOTH",
"443 792 OFFCURVE",
"278 881 OFFCURVE",
"278 1047 CURVE SMOOTH",
"278 1221 OFFCURVE",
"460 1394 OFFCURVE",
"651 1392 CURVE SMOOTH",
"797 1390 OFFCURVE",
"892 1285 OFFCURVE",
"918 1096 CURVE",
"938 1100 LINE",
"909 1301 OFFCURVE",
"807 1412 OFFCURVE",
"649 1414 CURVE SMOOTH",
"447 1416 OFFCURVE",
"257 1235 OFFCURVE",
"257 1054 CURVE SMOOTH",
"257 862 OFFCURVE",
"471 754 OFFCURVE",
"539 718 CURVE SMOOTH",
"665 652 OFFCURVE",
"781 580 OFFCURVE",
"781 415 CURVE SMOOTH",
"781 203 OFFCURVE",
"591 8 OFFCURVE",
"377 8 CURVE SMOOTH",
"203 8 OFFCURVE",
"98 136 OFFCURVE",
"65 394 CURVE",
"46 386 LINE",
"80 123 OFFCURVE",
"194 -14 OFFCURVE",
"377 -14 CURVE SMOOTH"
);
}
);
width = 918;
},
{
anchors = (
{
name = bottom;
position = "{389, 20}";
},
{
name = top;
position = "{689, 1400}";
}
);
background = {
paths = (
{
closed = 1;
nodes = (
"678 -18 OFFCURVE",
"904 154 OFFCURVE",
"972 378 CURVE SMOOTH",
"1030 568 OFFCURVE",
"932 708 OFFCURVE",
"766 792 CURVE SMOOTH",
"660 846 OFFCURVE",
"512 910 OFFCURVE",
"562 1058 CURVE SMOOTH",
"600 1170 OFFCURVE",
"720 1258 OFFCURVE",
"838 1256 CURVE SMOOTH",
"972 1254 OFFCURVE",
"1024 1144 OFFCURVE",
"1050 1030 CURVE",
"1206 1116 LINE",
"1170 1286 OFFCURVE",
"1078 1418 OFFCURVE",
"888 1418 CURVE SMOOTH",
"670 1418 OFFCURVE",
"458 1270 OFFCURVE",
"392 1062 CURVE SMOOTH",
"332 870 OFFCURVE",
"442 754 OFFCURVE",
"604 676 CURVE SMOOTH",
"732 614 OFFCURVE",
"856 528 OFFCURVE",
"796 366 CURVE SMOOTH",
"748 238 OFFCURVE",
"620 140 OFFCURVE",
"482 142 CURVE SMOOTH",
"306 144 OFFCURVE",
"268 310 OFFCURVE",
"252 452 CURVE",
"90 370 LINE",
"116 168 OFFCURVE",
"214 -18 OFFCURVE",
"442 -18 CURVE SMOOTH"
);
}
);
};
layerId = "CF6F8622-38E2-4A45-B461-838A78B3383E";
paths = (
{
closed = 1;
nodes = (
"710 -18 OFFCURVE",
"925 184 OFFCURVE",
"925 439 CURVE SMOOTH",
"925 654 OFFCURVE",
"773 732 OFFCURVE",
"655 792 CURVE SMOOTH",
"526 857 OFFCURVE",
"410 917 OFFCURVE",
"410 1021 CURVE SMOOTH",
"410 1129 OFFCURVE",
"537 1256 OFFCURVE",
"659 1256 CURVE SMOOTH",
"759 1256 OFFCURVE",
"855 1170 OFFCURVE",
"905 1030 CURVE",
"1049 1116 LINE",
"978 1318 OFFCURVE",
"858 1418 OFFCURVE",
"689 1418 CURVE SMOOTH",
"460 1418 OFFCURVE",
"238 1233 OFFCURVE",
"238 1003 CURVE SMOOTH",
"238 811 OFFCURVE",
"397 730 OFFCURVE",
"509 676 CURVE SMOOTH",
"617 624 OFFCURVE",
"751 557 OFFCURVE",
"751 416 CURVE SMOOTH",
"751 274 OFFCURVE",
"616 142 OFFCURVE",
"466 142 CURVE SMOOTH",
"333 142 OFFCURVE",
"242 244 OFFCURVE",
"188 452 CURVE",
"38 370 LINE",
"109 109 OFFCURVE",
"241 -18 OFFCURVE",
"448 -18 CURVE SMOOTH"
);
}
);
userData = {
com.schriftgestaltung.Glyphs.lastChange = "2019-10-03 14:51:18 +0000";
};
width = 1030;
},
{
anchors = (
{
name = bottom;
position = "{548, 0}";
},
{
name = top;
position = "{548, 1400}";
}
);
background = {
paths = (
{
closed = 1;
nodes = (
"838 -20 OFFCURVE",
"1006 142 OFFCURVE",
"1006 380 CURVE SMOOTH",
"1006 634 OFFCURVE",
"798 738 OFFCURVE",
"652 792 CURVE SMOOTH",
"482 856 OFFCURVE",
"328 922 OFFCURVE",
"328 1058 CURVE SMOOTH",
"328 1180 OFFCURVE",
"398 1258 OFFCURVE",
"538 1258 CURVE SMOOTH",
"692 1258 OFFCURVE",
"790 1144 OFFCURVE",
"850 1028 CURVE",
"988 1120 LINE",
"914 1282 OFFCURVE",
"782 1420 OFFCURVE",
"556 1420 CURVE SMOOTH",
"308 1420 OFFCURVE",
"150 1272 OFFCURVE",
"150 1060 CURVE SMOOTH",
"150 802 OFFCURVE",
"362 726 OFFCURVE",
"502 676 CURVE SMOOTH",
"662 618 OFFCURVE",
"830 546 OFFCURVE",
"830 366 CURVE SMOOTH",
"830 226 OFFCURVE",
"750 140 OFFCURVE",
"590 140 CURVE SMOOTH",
"416 140 OFFCURVE",
"308 260 OFFCURVE",
"224 452 CURVE",
"80 366 LINE",
"168 136 OFFCURVE",
"350 -20 OFFCURVE",
"580 -20 CURVE SMOOTH"
);
}
);
};
layerId = "C81D5947-3D41-4C9D-B8BA-C68D41D38A45";
paths = (
{
closed = 1;
nodes = (
"827 -20 OFFCURVE",
"1006 149 OFFCURVE",
"1006 380 CURVE SMOOTH",
"1006 589 OFFCURVE",
"917 693 OFFCURVE",
"652 792 CURVE SMOOTH",
"408 883 OFFCURVE",
"328 949 OFFCURVE",
"328 1058 CURVE SMOOTH",
"328 1173 OFFCURVE",
"417 1258 OFFCURVE",
"538 1258 CURVE SMOOTH",
"663 1258 OFFCURVE",
"774 1176 OFFCURVE",
"850 1028 CURVE",
"988 1120 LINE",
"897 1320 OFFCURVE",
"753 1420 OFFCURVE",
"556 1420 CURVE SMOOTH",
"313 1420 OFFCURVE",
"150 1275 OFFCURVE",
"150 1060 CURVE SMOOTH",
"150 875 OFFCURVE",
"249 767 OFFCURVE",
"502 676 CURVE SMOOTH",
"739 591 OFFCURVE",
"830 505 OFFCURVE",
"830 366 CURVE SMOOTH",
"830 228 OFFCURVE",
"737 140 OFFCURVE",
"590 140 CURVE SMOOTH",
"432 140 OFFCURVE",
"318 237 OFFCURVE",
"224 452 CURVE",
"80 366 LINE",
"174 120 OFFCURVE",
"355 -20 OFFCURVE",
"580 -20 CURVE SMOOTH"
);
}
);
width = 1096;
},
{
anchors = (
{
name = bottom;
position = "{692, 0}";
},
{
name = top;
position = "{714, 1400}";
}
);
background = {
paths = (
{
closed = 1;
nodes = (
"1010 -60 OFFCURVE",
"1274 86 OFFCURVE",
"1274 400 CURVE SMOOTH",
"1274 634 OFFCURVE",
"1140 768 OFFCURVE",
"916 846 CURVE SMOOTH",
"752 904 OFFCURVE",
"596 936 OFFCURVE",
"596 1008 CURVE SMOOTH",
"596 1050 OFFCURVE",
"644 1078 OFFCURVE",
"716 1078 CURVE SMOOTH",
"796 1078 OFFCURVE",
"868 1044 OFFCURVE",
"928 948 CURVE",
"1254 1128 LINE",
"1178 1270 OFFCURVE",
"1020 1440 OFFCURVE",
"714 1440 CURVE SMOOTH",
"386 1440 OFFCURVE",
"148 1272 OFFCURVE",
"148 1020 CURVE SMOOTH",
"148 726 OFFCURVE",
"408 616 OFFCURVE",
"544 560 CURVE SMOOTH",
"704 494 OFFCURVE",
"808 478 OFFCURVE",
"808 398 CURVE SMOOTH",
"808 338 OFFCURVE",
"760 316 OFFCURVE",
"680 316 CURVE SMOOTH",
"546 316 OFFCURVE",
"460 380 OFFCURVE",
"356 532 CURVE",
"60 316 LINE",
"148 106 OFFCURVE",
"422 -60 OFFCURVE",
"692 -60 CURVE SMOOTH"
);
}
);
};
layerId = "2EABF22E-58CD-4ADD-8975-1500671E7F04";
paths = (
{
closed = 1;
nodes = (
"1051 -25 OFFCURVE",
"1274 147 OFFCURVE",
"1274 424 CURVE SMOOTH",
"1274 637 OFFCURVE",
"1147 791 OFFCURVE",
"916 860 CURVE SMOOTH",
"645 940 OFFCURVE",
"596 964 OFFCURVE",
"596 1018 CURVE SMOOTH",
"596 1059 OFFCURVE",
"644 1086 OFFCURVE",
"716 1086 CURVE SMOOTH",
"804 1086 OFFCURVE",
"873 1045 OFFCURVE",
"928 959 CURVE",
"1254 1135 LINE",
"1148 1329 OFFCURVE",
"953 1440 OFFCURVE",
"714 1440 CURVE SMOOTH",
"380 1440 OFFCURVE",
"148 1272 OFFCURVE",
"148 1030 CURVE SMOOTH",
"148 835 OFFCURVE",
"297 666 OFFCURVE",
"544 580 CURVE SMOOTH",
"773 502 OFFCURVE",
"808 481 OFFCURVE",
"808 422 CURVE SMOOTH",
"808 367 OFFCURVE",
"768 342 OFFCURVE",
"680 342 CURVE SMOOTH",
"551 342 OFFCURVE",
"464 399 OFFCURVE",
"356 553 CURVE",
"60 342 LINE",
"149 135 OFFCURVE",
"425 -25 OFFCURVE",
"692 -25 CURVE SMOOTH"
);
}
);
width = 1344;
},
{
anchors = (
{
name = bottom;
position = "{551, 0}";
},
{
name = top;
position = "{841, 1400}";
}
);
background = {
paths = (
{
closed = 1;
nodes = (
"840 -62 OFFCURVE",
"1144 106 OFFCURVE",
"1232 398 CURVE SMOOTH",
"1290 592 OFFCURVE",
"1210 766 OFFCURVE",
"1024 846 CURVE SMOOTH",
"972 868 OFFCURVE",
"754 912 OFFCURVE",
"798 1004 CURVE SMOOTH",
"822 1052 OFFCURVE",
"904 1076 OFFCURVE",
"952 1076 CURVE SMOOTH",
"1038 1076 OFFCURVE",
"1074 1018 OFFCURVE",
"1108 950 CURVE",
"1462 1122 LINE",
"1394 1322 OFFCURVE",
"1246 1438 OFFCURVE",
"1030 1440 CURVE SMOOTH",
"762 1442 OFFCURVE",
"452 1296 OFFCURVE",
"372 1022 CURVE SMOOTH",
"312 816 OFFCURVE",
"430 648 OFFCURVE",
"612 560 CURVE SMOOTH",
"670 532 OFFCURVE",
"826 496 OFFCURVE",
"786 402 CURVE SMOOTH",
"760 342 OFFCURVE",
"678 318 OFFCURVE",
"620 318 CURVE SMOOTH",
"488 316 OFFCURVE",
"432 424 OFFCURVE",
"390 532 CURVE",
"50 322 LINE",
"110 86 OFFCURVE",
"302 -58 OFFCURVE",
"546 -60 CURVE SMOOTH"
);
}
);
};
layerId = "9017EC39-7277-4FD3-B807-1ABD7559DC0D";
paths = (
{
closed = 1;
nodes = (
"897 -30 OFFCURVE",
"1176 219 OFFCURVE",
"1176 513 CURVE SMOOTH",
"1176 765 OFFCURVE",
"972 836 OFFCURVE",
"838 880 CURVE SMOOTH",
"737 913 OFFCURVE",
"651 943 OFFCURVE",
"651 1003 CURVE SMOOTH",
"651 1050 OFFCURVE",
"707 1086 OFFCURVE",
"784 1086 CURVE SMOOTH",
"861 1086 OFFCURVE",
"913 1052 OFFCURVE",
"973 961 CURVE",
"1303 1129 LINE",
"1201 1337 OFFCURVE",
"1047 1438 OFFCURVE",
"827 1440 CURVE SMOOTH",
"511 1444 OFFCURVE",
"221 1246 OFFCURVE",
"221 955 CURVE SMOOTH",
"221 713 OFFCURVE",
"422 630 OFFCURVE",
"514 592 CURVE SMOOTH",
"658 532 OFFCURVE",
"729 490 OFFCURVE",
"729 442 CURVE SMOOTH",
"729 391 OFFCURVE",
"649 343 OFFCURVE",
"562 342 CURVE SMOOTH",
"463 341 OFFCURVE",
"395 398 OFFCURVE",
"312 553 CURVE",
"1 347 LINE",
"94 114 OFFCURVE",
"297 -24 OFFCURVE",
"549 -26 CURVE SMOOTH"
);
}
);
width = 1264;
}
);
unicode = 0053;
},
{
color = 4;
glyphname = Germandbls;
lastChange = "2019-11-19 14:50:28 +0000";
layers = (
{
anchors = (
{
name = bottom;
position = "{736, 0}";
},
{
name = top;
position = "{736, 1400}";
}
);
background = {
anchors = (
{
name = bottom;
position = "{666, 0}";
},
{
name = top;
position = "{666, 1400}";
}
);
paths = (
{
closed = 1;
nodes = (
"1002 -20 OFFCURVE",
"1172 148 OFFCURVE",
"1172 370 CURVE SMOOTH",
"1172 579 OFFCURVE",
"1009 716 OFFCURVE",
"742 731 CURVE",
"740 725 LINE",
"987 738 OFFCURVE",
"1132 865 OFFCURVE",
"1132 1068 CURVE SMOOTH",
"1132 1272 OFFCURVE",
"953 1420 OFFCURVE",
"704 1420 CURVE SMOOTH",
"363 1420 OFFCURVE",
"160 1200 OFFCURVE",
"160 832 CURVE SMOOTH",
"160 0 LINE",
"180 0 LINE",
"180 832 LINE SMOOTH",
"180 1185 OFFCURVE",
"378 1400 OFFCURVE",
"704 1400 CURVE SMOOTH",
"939 1400 OFFCURVE",
"1112 1259 OFFCURVE",
"1112 1068 CURVE SMOOTH",
"1112 867 OFFCURVE",
"951 740 OFFCURVE",
"696 740 CURVE",
"696 716 LINE",
"975 716 OFFCURVE",
"1152 581 OFFCURVE",
"1152 370 CURVE SMOOTH",
"1152 159 OFFCURVE",
"991 0 OFFCURVE",
"776 0 CURVE SMOOTH",
"558 0 OFFCURVE",
"390 161 OFFCURVE",
"390 370 CURVE",
"370 370 LINE",
"370 151 OFFCURVE",
"548 -20 OFFCURVE",
"776 -20 CURVE SMOOTH"
);
}
);
};
layerId = master01;
paths = (
{
closed = 1;
nodes = (
"1096 -20 OFFCURVE",
"1269 123 OFFCURVE",
"1269 331 CURVE SMOOTH",
"1269 646 OFFCURVE",
"849 617 OFFCURVE",
"849 730 CURVE SMOOTH",
"849 823 OFFCURVE",
"1137 843 OFFCURVE",
"1137 1086 CURVE SMOOTH",
"1137 1266 OFFCURVE",
"979 1417 OFFCURVE",
"695 1417 CURVE SMOOTH",
"409 1417 OFFCURVE",
"161 1263 OFFCURVE",
"161 908 CURVE SMOOTH",
"161 0 LINE",
"183 0 LINE",
"183 895 LINE SMOOTH",
"183 1236 OFFCURVE",
"405 1395 OFFCURVE",
"695 1395 CURVE SMOOTH",
"978 1395 OFFCURVE",
"1114 1247 OFFCURVE",
"1113 1086 CURVE SMOOTH",
"1112 853 OFFCURVE",
"825 843 OFFCURVE",
"825 730 CURVE SMOOTH",
"825 593 OFFCURVE",
"1245 640 OFFCURVE",
"1245 331 CURVE SMOOTH",
"1245 145 OFFCURVE",
"1097 0 OFFCURVE",
"844 0 CURVE SMOOTH",
"724 0 OFFCURVE",
"588 33 OFFCURVE",
"471 125 CURVE",
"455 110 LINE",
"555 30 OFFCURVE",
"693 -20 OFFCURVE",
"844 -20 CURVE SMOOTH"
);
}
);
width = 1332;
},
{
anchors = (
{
name = bottom;
position = "{588, -5}";
},
{
name = top;
position = "{888, 1416}";
}
);
layerId = "CD8D3C65-81B5-4831-B5B6-20AA0404C7C2";
paths = (
{
closed = 1;
nodes = (
"962 -20 OFFCURVE",
"1177 150 OFFCURVE",
"1177 365 CURVE SMOOTH",
"1177 632 OFFCURVE",
"843 613 OFFCURVE",
"843 715 CURVE SMOOTH",
"843 823 OFFCURVE",
"1211 835 OFFCURVE",
"1211 1112 CURVE SMOOTH",
"1211 1289 OFFCURVE",
"1061 1409 OFFCURVE",
"839 1415 CURVE SMOOTH",
"565 1422 OFFCURVE",
"285 1256 OFFCURVE",
"211 907 CURVE SMOOTH",
"19 0 LINE",
"41 0 LINE",
"232 894 LINE SMOOTH",
"305 1235 OFFCURVE",
"560 1393 OFFCURVE",
"823 1393 CURVE SMOOTH",
"1059 1393 OFFCURVE",
"1188 1265 OFFCURVE",
"1188 1110 CURVE SMOOTH",
"1188 847 OFFCURVE",
"818 837 OFFCURVE",
"818 714 CURVE SMOOTH",
"818 597 OFFCURVE",
"1153 619 OFFCURVE",
"1153 367 CURVE SMOOTH",
"1153 165 OFFCURVE",
"939 0 OFFCURVE",
"675 0 CURVE SMOOTH",
"534 0 OFFCURVE",
"429 47 OFFCURVE",
"348 125 CURVE",
"329 110 LINE",
"422 30 OFFCURVE",
"523 -20 OFFCURVE",
"677 -20 CURVE SMOOTH"
);
}
);
width = 1252;
},
{
anchors = (
{
name = bottom;
position = "{480, 0}";
},
{
name = top;
position = "{797, 1400}";
}
);
background = {
paths = (
{
closed = 1;
nodes = (
"1010 -23 OFFCURVE",
"1279 136 OFFCURVE",
"1362 363 CURVE SMOOTH",
"1472 665 OFFCURVE",
"1095 621 OFFCURVE",
"1136 733 CURVE SMOOTH",
"1170 826 OFFCURVE",
"1430 853 OFFCURVE",
"1522 1104 CURVE SMOOTH",
"1593 1297 OFFCURVE",
"1371 1418 OFFCURVE",
"1207 1418 CURVE SMOOTH",
"872 1418 OFFCURVE",
"482 1224 OFFCURVE",
"319 778 CURVE SMOOTH",
"35 0 LINE",
"205 0 LINE",
"483 765 LINE SMOOTH",
"608 1108 OFFCURVE",
"868 1248 OFFCURVE",
"1118 1248 CURVE SMOOTH",
"1297 1248 OFFCURVE",
"1359 1150 OFFCURVE",
"1328 1067 CURVE SMOOTH",
"1266 902 OFFCURVE",
"1003 911 OFFCURVE",
"933 720 CURVE SMOOTH",
"850 492 OFFCURVE",
"1263 584 OFFCURVE",
"1178 352 CURVE SMOOTH",
"1124 204 OFFCURVE",
"945 147 OFFCURVE",
"783 147 CURVE SMOOTH",
"644 147 OFFCURVE",
"575 189 OFFCURVE",
"505 251 CURVE",
"375 107 LINE",
"444 29 OFFCURVE",
"538 -23 OFFCURVE",
"709 -23 CURVE SMOOTH"
);
}
);
};
layerId = "CF6F8622-38E2-4A45-B461-838A78B3383E";
paths = (
{
closed = 1;
nodes = (
"1075 -23 OFFCURVE",
"1298 141 OFFCURVE",
"1298 379 CURVE SMOOTH",
"1298 648 OFFCURVE",
"1012 628 OFFCURVE",
"1012 718 CURVE SMOOTH",
"1012 807 OFFCURVE",
"1298 862 OFFCURVE",
"1298 1101 CURVE SMOOTH",
"1298 1244 OFFCURVE",
"1192 1418 OFFCURVE",
"899 1418 CURVE SMOOTH",
"599 1418 OFFCURVE",
"313 1235 OFFCURVE",
"224 841 CURVE SMOOTH",
"35 0 LINE",
"205 0 LINE",
"381 788 LINE SMOOTH",
"450 1095 OFFCURVE",
"608 1248 OFFCURVE",
"868 1248 CURVE SMOOTH",
"1036 1248 OFFCURVE",
"1121 1184 OFFCURVE",
"1121 1098 CURVE SMOOTH",
"1121 932 OFFCURVE",
"803 883 OFFCURVE",
"803 704 CURVE SMOOTH",
"803 528 OFFCURVE",
"1109 574 OFFCURVE",
"1109 364 CURVE SMOOTH",
"1109 222 OFFCURVE",
"969 137 OFFCURVE",
"796 137 CURVE SMOOTH",
"669 137 OFFCURVE",
"557 183 OFFCURVE",
"470 251 CURVE",
"371 119 LINE",
"478 32 OFFCURVE",
"622 -23 OFFCURVE",
"788 -23 CURVE SMOOTH"
);
}
);
userData = {
com.schriftgestaltung.Glyphs.lastChange = "2019-10-03 14:51:18 +0000";
};
width = 1366;
},
{
anchors = (
{
name = bottom;
position = "{736, 0}";
},
{
name = top;
position = "{736, 1400}";
}
);
layerId = "C81D5947-3D41-4C9D-B8BA-C68D41D38A45";
paths = (
{
closed = 1;
nodes = (
"1144 -23 OFFCURVE",
"1355 136 OFFCURVE",
"1355 363 CURVE SMOOTH",
"1355 665 OFFCURVE",
"993 621 OFFCURVE",
"993 733 CURVE SMOOTH",
"993 826 OFFCURVE",
"1243 853 OFFCURVE",
"1243 1104 CURVE SMOOTH",
"1243 1297 OFFCURVE",
"1077 1418 OFFCURVE",
"813 1418 CURVE SMOOTH",
"478 1418 OFFCURVE",
"158 1224 OFFCURVE",
"159 778 CURVE SMOOTH",
"161 -3 LINE",
"331 -3 LINE",
"328 765 LINE SMOOTH",
"327 1108 OFFCURVE",
"536 1248 OFFCURVE",
"786 1248 CURVE SMOOTH",
"995 1248 OFFCURVE",
"1063 1150 OFFCURVE",
"1063 1067 CURVE SMOOTH",
"1063 901 OFFCURVE",
"795 911 OFFCURVE",
"795 720 CURVE SMOOTH",
"795 492 OFFCURVE",
"1175 584 OFFCURVE",
"1175 352 CURVE SMOOTH",
"1175 204 OFFCURVE",
"1017 147 OFFCURVE",
"855 147 CURVE SMOOTH",
"716 147 OFFCURVE",
"631 189 OFFCURVE",
"539 251 CURVE",
"461 107 LINE",
"559 29 OFFCURVE",
"672 -23 OFFCURVE",
"843 -23 CURVE SMOOTH"
);
}
);
width = 1432;
},
{
anchors = (
{
name = bottom;
position = "{645, 0}";
},
{
name = top;
position = "{952, 1439}";
}
);
layerId = "2EABF22E-58CD-4ADD-8975-1500671E7F04";
paths = (
{
closed = 1;
nodes = (
"1507 -23 OFFCURVE",
"1659 105 OFFCURVE",
"1659 338 CURVE SMOOTH",
"1659 601 OFFCURVE",
"1438 629 OFFCURVE",
"1438 711 CURVE SMOOTH",
"1438 770 OFFCURVE",
"1549 886 OFFCURVE",
"1549 1053 CURVE SMOOTH",
"1549 1258 OFFCURVE",
"1339 1439 OFFCURVE",
"890 1439 CURVE SMOOTH",
"301 1439 OFFCURVE",
"160 1119 OFFCURVE",
"160 704 CURVE SMOOTH",
"160 -3 LINE",
"617 -3 LINE",
"617 660 LINE SMOOTH",
"617 889 OFFCURVE",
"683 1050 OFFCURVE",
"894 1050 CURVE SMOOTH",
"984 1050 OFFCURVE",
"1066 1008 OFFCURVE",
"1066 943 CURVE SMOOTH",
"1066 863 OFFCURVE",
"957 828 OFFCURVE",
"957 712 CURVE SMOOTH",
"957 550 OFFCURVE",
"1196 538 OFFCURVE",
"1196 400 CURVE SMOOTH",
"1196 348 OFFCURVE",
"1152 324 OFFCURVE",
"1081 324 CURVE SMOOTH",
"1019 324 OFFCURVE",
"903 351 OFFCURVE",
"777 397 CURVE",
"700 45 LINE",
"854 3 OFFCURVE",
"1055 -23 OFFCURVE",
"1223 -23 CURVE SMOOTH"
);
}
);
width = 1749;
},
{
anchors = (
{
name = bottom;
position = "{933, 0}";
},
{
name = top;
position = "{720, 1409}";
}
);
background = {
anchors = (
{
name = bottom;
position = "{967, 0}";
},
{
name = top;
position = "{967, 1400}";
}
);
paths = (
{
closed = 1;
nodes = (
"1458 -23 OFFCURVE",
"1723 106 OFFCURVE",
"1812 338 CURVE SMOOTH",
"1914 603 OFFCURVE",
"1650 629 OFFCURVE",
"1682 712 CURVE SMOOTH",
"1705 772 OFFCURVE",
"1894 885 OFFCURVE",
"1959 1054 CURVE SMOOTH",
"2038 1259 OFFCURVE",
"1878 1438 OFFCURVE",
"1406 1438 CURVE SMOOTH",
"856 1438 OFFCURVE",
"507 1194 OFFCURVE",
"320 708 CURVE SMOOTH",
"47 -3 LINE",
"487 -3 LINE",
"744 665 LINE SMOOTH",
"843 922 OFFCURVE",
"1020 1058 OFFCURVE",
"1260 1058 CURVE SMOOTH",
"1398 1058 OFFCURVE",
"1478 1014 OFFCURVE",
"1452 947 CURVE SMOOTH",
"1420 864 OFFCURVE",
"1261 830 OFFCURVE",
"1216 712 CURVE SMOOTH",
"1154 550 OFFCURVE",
"1425 540 OFFCURVE",
"1369 398 CURVE SMOOTH",
"1347 342 OFFCURVE",
"1294 317 OFFCURVE",
"1205 317 CURVE SMOOTH",
"1105 317 OFFCURVE",
"968 348 OFFCURVE",
"826 401 CURVE",
"590 47 LINE",
"721 4 OFFCURVE",
"899 -23 OFFCURVE",
"1074 -23 CURVE SMOOTH"
);
}
);
};
layerId = "9017EC39-7277-4FD3-B807-1ABD7559DC0D";
paths = (
{
closed = 1;
nodes = (
"1416 -23 OFFCURVE",
"1690 152 OFFCURVE",
"1690 412 CURVE SMOOTH",
"1690 617 OFFCURVE",
"1527 636 OFFCURVE",
"1527 704 CURVE SMOOTH",
"1527 785 OFFCURVE",
"1693 909 OFFCURVE",
"1693 1125 CURVE SMOOTH",
"1693 1332 OFFCURVE",
"1478 1448 OFFCURVE",
"1148 1448 CURVE SMOOTH",
"631 1448 OFFCURVE",
"314 1252 OFFCURVE",
"214 831 CURVE SMOOTH",
"16 -3 LINE",
"466 -3 LINE",
"651 786 LINE SMOOTH",
"694 971 OFFCURVE",
"847 1060 OFFCURVE",
"1052 1060 CURVE SMOOTH",
"1146 1060 OFFCURVE",
"1212 1025 OFFCURVE",
"1212 970 CURVE SMOOTH",
"1212 879 OFFCURVE",
"1048 833 OFFCURVE",
"1048 687 CURVE SMOOTH",
"1048 552 OFFCURVE",
"1221 542 OFFCURVE",
"1221 424 CURVE SMOOTH",
"1221 359 OFFCURVE",
"1179 324 OFFCURVE",
"1100 324 CURVE SMOOTH",
"1019 324 OFFCURVE",
"883 354 OFFCURVE",
"734 408 CURVE",
"539 48 LINE",
"674 3 OFFCURVE",
"855 -23 OFFCURVE",
"1007 -23 CURVE SMOOTH"
);
}
);
width = 1818;
}
);
unicode = 1E9E;
},
{
color = 4;
glyphname = T;
lastChange = "2019-11-13 15:44:41 +0000";
layers = (
{
anchors = (
{
name = bottom;
position = "{425, 0}";
},
{
name = center;
position = "{431, 700}";
},
{
name = top;
position = "{431, 1400}";
}
);
layerId = master01;
paths = (
{
closed = 1;
nodes = (
"442 0 LINE",
"442 1378 LINE",
"822 1378 LINE",
"822 1400 LINE",
"40 1400 LINE",
"40 1378 LINE",
"420 1378 LINE",
"420 0 LINE"
);
}
);
width = 862;
},
{
anchors = (
{
name = bottom;
position = "{227, -3}";
},
{
name = center;
position = "{306, 700}";
},
{
name = top;
position = "{581, 1400}";
}
);
layerId = "CD8D3C65-81B5-4831-B5B6-20AA0404C7C2";
paths = (
{
closed = 1;
nodes = (
"306 0 LINE",
"584 1378 LINE",
"942 1378 LINE",
"947 1400 LINE",
"209 1400 LINE",
"206 1378 LINE",
"562 1378 LINE",
"284 0 LINE"
);
}
);
width = 810;
},
{
anchors = (
{
name = bottom;
position = "{207, -20}";
},
{
name = center;
position = "{339, 700}";
},
{
name = top;
position = "{734, 1400}";
}
);
layerId = "CF6F8622-38E2-4A45-B461-838A78B3383E";
paths = (
{
closed = 1;
nodes = (
"410 0 LINE",
"662 1240 LINE",
"1000 1240 LINE",
"1034 1400 LINE",
"190 1400 LINE",
"154 1240 LINE",
"496 1240 LINE",
"244 0 LINE"
);
}
);
userData = {
com.schriftgestaltung.Glyphs.lastChange = "2019-10-03 14:51:18 +0000";
};
width = 874;
},
{
anchors = (
{
name = bottom;
position = "{391, -10}";
},
{
name = center;
position = "{465, 700}";
},
{
name = top;
position = "{485, 1400}";
}
);
layerId = "C81D5947-3D41-4C9D-B8BA-C68D41D38A45";
paths = (
{
closed = 1;
nodes = (
"550 0 LINE",
"550 1240 LINE",
"910 1240 LINE",
"910 1400 LINE",
"20 1400 LINE",
"20 1240 LINE",
"380 1240 LINE",
"380 0 LINE"
);
}
);
width = 930;
},
{
anchors = (
{
name = bottom;
position = "{620, 0}";
},
{
name = center;
position = "{620, 700}";
},
{
name = top;
position = "{634, 1400}";
}
);
layerId = "2EABF22E-58CD-4ADD-8975-1500671E7F04";
paths = (
{
closed = 1;
nodes = (
"840 0 LINE",
"840 1010 LINE",
"1240 1010 LINE",
"1240 1400 LINE",
"0 1400 LINE",
"0 1010 LINE",
"400 1010 LINE",
"400 0 LINE"
);
}
);
width = 1240;
},
{
anchors = (
{
name = bottom;
position = "{423, 0}";
},
{
name = center;
position = "{485, 700}";
},
{
name = top;
position = "{769, 1400}";
}
);
layerId = "9017EC39-7277-4FD3-B807-1ABD7559DC0D";
paths = (
{
closed = 1;
nodes = (
"688 0 LINE",
"892 1010 LINE",
"1266 1010 LINE",
"1347 1400 LINE",
"167 1400 LINE",
"86 1010 LINE",
"464 1010 LINE",
"260 0 LINE"
);
}
);
width = 1166;
}
);
unicode = 0054;
},
{
color = 4;
glyphname = Tbar;
lastChange = "2019-11-13 15:44:41 +0000";
layers = (
{
anchors = (
{
name = bottom;
position = "{425, 0}";
},
{
name = center;
position = "{431, 700}";
},
{
name = top;
position = "{431, 1400}";
}
);
layerId = master01;
paths = (
{
closed = 1;
nodes = (
"442 0 LINE",
"442 1378 LINE",
"822 1378 LINE",
"822 1400 LINE",
"40 1400 LINE",
"40 1378 LINE",
"420 1378 LINE",
"420 0 LINE"
);
},
{
closed = 1;
nodes = (
"793 978 LINE",
"793 1000 LINE",
"69 1000 LINE",
"69 978 LINE"
);
}
);
width = 862;
},
{
anchors = (
{
name = bottom;
position = "{228, -3}";
},
{
name = center;
position = "{307, 700}";
},
{
name = top;
position = "{582, 1400}";
}
);
layerId = "CD8D3C65-81B5-4831-B5B6-20AA0404C7C2";
paths = (
{
closed = 1;
nodes = (
"306 0 LINE",
"585 1378 LINE",
"943 1378 LINE",
"948 1400 LINE",
"210 1400 LINE",
"207 1378 LINE",
"563 1378 LINE",
"284 0 LINE"
);
},
{
closed = 1;
nodes = (
"893 978 LINE",
"896 1000 LINE",
"172 1000 LINE",
"169 978 LINE"
);
}
);
width = 810;
},
{
anchors = (
{
name = bottom;
position = "{391, -10}";
},
{
name = center;
position = "{465, 700}";
},
{
name = top;
position = "{485, 1400}";
}
);
layerId = "C81D5947-3D41-4C9D-B8BA-C68D41D38A45";
paths = (
{
closed = 1;
nodes = (
"550 0 LINE",
"550 1240 LINE",
"910 1240 LINE",
"910 1400 LINE",
"20 1400 LINE",
"20 1240 LINE",
"380 1240 LINE",
"380 0 LINE"
);
},
{
closed = 1;
nodes = (
"859 840 LINE",
"859 1000 LINE",
"71 1000 LINE",
"71 840 LINE"
);
}
);
width = 930;
},
{
anchors = (
{
name = bottom;
position = "{207, -20}";
},
{
name = center;
position = "{339, 700}";
},
{
name = top;
position = "{733, 1400}";
}
);
layerId = "CF6F8622-38E2-4A45-B461-838A78B3383E";
paths = (
{
closed = 1;
nodes = (
"410 0 LINE",
"662 1240 LINE",
"1000 1240 LINE",
"1033 1400 LINE",
"189 1400 LINE",
"154 1240 LINE",
"496 1240 LINE",
"244 0 LINE"
);
},
{
closed = 1;
nodes = (
"928 840 LINE",
"952 1000 LINE",
"164 1000 LINE",
"140 840 LINE"
);
}
);
width = 874;
},
{
anchors = (
{
name = bottom;
position = "{620, 0}";
},
{
name = center;
position = "{620, 700}";
},
{
name = top;
position = "{634, 1400}";
}
);
layerId = "2EABF22E-58CD-4ADD-8975-1500671E7F04";
paths = (
{
closed = 1;
nodes = (
"840 0 LINE",
"840 1010 LINE",
"1240 1010 LINE",
"1240 1400 LINE",
"0 1400 LINE",
"0 1010 LINE",
"400 1010 LINE",
"400 0 LINE"
);
},
{
closed = 1;
nodes = (
"1156 410 LINE",
"1156 800 LINE",
"84 800 LINE",
"84 410 LINE"
);
}
);
width = 1240;
},
{
anchors = (
{
name = bottom;
position = "{423, 0}";
},
{
name = center;
position = "{484, 700}";
},
{
name = top;
position = "{769, 1400}";
}
);
layerId = "9017EC39-7277-4FD3-B807-1ABD7559DC0D";
paths = (
{
closed = 1;
nodes = (
"688 0 LINE",
"892 1010 LINE",
"1266 1010 LINE",
"1347 1400 LINE",
"167 1400 LINE",
"86 1010 LINE",
"464 1010 LINE",
"260 0 LINE"
);
},
{
closed = 1;
nodes = (
"1112 410 LINE",
"1169 800 LINE",
"97 800 LINE",
"40 410 LINE"
);
}
);
width = 1166;
}
);
unicode = 0166;
},
{
color = 4;
glyphname = U;
lastChange = "2019-11-13 15:48:31 +0000";
layers = (
{
anchors = (
{
name = bottom;
position = "{576, 0}";
},
{
name = ogonek;
position = "{576, -20}";
},
{
name = top;
position = "{576, 1400}";
},
{
name = topright;
position = "{1132, 1400}";
}
);
layerId = master01;
paths = (
{
closed = 1;
nodes = (
"834 -20 OFFCURVE",
"982 148 OFFCURVE",
"982 440 CURVE SMOOTH",
"982 1400 LINE",
"960 1400 LINE",
"960 440 LINE SMOOTH",
"960 167 OFFCURVE",
"815 2 OFFCURVE",
"576 2 CURVE SMOOTH",
"337 2 OFFCURVE",
"192 167 OFFCURVE",
"192 440 CURVE SMOOTH",
"192 1400 LINE",
"170 1400 LINE",
"170 440 LINE SMOOTH",
"170 148 OFFCURVE",
"318 -20 OFFCURVE",
"576 -20 CURVE SMOOTH"
);
}
);
width = 1152;
},
{
anchors = (
{
name = bottom;
position = "{541, 0}";
},
{
name = ogonek;
position = "{432, -18}";
},
{
name = top;
position = "{749, 1400}";
},
{
name = topright;
position = "{865, 1400}";
}
);
layerId = "CD8D3C65-81B5-4831-B5B6-20AA0404C7C2";
paths = (
{
closed = 1;
nodes = (
"657 -20 OFFCURVE",
"847 162 OFFCURVE",
"904 441 CURVE SMOOTH",
"1099 1398 LINE",
"1077 1398 LINE",
"879 441 LINE SMOOTH",
"825 178 OFFCURVE",
"641 2 OFFCURVE",
"431 4 CURVE SMOOTH",
"224 7 OFFCURVE",
"113 183 OFFCURVE",
"164 439 CURVE SMOOTH",
"355 1398 LINE",
"335 1398 LINE",
"144 439 LINE SMOOTH",
"90 167 OFFCURVE",
"211 -16 OFFCURVE",
"432 -18 CURVE SMOOTH"
);
}
);
width = 1082;
},
{
anchors = (
{
name = bottom;
position = "{492, -18}";
},
{
name = ogonek;
position = "{492, -18}";
},
{
name = top;
position = "{802, 1400}";
},
{
name = topright;
position = "{1215, 1400}";
}
);
layerId = "CF6F8622-38E2-4A45-B461-838A78B3383E";
paths = (
{
closed = 1;
nodes = (
"758 -18 OFFCURVE",
"966 166 OFFCURVE",
"1025 460 CURVE SMOOTH",
"1215 1400 LINE",
"1049 1400 LINE",
"857 460 LINE SMOOTH",
"817 265 OFFCURVE",
"678 142 OFFCURVE",
"498 142 CURVE SMOOTH",
"327 142 OFFCURVE",
"247 257 OFFCURVE",
"288 459 CURVE SMOOTH",
"479 1400 LINE",
"313 1400 LINE",
"123 460 LINE SMOOTH",
"67 182 OFFCURVE",
"220 -18 OFFCURVE",
"495 -18 CURVE SMOOTH"
);
}
);
userData = {
com.schriftgestaltung.Glyphs.lastChange = "2019-10-03 14:51:18 +0000";
};
width = 1178;
},
{
anchors = (
{
name = bottom;
position = "{626, 0}";
},
{
name = ogonek;
position = "{626, -20}";
},
{
name = top;
position = "{626, 1400}";
},
{
name = topright;
position = "{1232, 1400}";
}
);
layerId = "C81D5947-3D41-4C9D-B8BA-C68D41D38A45";
paths = (
{
closed = 1;
nodes = (
"909 -20 OFFCURVE",
"1102 175 OFFCURVE",
"1102 460 CURVE SMOOTH",
"1102 1400 LINE",
"932 1400 LINE",
"932 460 LINE SMOOTH",
"932 259 OFFCURVE",
"818 140 OFFCURVE",
"626 140 CURVE SMOOTH",
"434 140 OFFCURVE",
"320 259 OFFCURVE",
"320 460 CURVE SMOOTH",
"320 1400 LINE",
"150 1400 LINE",
"150 460 LINE SMOOTH",
"150 175 OFFCURVE",
"343 -20 OFFCURVE",
"626 -20 CURVE SMOOTH"
);
}
);
width = 1252;
},
{
anchors = (
{
name = bottom;
position = "{746, -16}";
},
{
name = ogonek;
position = "{746, -80}";
},
{
name = top;
position = "{746, 1400}";
},
{
name = topright;
position = "{1472, 1400}";
}
);
layerId = "2EABF22E-58CD-4ADD-8975-1500671E7F04";
paths = (
{
closed = 1;
nodes = (
"1138 -20 OFFCURVE",
"1362 176 OFFCURVE",
"1362 520 CURVE SMOOTH",
"1362 1400 LINE",
"922 1400 LINE",
"922 560 LINE SMOOTH",
"922 439 OFFCURVE",
"858 370 OFFCURVE",
"746 370 CURVE SMOOTH",
"634 370 OFFCURVE",
"570 439 OFFCURVE",
"570 560 CURVE SMOOTH",
"570 1400 LINE",
"130 1400 LINE",
"130 520 LINE SMOOTH",
"130 176 OFFCURVE",
"354 -20 OFFCURVE",
"746 -20 CURVE SMOOTH"
);
}
);
width = 1492;
},
{
anchors = (
{
name = bottom;
position = "{619, -19}";
},
{
name = ogonek;
position = "{619, -19}";
},
{
name = top;
position = "{868, 1400}";
},
{
name = topright;
position = "{1185, 1400}";
}
);
layerId = "9017EC39-7277-4FD3-B807-1ABD7559DC0D";
paths = (
{
closed = 1;
nodes = (
"954 -19 OFFCURVE",
"1230 192 OFFCURVE",
"1293 521 CURVE SMOOTH",
"1461 1400 LINE",
"1035 1400 LINE",
"867 563 LINE SMOOTH",
"845 452 OFFCURVE",
"748 369 OFFCURVE",
"652 373 CURVE SMOOTH",
"564 377 OFFCURVE",
"523 452 OFFCURVE",
"545 561 CURVE SMOOTH",
"717 1400 LINE",
"289 1400 LINE",
"121 521 LINE SMOOTH",
"63 216 OFFCURVE",
"267 -19 OFFCURVE",
"619 -19 CURVE SMOOTH"
);
}
);
width = 1402;
}
);
unicode = 0055;
},
{
color = 4;
glyphname = V;
lastChange = "2019-11-13 15:44:41 +0000";
layers = (
{
anchors = (
{
name = bottom;
position = "{600, 0}";
},
{
name = top;
position = "{600, 1400}";
}
);
layerId = master01;
paths = (
{
closed = 1;
nodes = (
"1170 1400 LINE",
"1144 1400 LINE",
"600 30 LINE",
"56 1400 LINE",
"30 1400 LINE",
"600 -30 LINE"
);
}
);
width = 1200;
},
{
anchors = (
{
name = bottom;
position = "{564, 0}";
},
{
name = top;
position = "{756, 1400}";
}
);
layerId = "CD8D3C65-81B5-4831-B5B6-20AA0404C7C2";
paths = (
{
closed = 1;
nodes = (
"1269 1398 LINE",
"1243 1398 LINE",
"498 30 LINE",
"219 1400 LINE",
"195 1400 LINE",
"488 -30 LINE"
);
}
);
width = 1128;
},
{
anchors = (
{
name = bottom;
position = "{552, 0}";
},
{
name = top;
position = "{746, 1400}";
}
);
layerId = "CF6F8622-38E2-4A45-B461-838A78B3383E";
paths = (
{
closed = 1;
nodes = (
"1407 1398 LINE",
"1215 1398 LINE",
"597 316 LINE",
"349 1400 LINE",
"177 1400 LINE",
"542 -76 LINE"
);
}
);
userData = {
com.schriftgestaltung.Glyphs.lastChange = "2019-10-03 14:51:18 +0000";
};
width = 1240;
},
{
anchors = (
{
name = bottom;
position = "{660, 0}";
},
{
name = top;
position = "{660, 1400}";
}
);
layerId = "C81D5947-3D41-4C9D-B8BA-C68D41D38A45";
paths = (
{
closed = 1;
nodes = (
"1310 1400 LINE",
"1120 1400 LINE",
"660 316 LINE",
"200 1400 LINE",
"10 1400 LINE",
"660 -70 LINE"
);
}
);
width = 1320;
},
{
anchors = (
{
name = bottom;
position = "{780, 0}";
},
{
name = top;
position = "{780, 1400}";
}
);
layerId = "2EABF22E-58CD-4ADD-8975-1500671E7F04";
paths = (
{
closed = 1;
nodes = (
"1570 1400 LINE",
"1050 1400 LINE",
"780 716 LINE",
"510 1400 LINE",
"-10 1400 LINE",
"780 -100 LINE"
);
}
);
width = 1560;
},
{
anchors = (
{
name = bottom;
position = "{733, 0}";
},
{
name = top;
position = "{885, 1400}";
}
);
layerId = "9017EC39-7277-4FD3-B807-1ABD7559DC0D";
paths = (
{
closed = 1;
nodes = (
"1659 1398 LINE",
"1141 1398 LINE",
"777 732 LINE",
"643 1400 LINE",
"161 1400 LINE",
"655 -110 LINE"
);
}
);
width = 1466;
}
);
unicode = 0056;
},
{
color = 4;
glyphname = W;
lastChange = "2019-11-13 15:44:41 +0000";
layers = (
{
anchors = (
{
name = bottom;
position = "{950, 0}";
},
{
name = top;
position = "{950, 1400}";
}
);
layerId = master01;
paths = (
{
closed = 1;
nodes = (
"950 1354 LINE",
"1390 -30 LINE",
"1860 1400 LINE",
"1838 1400 LINE",
"1390 52 LINE",
"950 1430 LINE",
"510 52 LINE",
"62 1400 LINE",
"40 1400 LINE",
"510 -30 LINE"
);
}
);
width = 1900;
},
{
anchors = (
{
name = bottom;
position = "{893, 0}";
},
{
name = top;
position = "{1067, 1432}";
}
);
layerId = "CD8D3C65-81B5-4831-B5B6-20AA0404C7C2";
paths = (
{
closed = 1;
nodes = (
"1054 1352 LINE",
"1232 -32 LINE",
"1919 1398 LINE",
"1897 1398 LINE",
"1244 54 LINE",
"1067 1432 LINE",
"416 54 LINE",
"225 1400 LINE",
"203 1400 LINE",
"404 -32 LINE"
);
}
);
width = 1786;
},
{
anchors = (
{
name = bottom;
position = "{931, 0}";
},
{
name = top;
position = "{1110, 1400}";
}
);
layerId = "CF6F8622-38E2-4A45-B461-838A78B3383E";
paths = (
{
closed = 1;
nodes = (
"1038 1010 LINE",
"1247 -78 LINE",
"2019 1398 LINE",
"1827 1398 LINE",
"1303 360 LINE",
"1110 1478 LINE",
"531 360 LINE",
"363 1400 LINE",
"185 1400 LINE",
"457 -78 LINE"
);
}
);
userData = {
com.schriftgestaltung.Glyphs.lastChange = "2019-10-03 14:51:18 +0000";
};
width = 1862;
},
{
anchors = (
{
name = bottom;
position = "{990, 0}";
},
{
name = top;
position = "{990, 1400}";
}
);
layerId = "C81D5947-3D41-4C9D-B8BA-C68D41D38A45";
paths = (
{
closed = 1;
nodes = (
"990 1018 LINE",
"1410 -70 LINE",
"1960 1400 LINE",
"1770 1400 LINE",
"1400 350 LINE",
"990 1470 LINE",
"580 350 LINE",
"210 1400 LINE",
"20 1400 LINE",
"570 -70 LINE"
);
}
);
width = 1980;
},
{
anchors = (
{
name = bottom;
position = "{1110, 0}";
},
{
name = top;
position = "{1110, 1400}";
}
);
layerId = "2EABF22E-58CD-4ADD-8975-1500671E7F04";
paths = (
{
closed = 1;
nodes = (
"1110 606 LINE",
"1580 -90 LINE",
"2220 1400 LINE",
"1690 1400 LINE",
"1494 701 LINE",
"1110 1470 LINE",
"726 701 LINE",
"530 1400 LINE",
"0 1400 LINE",
"640 -90 LINE"
);
}
);
width = 2220;
},
{
anchors = (
{
name = bottom;
position = "{1044, 0}";
},
{
name = top;
position = "{1211, 1400}";
}
);
layerId = "9017EC39-7277-4FD3-B807-1ABD7559DC0D";
paths = (
{
closed = 1;
nodes = (
"1090 598 LINE",
"1411 -96 LINE",
"2269 1398 LINE",
"1745 1400 LINE",
"1446 712 LINE",
"1215 1482 LINE",
"726 724 LINE",
"665 1400 LINE",
"169 1400 LINE",
"522 -102 LINE"
);
}
);
width = 2088;
}
);
unicode = 0057;
},
{
color = 4;
glyphname = X;
lastChange = "2019-11-13 15:44:41 +0000";
layers = (
{
anchors = (
{
name = bottom;
position = "{500, 0}";
},
{
name = top;
position = "{500, 1400}";
}
);
layerId = master01;
paths = (
{
closed = 1;
nodes = (
"68 0 LINE",
"504 712 LINE",
"932 0 LINE",
"960 0 LINE",
"518 734 LINE",
"930 1400 LINE",
"902 1400 LINE",
"506 754 LINE",
"118 1400 LINE",
"90 1400 LINE",
"492 734 LINE",
"40 0 LINE"
);
}
);
width = 1000;
},
{
anchors = (
{
name = bottom;
position = "{470, 0}";
},
{
name = top;
position = "{273, 1400}";
}
);
layerId = "CD8D3C65-81B5-4831-B5B6-20AA0404C7C2";
paths = (
{
closed = 1;
nodes = (
"-6 0 LINE",
"528 710 LINE",
"810 0 LINE",
"836 0 LINE",
"541 732 LINE",
"1044 1396 LINE",
"1016 1396 LINE",
"532 756 LINE",
"275 1400 LINE",
"249 1400 LINE",
"519 736 LINE",
"-34 0 LINE"
);
}
);
width = 940;
},
{
anchors = (
{
name = bottom;
position = "{522, 0}";
},
{
name = top;
position = "{325, 1400}";
}
);
layerId = "CF6F8622-38E2-4A45-B461-838A78B3383E";
paths = (
{
closed = 1;
nodes = (
"144 0 LINE",
"562 580 LINE",
"772 0 LINE",
"954 0 LINE",
"662 726 LINE",
"1174 1398 LINE",
"970 1398 LINE",
"601 888 LINE",
"417 1400 LINE",
"235 1400 LINE",
"504 742 LINE",
"-60 0 LINE"
);
}
);
userData = {
com.schriftgestaltung.Glyphs.lastChange = "2019-10-03 14:51:18 +0000";
};
width = 1044;
},
{
anchors = (
{
name = bottom;
position = "{555, 0}";
},
{
name = top;
position = "{555, 1400}";
}
);
layerId = "C81D5947-3D41-4C9D-B8BA-C68D41D38A45";
paths = (
{
closed = 1;
nodes = (
"220 0 LINE",
"560 586 LINE",
"890 0 LINE",
"1090 0 LINE",
"646 734 LINE",
"1060 1400 LINE",
"860 1400 LINE",
"562 882 LINE",
"270 1400 LINE",
"70 1400 LINE",
"476 734 LINE",
"20 0 LINE"
);
}
);
width = 1110;
},
{
anchors = (
{
name = bottom;
position = "{765, 0}";
},
{
name = top;
position = "{765, 1400}";
}
);
layerId = "2EABF22E-58CD-4ADD-8975-1500671E7F04";
paths = (
{
closed = 1;
nodes = (
"550 0 LINE",
"768 392 LINE",
"980 0 LINE",
"1530 0 LINE",
"1046 708 LINE",
"1500 1400 LINE",
"950 1400 LINE",
"772 1062 LINE",
"600 1400 LINE",
"50 1400 LINE",
"496 708 LINE",
"0 0 LINE"
);
}
);
width = 1530;
},
{
anchors = (
{
name = bottom;
position = "{719, 0}";
},
{
name = top;
position = "{522, 1400}";
}
);
layerId = "9017EC39-7277-4FD3-B807-1ABD7559DC0D";
paths = (
{
closed = 1;
nodes = (
"464 0 LINE",
"731 380 LINE",
"858 0 LINE",
"1364 0 LINE",
"1035 690 LINE",
"1596 1398 LINE",
"1046 1398 LINE",
"825 1074 LINE",
"727 1400 LINE",
"219 1400 LINE",
"516 726 LINE",
"-86 0 LINE"
);
}
);
width = 1438;
}
);
unicode = 0058;
},
{
color = 4;
glyphname = Y;
lastChange = "2019-11-13 15:44:41 +0000";
layers = (
{
anchors = (
{
name = bottom;
position = "{507, 0}";
},
{
name = top;
position = "{507, 1400}";
},
{
name = topleft;
position = "{20, 1400}";
}
);
layerId = master01;
paths = (
{
closed = 1;
nodes = (
"508 0 LINE",
"508 534 LINE",
"984 1400 LINE",
"958 1400 LINE",
"496 562 LINE",
"56 1400 LINE",
"30 1400 LINE",
"486 532 LINE",
"486 0 LINE"
);
}
);
width = 1014;
},
{
anchors = (
{
name = bottom;
position = "{477, 0}";
},
{
name = top;
position = "{657, 1400}";
},
{
name = topleft;
position = "{-177, 1400}";
}
);
layerId = "CD8D3C65-81B5-4831-B5B6-20AA0404C7C2";
paths = (
{
closed = 1;
nodes = (
"368 0 LINE",
"477 532 LINE",
"1102 1396 LINE",
"1076 1396 LINE",
"468 564 LINE",
"225 1400 LINE",
"201 1400 LINE",
"457 534 LINE",
"346 0 LINE"
);
}
);
width = 954;
},
{
anchors = (
{
name = bottom;
position = "{527, 0}";
},
{
name = top;
position = "{646, 1400}";
},
{
name = topleft;
position = "{-177, 1400}";
}
);
layerId = "CF6F8622-38E2-4A45-B461-838A78B3383E";
paths = (
{
closed = 1;
nodes = (
"500 0 LINE",
"622 594 LINE",
"1229 1398 LINE",
"1033 1398 LINE",
"563 758 LINE",
"359 1400 LINE",
"185 1400 LINE",
"461 614 LINE",
"334 0 LINE"
);
}
);
userData = {
com.schriftgestaltung.Glyphs.lastChange = "2019-10-03 14:51:18 +0000";
};
width = 1054;
},
{
anchors = (
{
name = bottom;
position = "{561, 0}";
},
{
name = top;
position = "{561, 1400}";
},
{
name = topleft;
position = "{20, 1400}";
}
);
layerId = "C81D5947-3D41-4C9D-B8BA-C68D41D38A45";
paths = (
{
closed = 1;
nodes = (
"646 0 LINE",
"646 604 LINE",
"1112 1400 LINE",
"922 1400 LINE",
"560 752 LINE",
"200 1400 LINE",
"10 1400 LINE",
"476 602 LINE",
"476 0 LINE"
);
}
);
width = 1122;
},
{
anchors = (
{
name = bottom;
position = "{720, 0}";
},
{
name = top;
position = "{720, 1400}";
},
{
name = topleft;
position = "{20, 1400}";
}
);
layerId = "2EABF22E-58CD-4ADD-8975-1500671E7F04";
paths = (
{
closed = 1;
nodes = (
"946 0 LINE",
"946 549 LINE",
"1450 1400 LINE",
"940 1400 LINE",
"720 948 LINE",
"500 1400 LINE",
"-10 1400 LINE",
"496 546 LINE",
"496 0 LINE"
);
}
);
width = 1440;
},
{
anchors = (
{
name = bottom;
position = "{677, 0}";
},
{
name = top;
position = "{830, 1400}";
},
{
name = topleft;
position = "{-177, 1400}";
}
);
layerId = "9017EC39-7277-4FD3-B807-1ABD7559DC0D";
paths = (
{
closed = 1;
nodes = (
"788 0 LINE",
"895 530 LINE",
"1555 1398 LINE",
"1043 1398 LINE",
"749 962 LINE",
"639 1400 LINE",
"169 1400 LINE",
"468 570 LINE",
"350 0 LINE"
);
}
);
width = 1354;
}
);
unicode = 0059;
},
{
color = 4;
glyphname = Z;
lastChange = "2019-11-13 15:44:41 +0000";
layers = (
{
anchors = (
{
name = bottom;
position = "{535, 0}";
},
{
name = center;
position = "{535, 700}";
},
{
name = top;
position = "{620, 1400}";
}
);
layerId = master01;
paths = (
{
closed = 1;
nodes = (
"1020 0 LINE",
"1020 22 LINE",
"84 22 LINE",
"1040 1400 LINE",
"80 1400 LINE",
"80 1378 LINE",
"996 1378 LINE",
"40 0 LINE"
);
}
);
width = 1070;
},
{
anchors = (
{
name = bottom;
position = "{503, 0}";
},
{
name = center;
position = "{405, 700}";
},
{
name = top;
position = "{833, 1400}";
}
);
layerId = "CD8D3C65-81B5-4831-B5B6-20AA0404C7C2";
paths = (
{
closed = 1;
nodes = (
"852 0 LINE",
"857 24 LINE",
"-23 24 LINE",
"1153 1400 LINE",
"247 1400 LINE",
"242 1378 LINE",
"1104 1378 LINE",
"-74 0 LINE"
);
}
);
width = 1006;
},
{
anchors = (
{
name = bottom;
position = "{440, 0}";
},
{
name = center;
position = "{464, 700}";
},
{
name = top;
position = "{805, 1400}";
}
);
layerId = "CF6F8622-38E2-4A45-B461-838A78B3383E";
paths = (
{
closed = 1;
nodes = (
"844 0 LINE",
"880 160 LINE",
"227 162 LINE",
"1170 1398 LINE",
"237 1400 LINE",
"202 1240 LINE",
"854 1238 LINE",
"-90 0 LINE"
);
}
);
userData = {
com.schriftgestaltung.Glyphs.lastChange = "2019-10-03 14:51:18 +0000";
};
width = 1024;
},
{
anchors = (
{
name = bottom;
position = "{545, 0}";
},
{
name = center;
position = "{545, 700}";
},
{
name = top;
position = "{618, 1400}";
}
);
layerId = "C81D5947-3D41-4C9D-B8BA-C68D41D38A45";
paths = (
{
closed = 1;
nodes = (
"1010 0 LINE",
"1010 160 LINE",
"314 160 LINE",
"1050 1400 LINE",
"70 1400 LINE",
"70 1240 LINE",
"766 1240 LINE",
"30 0 LINE"
);
}
);
width = 1090;
},
{
anchors = (
{
name = bottom;
position = "{665, 0}";
},
{
name = center;
position = "{665, 700}";
},
{
name = top;
position = "{753, 1400}";
}
);
layerId = "2EABF22E-58CD-4ADD-8975-1500671E7F04";
paths = (
{
closed = 1;
nodes = (
"1220 0 LINE",
"1220 370 LINE",
"694 370 LINE",
"1310 1400 LINE",
"140 1400 LINE",
"140 1010 LINE",
"612 1010 LINE",
"10 0 LINE"
);
}
);
width = 1330;
},
{
anchors = (
{
name = bottom;
position = "{584, 0}";
},
{
name = center;
position = "{527, 700}";
},
{
name = top;
position = "{878, 1400}";
}
);
layerId = "9017EC39-7277-4FD3-B807-1ABD7559DC0D";
paths = (
{
closed = 1;
nodes = (
"1044 0 LINE",
"1122 370 LINE",
"636 372 LINE",
"1424 1398 LINE",
"299 1400 LINE",
"218 1010 LINE",
"654 1008 LINE",
"-118 0 LINE"
);
}
);
width = 1250;
}
);
unicode = 005A;
},
{
color = 4;
glyphname = a;
lastChange = "2019-11-20 17:28:48 +0000";
layers = (
{
anchors = (
{
name = bottom;
position = "{435, 0}";
},
{
name = ogonek;
position = "{730, 0}";
},
{
name = top;
position = "{466, 940}";
}
);
layerId = master01;
paths = (
{
closed = 1;
nodes = (
"730 0 LINE",
"730 640 LINE SMOOTH",
"730 833 OFFCURVE",
"636 940 OFFCURVE",
"466 940 CURVE SMOOTH",
"354 940 OFFCURVE",
"245 893 OFFCURVE",
"154 806 CURVE",
"168 790 LINE",
"259 876 OFFCURVE",
"359 920 OFFCURVE",
"466 920 CURVE SMOOTH",
"626 920 OFFCURVE",
"710 823 OFFCURVE",
"710 640 CURVE SMOOTH",
"710 0 LINE"
);
},
{
closed = 1;
nodes = (
"578 -20 OFFCURVE",
"720 125 OFFCURVE",
"720 320 CURVE",
"710 320 LINE",
"710 139 OFFCURVE",
"569 0 OFFCURVE",
"386 0 CURVE SMOOTH",
"223 0 OFFCURVE",
"100 116 OFFCURVE",
"100 270 CURVE SMOOTH",
"100 432 OFFCURVE",
"239 542 OFFCURVE",
"442 542 CURVE SMOOTH",
"553 542 OFFCURVE",
"652 509 OFFCURVE",
"716 450 CURVE",
"716 470 LINE",
"646 530 OFFCURVE",
"551 562 OFFCURVE",
"442 562 CURVE SMOOTH",
"223 562 OFFCURVE",
"80 447 OFFCURVE",
"80 270 CURVE SMOOTH",
"80 103 OFFCURVE",
"209 -20 OFFCURVE",
"386 -20 CURVE SMOOTH"
);
}
);
width = 870;
},
{
anchors = (
{
name = bottom;
position = "{409, 0}";
},
{
name = ogonek;
position = "{576, 0}";
},
{
name = top;
position = "{566, 938}";
}
);
layerId = "CD8D3C65-81B5-4831-B5B6-20AA0404C7C2";
paths = (
{
closed = 1;
nodes = (
"576 0 LINE",
"704 641 LINE SMOOTH",
"740 820 OFFCURVE",
"662 933 OFFCURVE",
"516 938 CURVE SMOOTH",
"425 941 OFFCURVE",
"325 901 OFFCURVE",
"196 810 CURVE",
"207 792 LINE",
"336 883 OFFCURVE",
"431 921 OFFCURVE",
"517 918 CURVE SMOOTH",
"652 913 OFFCURVE",
"720 807 OFFCURVE",
"686 641 CURVE SMOOTH",
"556 0 LINE"
);
},
{
closed = 1;
nodes = (
"418 -18 OFFCURVE",
"566 110 OFFCURVE",
"638 316 CURVE",
"628 316 LINE",
"552 122 OFFCURVE",
"409 2 OFFCURVE",
"252 2 CURVE SMOOTH",
"99 2 OFFCURVE",
"8 123 OFFCURVE",
"40 270 CURVE SMOOTH",
"75 429 OFFCURVE",
"236 540 OFFCURVE",
"418 540 CURVE SMOOTH",
"509 540 OFFCURVE",
"584 512 OFFCURVE",
"657 452 CURVE",
"662 470 LINE",
"584 533 OFFCURVE",
"512 560 OFFCURVE",
"420 560 CURVE SMOOTH",
"221 560 OFFCURVE",
"55 437 OFFCURVE",
"20 273 CURVE SMOOTH",
"-14 117 OFFCURVE",
"85 -18 OFFCURVE",
"254 -18 CURVE SMOOTH"
);
}
);
width = 818;
},
{
anchors = (
{
name = bottom;
position = "{456, 0}";
},
{
name = ogonek;
position = "{692, 0}";
},
{
name = top;
position = "{587, 938}";
}
);
layerId = "CF6F8622-38E2-4A45-B461-838A78B3383E";
paths = (
{
closed = 1;
nodes = (
"692 0 LINE",
"826 660 LINE SMOOTH",
"857 812 OFFCURVE",
"731 935 OFFCURVE",
"536 938 CURVE SMOOTH",
"431 939 OFFCURVE",
"319 905 OFFCURVE",
"191 832 CURVE",
"247 704 LINE",
"373 773 OFFCURVE",
"451 799 OFFCURVE",
"529 796 CURVE SMOOTH",
"633 792 OFFCURVE",
"693 737 OFFCURVE",
"676 660 CURVE SMOOTH",
"534 0 LINE"
);
},
{
closed = 1;
nodes = (
"420 -20 OFFCURVE",
"562 85 OFFCURVE",
"626 256 CURVE",
"614 358 LINE",
"544 201 OFFCURVE",
"430 117 OFFCURVE",
"297 124 CURVE SMOOTH",
"196 130 OFFCURVE",
"141 186 OFFCURVE",
"154 267 CURVE SMOOTH",
"169 370 OFFCURVE",
"282 445 OFFCURVE",
"425 448 CURVE SMOOTH",
"514 450 OFFCURVE",
"590 423 OFFCURVE",
"680 358 CURVE",
"697 448 LINE",
"616 532 OFFCURVE",
"534 569 OFFCURVE",
"422 570 CURVE SMOOTH",
"206 572 OFFCURVE",
"26 442 OFFCURVE",
"-3 265 CURVE SMOOTH",
"-30 104 OFFCURVE",
"79 -15 OFFCURVE",
"253 -18 CURVE SMOOTH"
);
}
);
userData = {
com.schriftgestaltung.Glyphs.lastChange = "2019-10-03 14:51:18 +0000";
};
width = 912;
},
{
anchors = (
{
name = bottom;
position = "{485, 0}";
},
{
name = ogonek;
position = "{850, 0}";
},
{
name = top;
position = "{496, 940}";
}
);
layerId = "C81D5947-3D41-4C9D-B8BA-C68D41D38A45";
paths = (
{
closed = 1;
nodes = (
"850 0 LINE",
"850 660 LINE SMOOTH",
"850 830 OFFCURVE",
"711 940 OFFCURVE",
"496 940 CURVE SMOOTH",
"368 940 OFFCURVE",
"246 900 OFFCURVE",
"144 826 CURVE",
"222 704 LINE",
"303 764 OFFCURVE",
"405 800 OFFCURVE",
"496 800 CURVE SMOOTH",
"610 800 OFFCURVE",
"690 742 OFFCURVE",
"690 660 CURVE SMOOTH",
"690 0 LINE"
);
},
{
closed = 1;
nodes = (
"577 -20 OFFCURVE",
"722 97 OFFCURVE",
"722 260 CURVE",
"690 360 LINE",
"690 212 OFFCURVE",
"586 122 OFFCURVE",
"416 122 CURVE SMOOTH",
"286 122 OFFCURVE",
"222 171 OFFCURVE",
"222 270 CURVE SMOOTH",
"222 387 OFFCURVE",
"305 450 OFFCURVE",
"460 450 CURVE SMOOTH",
"568 450 OFFCURVE",
"664 419 OFFCURVE",
"756 356 CURVE",
"756 450 LINE",
"692 528 OFFCURVE",
"583 572 OFFCURVE",
"452 572 CURVE SMOOTH",
"218 572 OFFCURVE",
"60 448 OFFCURVE",
"60 264 CURVE SMOOTH",
"60 91 OFFCURVE",
"184 -20 OFFCURVE",
"376 -20 CURVE SMOOTH"
);
}
);
width = 970;
},
{
anchors = (
{
name = bottom;
position = "{580, 0}";
},
{
name = ogonek;
position = "{1060, 0}";
},
{
name = top;
position = "{626, 950}";
}
);
layerId = "2EABF22E-58CD-4ADD-8975-1500671E7F04";
paths = (
{
closed = 1;
nodes = (
"1060 0 LINE",
"1060 640 LINE SMOOTH",
"1060 822 OFFCURVE",
"865 950 OFFCURVE",
"586 950 CURVE SMOOTH",
"448 950 OFFCURVE",
"306 919 OFFCURVE",
"124 848 CURVE",
"242 596 LINE",
"316 633 OFFCURVE",
"460 666 OFFCURVE",
"546 666 CURVE SMOOTH",
"642 666 OFFCURVE",
"690 625 OFFCURVE",
"690 544 CURVE SMOOTH",
"690 0 LINE"
);
},
{
closed = 1;
nodes = (
"590 -20 OFFCURVE",
"722 90 OFFCURVE",
"722 260 CURVE",
"690 334 LINE",
"690 266 OFFCURVE",
"617 212 OFFCURVE",
"526 212 CURVE SMOOTH",
"461 212 OFFCURVE",
"432 233 OFFCURVE",
"432 278 CURVE SMOOTH",
"432 333 OFFCURVE",
"472 360 OFFCURVE",
"550 360 CURVE SMOOTH",
"626 360 OFFCURVE",
"703 335 OFFCURVE",
"756 294 CURVE",
"756 466 LINE",
"708 514 OFFCURVE",
"574 550 OFFCURVE",
"442 550 CURVE SMOOTH",
"200 550 OFFCURVE",
"40 435 OFFCURVE",
"40 260 CURVE SMOOTH",
"40 94 OFFCURVE",
"181 -20 OFFCURVE",
"386 -20 CURVE SMOOTH"
);
}
);
width = 1160;
},
{
anchors = (
{
name = bottom;
position = "{545, 0}";
},
{
name = ogonek;
position = "{894, 0}";
},
{
name = top;
position = "{660, 950}";
}
);
layerId = "9017EC39-7277-4FD3-B807-1ABD7559DC0D";
paths = (
{
closed = 1;
nodes = (
"894 0 LINE",
"1013 641 LINE SMOOTH",
"1045 816 OFFCURVE",
"871 950 OFFCURVE",
"610 950 CURVE SMOOTH",
"486 950 OFFCURVE",
"345 919 OFFCURVE",
"170 852 CURVE",
"250 594 LINE",
"405 650 OFFCURVE",
"460 665 OFFCURVE",
"517 665 CURVE SMOOTH",
"615 665 OFFCURVE",
"665 621 OFFCURVE",
"649 547 CURVE SMOOTH",
"532 0 LINE"
);
},
{
closed = 1;
nodes = (
"444 -16 OFFCURVE",
"573 83 OFFCURVE",
"628 256 CURVE",
"623 358 LINE",
"547 256 OFFCURVE",
"489 213 OFFCURVE",
"428 213 CURVE SMOOTH",
"384 213 OFFCURVE",
"353 237 OFFCURVE",
"353 273 CURVE SMOOTH",
"353 321 OFFCURVE",
"421 360 OFFCURVE",
"505 360 CURVE SMOOTH",
"563 360 OFFCURVE",
"608 343 OFFCURVE",
"672 296 CURVE",
"699 462 LINE",
"610 519 OFFCURVE",
"515 548 OFFCURVE",
"406 548 CURVE SMOOTH",
"164 548 OFFCURVE",
"-28 403 OFFCURVE",
"-28 225 CURVE SMOOTH",
"-28 82 OFFCURVE",
"96 -20 OFFCURVE",
"272 -18 CURVE SMOOTH"
);
}
);
width = 1090;
}
);
unicode = 0061;
},
{
color = 4;
glyphname = ae;
lastChange = "2019-11-20 18:49:28 +0000";
layers = (
{
anchors = (
{
name = bottom;
position = "{825, 0}";
},
{
name = top;
position = "{825, 920}";
}
);
background = {
paths = (
{
closed = 1;
nodes = (
"580 -20 OFFCURVE",
"739 152 OFFCURVE",
"729 355 CURVE",
"719 356 LINE",
"759 132 OFFCURVE",
"926 -20 OFFCURVE",
"1126 -20 CURVE SMOOTH",
"1328 -20 OFFCURVE",
"1446 44 OFFCURVE",
"1558 214 CURVE",
"1542 226 LINE",
"1437 66 OFFCURVE",
"1315 0 OFFCURVE",
"1126 0 CURVE SMOOTH",
"906 0 OFFCURVE",
"736 196 OFFCURVE",
"730 456 CURVE",
"1570 456 LINE",
"1573 478 OFFCURVE",
"1574 494 OFFCURVE",
"1574 506 CURVE SMOOTH",
"1574 736 OFFCURVE",
"1382 940 OFFCURVE",
"1166 940 CURVE SMOOTH",
"921 940 OFFCURVE",
"750 787 OFFCURVE",
"715 537 CURVE",
"726 524 LINE",
"726 654 LINE SMOOTH",
"726 834 OFFCURVE",
"627 940 OFFCURVE",
"476 940 CURVE SMOOTH",
"355 940 OFFCURVE",
"256 899 OFFCURVE",
"154 806 CURVE",
"168 790 LINE",
"263 879 OFFCURVE",
"359 920 OFFCURVE",
"470 920 CURVE SMOOTH",
"623 920 OFFCURVE",
"710 818 OFFCURVE",
"710 640 CURVE SMOOTH",
"710 466 LINE",
"718 466 LINE",
"670 522 OFFCURVE",
"561 562 OFFCURVE",
"450 562 CURVE SMOOTH",
"227 562 OFFCURVE",
"80 443 OFFCURVE",
"80 264 CURVE SMOOTH",
"80 92 OFFCURVE",
"201 -20 OFFCURVE",
"388 -20 CURVE SMOOTH"
);
},
{
closed = 1;
nodes = (
"214 0 OFFCURVE",
"100 104 OFFCURVE",
"100 264 CURVE SMOOTH",
"100 431 OFFCURVE",
"240 542 OFFCURVE",
"450 542 CURVE SMOOTH",
"549 542 OFFCURVE",
"653 508 OFFCURVE",
"710 456 CURVE",
"710 334 LINE SMOOTH",
"710 157 OFFCURVE",
"559 0 OFFCURVE",
"388 0 CURVE SMOOTH"
);
},
{
closed = 1;
nodes = (
"733 732 OFFCURVE",
"914 920 OFFCURVE",
"1158 920 CURVE SMOOTH",
"1374 920 OFFCURVE",
"1552 730 OFFCURVE",
"1552 500 CURVE SMOOTH",
"1552 476 LINE",
"730 476 LINE"
);
}
);
};
layerId = master01;
paths = (
{
closed = 1;
nodes = (
"581 -20 OFFCURVE",
"708 118 OFFCURVE",
"733 356 CURVE",
"722 356 LINE",
"756 117 OFFCURVE",
"903 -20 OFFCURVE",
"1126 -20 CURVE SMOOTH",
"1307 -20 OFFCURVE",
"1468 67 OFFCURVE",
"1558 214 CURVE",
"1542 226 LINE",
"1448 83 OFFCURVE",
"1295 0 OFFCURVE",
"1126 0 CURVE SMOOTH",
"885 0 OFFCURVE",
"729 181 OFFCURVE",
"731 460 CURVE",
"722 456 LINE",
"1569 456 LINE",
"1574 482 OFFCURVE",
"1574 487 OFFCURVE",
"1574 506 CURVE SMOOTH",
"1574 748 OFFCURVE",
"1393 940 OFFCURVE",
"1166 940 CURVE SMOOTH",
"948 940 OFFCURVE",
"761 783 OFFCURVE",
"721 565 CURVE",
"728 565 LINE",
"742 816 OFFCURVE",
"659 940 OFFCURVE",
"476 940 CURVE SMOOTH",
"361 940 OFFCURVE",
"243 891 OFFCURVE",
"154 806 CURVE",
"168 790 LINE",
"252 873 OFFCURVE",
"361 920 OFFCURVE",
"470 920 CURVE SMOOTH",
"626 920 OFFCURVE",
"710 822 OFFCURVE",
"710 640 CURVE SMOOTH",
"710 466 LINE",
"721 469 LINE",
"665 527 OFFCURVE",
"564 562 OFFCURVE",
"450 562 CURVE SMOOTH",
"228 562 OFFCURVE",
"80 443 OFFCURVE",
"80 264 CURVE SMOOTH",
"80 99 OFFCURVE",
"209 -20 OFFCURVE",
"388 -20 CURVE SMOOTH"
);
},
{
closed = 1;
nodes = (
"222 0 OFFCURVE",
"100 112 OFFCURVE",
"100 264 CURVE SMOOTH",
"100 429 OFFCURVE",
"242 542 OFFCURVE",
"450 542 CURVE SMOOTH",
"563 542 OFFCURVE",
"663 507 OFFCURVE",
"717 449 CURVE",
"710 461 LINE",
"718 358 LINE",
"720 396 LINE",
"699 146 OFFCURVE",
"577 0 OFFCURVE",
"388 0 CURVE SMOOTH"
);
},
{
closed = 1;
nodes = (
"730 720 OFFCURVE",
"921 920 OFFCURVE",
"1158 920 CURVE SMOOTH",
"1378 920 OFFCURVE",
"1552 736 OFFCURVE",
"1553 503 CURVE SMOOTH",
"1553 486 OFFCURVE",
"1552 478 OFFCURVE",
"1549 469 CURVE",
"1562 476 LINE",
"722 476 LINE",
"730 471 LINE"
);
}
);
width = 1650;
},
{
anchors = (
{
name = bottom;
position = "{776, 0}";
},
{
name = top;
position = "{647, 920}";
}
);
background = {
paths = (
{
closed = 1;
nodes = (
"1070 944 OFFCURVE",
"871 758 OFFCURVE",
"762 551 CURVE",
"762 544 LINE",
"800 660 LINE SMOOTH",
"838 788 OFFCURVE",
"816 928 OFFCURVE",
"658 938 CURVE SMOOTH",
"532 946 OFFCURVE",
"412 876 OFFCURVE",
"310 810 CURVE",
"320 792 LINE",
"418 854 OFFCURVE",
"530 924 OFFCURVE",
"650 918 CURVE SMOOTH",
"812 910 OFFCURVE",
"821 763 OFFCURVE",
"780 640 CURVE SMOOTH",
"722 476 LINE",
"659 532 OFFCURVE",
"589 560 OFFCURVE",
"504 560 CURVE SMOOTH",
"318 562 OFFCURVE",
"118 450 OFFCURVE",
"56 266 CURVE SMOOTH",
"6 114 OFFCURVE",
"88 -18 OFFCURVE",
"252 -18 CURVE SMOOTH",
"462 -18 OFFCURVE",
"646 168 OFFCURVE",
"695 339 CURVE",
"690 345 LINE",
"669 170 OFFCURVE",
"739 -12 OFFCURVE",
"946 -18 CURVE SMOOTH",
"1138 -24 OFFCURVE",
"1298 86 OFFCURVE",
"1434 210 CURVE",
"1420 222 LINE",
"1288 104 OFFCURVE",
"1134 -4 OFFCURVE",
"948 2 CURVE SMOOTH",
"683 10 OFFCURVE",
"690 294 OFFCURVE",
"740 466 CURVE",
"722 456 LINE",
"1524 456 LINE",
"1532 472 OFFCURVE",
"1538 490 OFFCURVE",
"1544 506 CURVE SMOOTH",
"1608 696 OFFCURVE",
"1538 932 OFFCURVE",
"1308 938 CURVE SMOOTH"
);
},
{
closed = 1;
nodes = (
"1511 476 LINE",
"736 476 LINE",
"732 450 LINE",
"827 675 OFFCURVE",
"1023 924 OFFCURVE",
"1298 920 CURVE SMOOTH",
"1526 916 OFFCURVE",
"1588 684 OFFCURVE",
"1520 500 CURVE SMOOTH"
);
},
{
closed = 1;
nodes = (
"102 2 OFFCURVE",
"24 124 OFFCURVE",
"74 264 CURVE SMOOTH",
"134 436 OFFCURVE",
"326 540 OFFCURVE",
"502 540 CURVE SMOOTH",
"588 540 OFFCURVE",
"654 514 OFFCURVE",
"715 457 CURVE",
"676 330 LINE SMOOTH",
"622 172 OFFCURVE",
"450 2 OFFCURVE",
"254 2 CURVE SMOOTH"
);
}
);
};
guideLines = (
{
angle = 90;
position = "{1567, 609}";
},
{
angle = 90;
position = "{1547, 647}";
}
);
layerId = "CD8D3C65-81B5-4831-B5B6-20AA0404C7C2";
paths = (
{
closed = 1;
nodes = (
"443 -18 OFFCURVE",
"625 150 OFFCURVE",
"648 344 CURVE",
"642 344 LINE",
"647 115 OFFCURVE",
"759 -18 OFFCURVE",
"949 -18 CURVE SMOOTH",
"1101 -18 OFFCURVE",
"1264 64 OFFCURVE",
"1405 210 CURVE",
"1389 222 LINE",
"1254 83 OFFCURVE",
"1092 2 OFFCURVE",
"948 2 CURVE SMOOTH",
"734 2 OFFCURVE",
"622 190 OFFCURVE",
"673 462 CURVE",
"661 456 LINE",
"1459 456 LINE",
"1474 501 OFFCURVE",
"1481 544 OFFCURVE",
"1481 591 CURVE SMOOTH",
"1481 789 OFFCURVE",
"1356 932 OFFCURVE",
"1176 938 CURVE SMOOTH",
"968 945 OFFCURVE",
"750 766 OFFCURVE",
"674 525 CURVE",
"677 525 LINE",
"764 760 OFFCURVE",
"703 928 OFFCURVE",
"526 938 CURVE SMOOTH",
"431 943 OFFCURVE",
"325 902 OFFCURVE",
"197 810 CURVE",
"209 792 LINE",
"330 881 OFFCURVE",
"432 922 OFFCURVE",
"521 918 CURVE SMOOTH",
"655 912 OFFCURVE",
"720 807 OFFCURVE",
"689 647 CURVE SMOOTH",
"654 468 LINE",
"665 468 LINE",
"598 529 OFFCURVE",
"518 560 OFFCURVE",
"423 560 CURVE SMOOTH",
"229 560 OFFCURVE",
"53 432 OFFCURVE",
"19 266 CURVE SMOOTH",
"-13 111 OFFCURVE",
"95 -18 OFFCURVE",
"257 -18 CURVE SMOOTH"
);
},
{
closed = 1;
nodes = (
"99 2 OFFCURVE",
"3 118 OFFCURVE",
"37 264 CURVE SMOOTH",
"74 421 OFFCURVE",
"241 540 OFFCURVE",
"424 540 CURVE SMOOTH",
"518 540 OFFCURVE",
"601 508 OFFCURVE",
"656 451 CURVE",
"652 459 LINE",
"640 355 LINE",
"651 433 LINE",
"622 184 OFFCURVE",
"455 2 OFFCURVE",
"255 2 CURVE SMOOTH"
);
},
{
closed = 1;
nodes = (
"745 734 OFFCURVE",
"949 923 OFFCURVE",
"1165 920 CURVE SMOOTH",
"1340 917 OFFCURVE",
"1460 784 OFFCURVE",
"1460 593 CURVE SMOOTH",
"1460 552 OFFCURVE",
"1454 512 OFFCURVE",
"1442 467 CURVE",
"1459 476 LINE",
"668 476 LINE",
"674 466 LINE"
);
}
);
width = 1552;
},
{
anchors = (
{
name = bottom;
position = "{776, 0}";
},
{
name = top;
position = "{647, 920}";
}
);
background = {
paths = (
{
closed = 1;
nodes = (
"1126 941 OFFCURVE",
"995 846 OFFCURVE",
"891 724 CURVE",
"900 855 OFFCURVE",
"817 935 OFFCURVE",
"668 938 CURVE SMOOTH",
"540 940 OFFCURVE",
"418 892 OFFCURVE",
"308 832 CURVE",
"346 704 LINE",
"434 750 OFFCURVE",
"540 804 OFFCURVE",
"642 796 CURVE SMOOTH",
"732 790 OFFCURVE",
"780 728 OFFCURVE",
"762 640 CURVE",
"711 497 LINE",
"653 546 OFFCURVE",
"586 570 OFFCURVE",
"502 570 CURVE SMOOTH",
"302 572 OFFCURVE",
"88 450 OFFCURVE",
"30 252 CURVE SMOOTH",
"-24 72 OFFCURVE",
"126 -18 OFFCURVE",
"288 -18 CURVE SMOOTH",
"459 -18 OFFCURVE",
"597 66 OFFCURVE",
"688 201 CURVE",
"718 81 OFFCURVE",
"808 -13 OFFCURVE",
"956 -18 CURVE SMOOTH",
"1146 -24 OFFCURVE",
"1308 82 OFFCURVE",
"1440 208 CURVE",
"1334 294 LINE",
"1242 214 OFFCURVE",
"1130 128 OFFCURVE",
"1002 132 CURVE SMOOTH",
"830 137 OFFCURVE",
"804 286 OFFCURVE",
"840 422 CURVE",
"1522 420 LINE",
"1522 423 LINE",
"1526 422 LINE",
"1532 438 OFFCURVE",
"1538 452 OFFCURVE",
"1542 468 CURVE SMOOTH",
"1600 672 OFFCURVE",
"1558 934 OFFCURVE",
"1298 938 CURVE SMOOTH"
);
},
{
closed = 1;
nodes = (
"1402 793 OFFCURVE",
"1426 672 OFFCURVE",
"1403 556 CURVE",
"895 554 LINE",
"968 685 OFFCURVE",
"1096 804 OFFCURVE",
"1254 798 CURVE SMOOTH"
);
},
{
closed = 1;
nodes = (
"226 128 OFFCURVE",
"160 174 OFFCURVE",
"192 270 CURVE SMOOTH",
"232 390 OFFCURVE",
"372 446 OFFCURVE",
"488 448 CURVE SMOOTH",
"559 450 OFFCURVE",
"619 431 OFFCURVE",
"676 396 CURVE",
"661 356 LINE",
"660 358 LINE",
"586 226 OFFCURVE",
"478 118 OFFCURVE",
"314 124 CURVE SMOOTH"
);
}
);
};
layerId = "CF6F8622-38E2-4A45-B461-838A78B3383E";
paths = (
{
closed = 1;
nodes = (
"463 -18 OFFCURVE",
"599 69 OFFCURVE",
"674 229 CURVE",
"651 229 LINE",
"697 78 OFFCURVE",
"810 -11 OFFCURVE",
"958 -18 CURVE SMOOTH",
"1107 -26 OFFCURVE",
"1269 52 OFFCURVE",
"1410 208 CURVE",
"1292 294 LINE",
"1175 178 OFFCURVE",
"1082 129 OFFCURVE",
"983 132 CURVE SMOOTH",
"829 137 OFFCURVE",
"749 269 OFFCURVE",
"785 453 CURVE",
"735 422 LINE",
"1466 420 LINE",
"1470 435 OFFCURVE",
"1474 450 OFFCURVE",
"1476 470 CURVE SMOOTH",
"1507 743 OFFCURVE",
"1374 929 OFFCURVE",
"1166 938 CURVE SMOOTH",
"1024 944 OFFCURVE",
"882 867 OFFCURVE",
"772 696 CURVE",
"787 696 LINE",
"795 841 OFFCURVE",
"700 934 OFFCURVE",
"536 938 CURVE SMOOTH",
"430 941 OFFCURVE",
"318 907 OFFCURVE",
"190 832 CURVE",
"246 704 LINE",
"374 776 OFFCURVE",
"454 802 OFFCURVE",
"530 796 CURVE SMOOTH",
"633 787 OFFCURVE",
"688 714 OFFCURVE",
"667 617 CURVE SMOOTH",
"637 476 LINE",
"667 476 LINE",
"596 539 OFFCURVE",
"515 570 OFFCURVE",
"416 570 CURVE SMOOTH",
"201 570 OFFCURVE",
"17 427 OFFCURVE",
"-6 252 CURVE SMOOTH",
"-27 95 OFFCURVE",
"92 -18 OFFCURVE",
"290 -18 CURVE SMOOTH"
);
},
{
closed = 1;
nodes = (
"186 132 OFFCURVE",
"138 187 OFFCURVE",
"153 267 CURVE SMOOTH",
"172 370 OFFCURVE",
"282 446 OFFCURVE",
"425 448 CURVE SMOOTH",
"502 449 OFFCURVE",
"574 427 OFFCURVE",
"648 379 CURVE",
"620 441 LINE",
"619 296 LINE",
"652 462 LINE",
"570 222 OFFCURVE",
"458 113 OFFCURVE",
"296 124 CURVE SMOOTH"
);
},
{
closed = 1;
nodes = (
"845 676 OFFCURVE",
"983 807 OFFCURVE",
"1141 798 CURVE SMOOTH",
"1268 791 OFFCURVE",
"1337 695 OFFCURVE",
"1324 545 CURVE SMOOTH",
"1323 537 OFFCURVE",
"1323 535 OFFCURVE",
"1322 525 CURVE",
"1369 556 LINE",
"772 554 LINE",
"789 470 LINE"
);
}
);
userData = {
com.schriftgestaltung.Glyphs.lastChange = "2019-10-03 14:51:18 +0000";
};
width = 1552;
},
{
anchors = (
{
name = bottom;
position = "{825, 0}";
},
{
name = top;
position = "{825, 920}";
}
);
background = {
paths = (
{
closed = 1;
nodes = (
"1580 758 OFFCURVE",
"1386 940 OFFCURVE",
"1166 940 CURVE SMOOTH",
"987 940 OFFCURVE",
"858 852 OFFCURVE",
"788 714 CURVE",
"807 710 LINE",
"789 857 OFFCURVE",
"685 940 OFFCURVE",
"496 940 CURVE SMOOTH",
"330 940 OFFCURVE",
"212 876 OFFCURVE",
"144 826 CURVE",
"222 704 LINE",
"266 736 OFFCURVE",
"364 800 OFFCURVE",
"496 800 CURVE SMOOTH",
"596 800 OFFCURVE",
"690 732 OFFCURVE",
"690 640 CURVE SMOOTH",
"690 461 LINE",
"708 494 LINE",
"657 531 OFFCURVE",
"572 572 OFFCURVE",
"452 572 CURVE SMOOTH",
"230 572 OFFCURVE",
"60 464 OFFCURVE",
"60 250 CURVE SMOOTH",
"60 82 OFFCURVE",
"186 -20 OFFCURVE",
"416 -20 CURVE SMOOTH",
"591 -20 OFFCURVE",
"755 67 OFFCURVE",
"779 220 CURVE",
"759 220 LINE",
"826 73 OFFCURVE",
"956 -20 OFFCURVE",
"1126 -20 CURVE SMOOTH",
"1364 -20 OFFCURVE",
"1472 74 OFFCURVE",
"1564 214 CURVE",
"1434 296 LINE",
"1372 196 OFFCURVE",
"1280 130 OFFCURVE",
"1146 130 CURVE SMOOTH",
"967 130 OFFCURVE",
"853 247 OFFCURVE",
"852 458 CURVE",
"808 420 LINE",
"1578 420 LINE",
"1580 436 OFFCURVE",
"1580 452 OFFCURVE",
"1580 468 CURVE SMOOTH"
);
},
{
closed = 1;
nodes = (
"1318 800 OFFCURVE",
"1402 683 OFFCURVE",
"1410 523 CURVE",
"1452 556 LINE",
"813 556 LINE",
"856 522 LINE",
"858 693 OFFCURVE",
"986 800 OFFCURVE",
"1146 800 CURVE SMOOTH"
);
},
{
closed = 1;
nodes = (
"288 122 OFFCURVE",
"222 172 OFFCURVE",
"222 270 CURVE SMOOTH",
"222 382 OFFCURVE",
"298 450 OFFCURVE",
"460 450 CURVE SMOOTH",
"559 450 OFFCURVE",
"639 428 OFFCURVE",
"716 383 CURVE",
"690 442 LINE",
"690 360 LINE SMOOTH",
"690 188 OFFCURVE",
"576 122 OFFCURVE",
"416 122 CURVE SMOOTH"
);
}
);
};
layerId = "C81D5947-3D41-4C9D-B8BA-C68D41D38A45";
paths = (
{
closed = 1;
nodes = (
"617 -20 OFFCURVE",
"756 72 OFFCURVE",
"779 220 CURVE",
"759 220 LINE",
"836 52 OFFCURVE",
"946 -20 OFFCURVE",
"1126 -20 CURVE SMOOTH",
"1314 -20 OFFCURVE",
"1463 60 OFFCURVE",
"1564 214 CURVE",
"1434 296 LINE",
"1366 185 OFFCURVE",
"1269 130 OFFCURVE",
"1146 130 CURVE SMOOTH",
"963 130 OFFCURVE",
"853 252 OFFCURVE",
"852 458 CURVE",
"808 420 LINE",
"1577 420 LINE",
"1579 427 OFFCURVE",
"1580 446 OFFCURVE",
"1580 468 CURVE SMOOTH",
"1580 746 OFFCURVE",
"1410 940 OFFCURVE",
"1166 940 CURVE SMOOTH",
"1001 940 OFFCURVE",
"859 854 OFFCURVE",
"788 712 CURVE",
"807 712 LINE",
"789 859 OFFCURVE",
"678 940 OFFCURVE",
"496 940 CURVE SMOOTH",
"368 940 OFFCURVE",
"244 900 OFFCURVE",
"144 826 CURVE",
"222 704 LINE",
"302 763 OFFCURVE",
"406 800 OFFCURVE",
"496 800 CURVE SMOOTH",
"621 800 OFFCURVE",
"690 728 OFFCURVE",
"690 600 CURVE SMOOTH",
"690 461 LINE",
"775 461 LINE",
"639 545 OFFCURVE",
"560 572 OFFCURVE",
"452 572 CURVE SMOOTH",
"220 572 OFFCURVE",
"60 441 OFFCURVE",
"60 250 CURVE SMOOTH",
"60 85 OFFCURVE",
"198 -20 OFFCURVE",
"416 -20 CURVE SMOOTH"
);
},
{
closed = 1;
nodes = (
"282 122 OFFCURVE",
"222 168 OFFCURVE",
"222 270 CURVE SMOOTH",
"222 388 OFFCURVE",
"304 450 OFFCURVE",
"460 450 CURVE SMOOTH",
"552 450 OFFCURVE",
"637 429 OFFCURVE",
"708 388 CURVE",
"690 442 LINE",
"702 233 LINE",
"708 385 LINE",
"685 204 OFFCURVE",
"595 122 OFFCURVE",
"416 122 CURVE SMOOTH"
);
},
{
closed = 1;
nodes = (
"852 675 OFFCURVE",
"965 800 OFFCURVE",
"1142 800 CURVE SMOOTH",
"1304 800 OFFCURVE",
"1408 694 OFFCURVE",
"1408 531 CURVE SMOOTH",
"1408 514 OFFCURVE",
"1407 507 OFFCURVE",
"1403 499 CURVE",
"1452 556 LINE",
"808 556 LINE",
"852 478 LINE"
);
}
);
width = 1650;
},
{
anchors = (
{
name = bottom;
position = "{939, 0}";
},
{
name = top;
position = "{939, 920}";
}
);
background = {
paths = (
{
closed = 1;
nodes = (
"1436 271 OFFCURVE",
"1371 240 OFFCURVE",
"1276 240 CURVE SMOOTH",
"1194 240 OFFCURVE",
"1139 290 OFFCURVE",
"1120 380 CURVE",
"1806 380 LINE",
"1809 407 OFFCURVE",
"1810 442 OFFCURVE",
"1810 478 CURVE SMOOTH",
"1810 769 OFFCURVE",
"1635 940 OFFCURVE",
"1336 940 CURVE SMOOTH",
"1145 940 OFFCURVE",
"997 874 OFFCURVE",
"909 755 CURVE",
"879 894 OFFCURVE",
"781 950 OFFCURVE",
"586 950 CURVE SMOOTH",
"454 950 OFFCURVE",
"296 915 OFFCURVE",
"124 848 CURVE",
"242 596 LINE",
"320 635 OFFCURVE",
"454 666 OFFCURVE",
"546 666 CURVE SMOOTH",
"637 666 OFFCURVE",
"690 621 OFFCURVE",
"690 544 CURVE SMOOTH",
"690 505 LINE",
"624 531 OFFCURVE",
"528 550 OFFCURVE",
"442 550 CURVE SMOOTH",
"200 550 OFFCURVE",
"40 434 OFFCURVE",
"40 260 CURVE SMOOTH",
"40 85 OFFCURVE",
"192 -20 OFFCURVE",
"446 -20 CURVE SMOOTH",
"673 -20 OFFCURVE",
"813 42 OFFCURVE",
"876 173 CURVE",
"945 40 OFFCURVE",
"1081 -20 OFFCURVE",
"1296 -20 CURVE SMOOTH",
"1551 -20 OFFCURVE",
"1723 76 OFFCURVE",
"1824 274 CURVE",
"1468 330 LINE"
);
},
{
closed = 1;
nodes = (
"1342 700 OFFCURVE",
"1381 662 OFFCURVE",
"1395 568 CURVE",
"1121 568 LINE",
"1137 656 OFFCURVE",
"1186 700 OFFCURVE",
"1266 700 CURVE SMOOTH"
);
},
{
closed = 1;
nodes = (
"467 212 OFFCURVE",
"432 236 OFFCURVE",
"432 278 CURVE SMOOTH",
"432 326 OFFCURVE",
"481 360 OFFCURVE",
"550 360 CURVE SMOOTH",
"607 360 OFFCURVE",
"650 353 OFFCURVE",
"690 335 CURVE",
"687 261 OFFCURVE",
"623 212 OFFCURVE",
"526 212 CURVE SMOOTH"
);
},
{
closed = 1;
nodes = (
"687 -20 OFFCURVE",
"830 50 OFFCURVE",
"887 197 CURVE",
"864 198 LINE",
"928 49 OFFCURVE",
"1066 -20 OFFCURVE",
"1296 -20 CURVE SMOOTH",
"1551 -20 OFFCURVE",
"1723 76 OFFCURVE",
"1824 274 CURVE",
"1468 330 LINE",
"1436 271 OFFCURVE",
"1370 240 OFFCURVE",
"1276 240 CURVE SMOOTH",
"1183 240 OFFCURVE",
"1125 304 OFFCURVE",
"1114 417 CURVE",
"1075 380 LINE",
"1806 380 LINE",
"1809 404 OFFCURVE",
"1810 437 OFFCURVE",
"1810 478 CURVE SMOOTH",
"1810 769 OFFCURVE",
"1635 940 OFFCURVE",
"1336 940 CURVE SMOOTH",
"1135 940 OFFCURVE",
"980 867 OFFCURVE",
"893 732 CURVE",
"914 724 LINE",
"893 884 OFFCURVE",
"798 950 OFFCURVE",
"586 950 CURVE SMOOTH",
"454 950 OFFCURVE",
"296 915 OFFCURVE",
"124 848 CURVE",
"242 596 LINE",
"320 635 OFFCURVE",
"454 666 OFFCURVE",
"546 666 CURVE SMOOTH",
"637 666 OFFCURVE",
"690 621 OFFCURVE",
"690 544 CURVE SMOOTH",
"690 460 LINE",
"712 495 LINE",
"644 528 OFFCURVE",
"534 550 OFFCURVE",
"442 550 CURVE SMOOTH",
"200 550 OFFCURVE",
"40 434 OFFCURVE",
"40 260 CURVE SMOOTH",
"40 85 OFFCURVE",
"192 -20 OFFCURVE",
"446 -20 CURVE SMOOTH"
);
},
{
closed = 1;
nodes = (
"467 212 OFFCURVE",
"432 236 OFFCURVE",
"432 278 CURVE SMOOTH",
"432 326 OFFCURVE",
"481 360 OFFCURVE",
"550 360 CURVE SMOOTH",
"621 360 OFFCURVE",
"668 349 OFFCURVE",
"715 322 CURVE",
"690 380 LINE",
"695 289 LINE",
"693 365 LINE",
"693 265 OFFCURVE",
"635 212 OFFCURVE",
"526 212 CURVE SMOOTH"
);
},
{
closed = 1;
nodes = (
"1440 568 LINE",
"1076 568 LINE",
"1116 529 LINE",
"1124 642 OFFCURVE",
"1174 700 OFFCURVE",
"1266 700 CURVE SMOOTH",
"1354 700 OFFCURVE",
"1392 649 OFFCURVE",
"1400 523 CURVE"
);
}
);
};
layerId = "2EABF22E-58CD-4ADD-8975-1500671E7F04";
paths = (
{
closed = 1;
nodes = (
"677 -20 OFFCURVE",
"833 57 OFFCURVE",
"887 197 CURVE",
"864 198 LINE",
"927 52 OFFCURVE",
"1069 -20 OFFCURVE",
"1296 -20 CURVE SMOOTH",
"1555 -20 OFFCURVE",
"1721 73 OFFCURVE",
"1824 274 CURVE",
"1468 330 LINE",
"1439 276 OFFCURVE",
"1361 240 OFFCURVE",
"1276 240 CURVE SMOOTH",
"1175 240 OFFCURVE",
"1126 293 OFFCURVE",
"1114 417 CURVE",
"1075 380 LINE",
"1806 380 LINE",
"1808 395 OFFCURVE",
"1810 440 OFFCURVE",
"1810 478 CURVE SMOOTH",
"1810 779 OFFCURVE",
"1645 940 OFFCURVE",
"1336 940 CURVE SMOOTH",
"1130 940 OFFCURVE",
"980 868 OFFCURVE",
"887 724 CURVE",
"914 724 LINE",
"894 879 OFFCURVE",
"791 950 OFFCURVE",
"586 950 CURVE SMOOTH",
"448 950 OFFCURVE",
"305 918 OFFCURVE",
"124 848 CURVE",
"242 596 LINE",
"316 633 OFFCURVE",
"459 666 OFFCURVE",
"546 666 CURVE SMOOTH",
"641 666 OFFCURVE",
"690 625 OFFCURVE",
"690 544 CURVE SMOOTH",
"690 439 LINE",
"864 439 LINE",
"673 521 OFFCURVE",
"562 550 OFFCURVE",
"442 550 CURVE SMOOTH",
"200 550 OFFCURVE",
"40 434 OFFCURVE",
"40 260 CURVE SMOOTH",
"40 80 OFFCURVE",
"185 -20 OFFCURVE",
"446 -20 CURVE SMOOTH"
);
},
{
closed = 1;
nodes = (
"463 212 OFFCURVE",
"432 234 OFFCURVE",
"432 278 CURVE SMOOTH",
"432 334 OFFCURVE",
"470 360 OFFCURVE",
"550 360 CURVE SMOOTH",
"619 360 OFFCURVE",
"688 341 OFFCURVE",
"749 305 CURVE",
"688 358 LINE",
"695 288 LINE",
"693 365 LINE",
"693 269 OFFCURVE",
"631 212 OFFCURVE",
"526 212 CURVE SMOOTH"
);
},
{
closed = 1;
nodes = (
"1114 626 OFFCURVE",
"1163 700 OFFCURVE",
"1266 700 CURVE SMOOTH",
"1353 700 OFFCURVE",
"1398 642 OFFCURVE",
"1398 531 CURVE SMOOTH",
"1398 519 OFFCURVE",
"1398 522 OFFCURVE",
"1394 500 CURVE",
"1440 568 LINE",
"1076 568 LINE",
"1113 469 LINE"
);
}
);
width = 1878;
},
{
anchors = (
{
name = bottom;
position = "{883, 0}";
},
{
name = top;
position = "{754, 920}";
}
);
background = {
paths = (
{
closed = 1;
nodes = (
"1277 940 OFFCURVE",
"1115 870 OFFCURVE",
"994 756 CURVE",
"989 879 OFFCURVE",
"902 947 OFFCURVE",
"744 950 CURVE SMOOTH",
"588 952 OFFCURVE",
"434 902 OFFCURVE",
"290 852 CURVE",
"334 594 LINE",
"430 628 OFFCURVE",
"548 676 OFFCURVE",
"652 662 CURVE SMOOTH",
"722 652 OFFCURVE",
"746 614 OFFCURVE",
"730 546 CURVE",
"710 495 LINE",
"637 533 OFFCURVE",
"558 550 OFFCURVE",
"472 548 CURVE SMOOTH",
"288 546 OFFCURVE",
"66 456 OFFCURVE",
"12 262 CURVE SMOOTH",
"-44 58 OFFCURVE",
"162 -18 OFFCURVE",
"328 -18 CURVE SMOOTH",
"530 -20 OFFCURVE",
"699 56 OFFCURVE",
"789 239 CURVE",
"807 84 OFFCURVE",
"917 -19 OFFCURVE",
"1128 -20 CURVE SMOOTH",
"1358 -20 OFFCURVE",
"1556 94 OFFCURVE",
"1702 266 CURVE",
"1364 328 LINE",
"1306 284 OFFCURVE",
"1232 234 OFFCURVE",
"1154 244 CURVE SMOOTH",
"1075 255 OFFCURVE",
"1063 318 OFFCURVE",
"1073 381 CURVE",
"1732 380 LINE",
"1732 382 LINE",
"1734 382 LINE",
"1744 414 OFFCURVE",
"1758 446 OFFCURVE",
"1766 478 CURVE SMOOTH",
"1834 728 OFFCURVE",
"1720 940 OFFCURVE",
"1446 940 CURVE SMOOTH"
);
},
{
closed = 1;
nodes = (
"1413 688 OFFCURVE",
"1417 628 OFFCURVE",
"1404 568 CURVE",
"1156 568 LINE",
"1198 637 OFFCURVE",
"1258 705 OFFCURVE",
"1342 696 CURVE SMOOTH"
);
},
{
closed = 1;
nodes = (
"412 218 OFFCURVE",
"380 238 OFFCURVE",
"390 274 CURVE SMOOTH",
"404 328 OFFCURVE",
"498 356 OFFCURVE",
"546 360 CURVE SMOOTH",
"585 362 OFFCURVE",
"619 354 OFFCURVE",
"650 339 CURVE",
"650 338 LINE",
"597 261 OFFCURVE",
"544 204 OFFCURVE",
"442 214 CURVE SMOOTH"
);
},
{
closed = 1;
nodes = (
"787 261 LINE",
"787 259 LINE",
"785 261 LINE"
);
}
);
};
layerId = "9017EC39-7277-4FD3-B807-1ABD7559DC0D";
paths = (
{
closed = 1;
nodes = (
"561 -18 OFFCURVE",
"713 84 OFFCURVE",
"765 269 CURVE",
"749 269 LINE",
"781 87 OFFCURVE",
"915 -12 OFFCURVE",
"1130 -13 CURVE SMOOTH",
"1347 -14 OFFCURVE",
"1536 85 OFFCURVE",
"1665 266 CURVE",
"1318 328 LINE",
"1247 266 OFFCURVE",
"1195 243 OFFCURVE",
"1141 243 CURVE SMOOTH",
"1054 243 OFFCURVE",
"1008 306 OFFCURVE",
"1022 412 CURVE",
"975 381 LINE",
"1680 380 LINE",
"1697 452 OFFCURVE",
"1705 501 OFFCURVE",
"1705 551 CURVE SMOOTH",
"1705 778 OFFCURVE",
"1543 940 OFFCURVE",
"1312 940 CURVE SMOOTH",
"1150 940 OFFCURVE",
"975 861 OFFCURVE",
"859 724 CURVE",
"892 724 LINE",
"881 868 OFFCURVE",
"783 947 OFFCURVE",
"611 950 CURVE SMOOTH",
"503 952 OFFCURVE",
"381 925 OFFCURVE",
"170 852 CURVE",
"251 594 LINE",
"392 644 OFFCURVE",
"475 665 OFFCURVE",
"532 665 CURVE SMOOTH",
"618 665 OFFCURVE",
"669 616 OFFCURVE",
"653 548 CURVE SMOOTH",
"624 422 LINE",
"780 422 LINE",
"631 513 OFFCURVE",
"518 550 OFFCURVE",
"395 548 CURVE SMOOTH",
"144 544 OFFCURVE",
"-57 379 OFFCURVE",
"-24 193 CURVE SMOOTH",
"0 60 OFFCURVE",
"130 -18 OFFCURVE",
"331 -18 CURVE SMOOTH"
);
},
{
closed = 1;
nodes = (
"387 213 OFFCURVE",
"356 231 OFFCURVE",
"351 264 CURVE SMOOTH",
"344 315 OFFCURVE",
"406 360 OFFCURVE",
"484 360 CURVE SMOOTH",
"539 360 OFFCURVE",
"610 338 OFFCURVE",
"704 295 CURVE",
"603 366 LINE",
"603 314 LINE",
"618 366 LINE",
"564 258 OFFCURVE",
"509 213 OFFCURVE",
"434 213 CURVE SMOOTH"
);
},
{
closed = 1;
nodes = (
"1080 623 OFFCURVE",
"1147 696 OFFCURVE",
"1238 696 CURVE SMOOTH",
"1332 696 OFFCURVE",
"1328 619 OFFCURVE",
"1323 561 CURVE SMOOTH",
"1322 554 OFFCURVE",
"1322 544 OFFCURVE",
"1321 536 CURVE",
"1369 568 LINE",
"1031 568 LINE",
"1067 515 LINE"
);
}
);
width = 1766;
}
);
unicode = 00E6;
},
{
color = 4;
glyphname = b;
lastChange = "2019-11-13 15:48:31 +0000";
layers = (
{
anchors = (
{
name = bottom;
position = "{541, 0}";
},
{
name = top;
position = "{541, 1600}";
}
);
layerId = master01;
paths = (
{
closed = 1;
nodes = (
"180 0 LINE",
"180 1560 LINE",
"160 1560 LINE",
"160 0 LINE"
);
},
{
closed = 1;
nodes = (
"805 -20 OFFCURVE",
"992 191 OFFCURVE",
"992 460 CURVE SMOOTH",
"992 729 OFFCURVE",
"805 940 OFFCURVE",
"566 940 CURVE SMOOTH",
"333 940 OFFCURVE",
"166 739 OFFCURVE",
"166 460 CURVE SMOOTH",
"166 180 OFFCURVE",
"333 -20 OFFCURVE",
"566 -20 CURVE SMOOTH"
);
},
{
closed = 1;
nodes = (
"340 0 OFFCURVE",
"180 194 OFFCURVE",
"180 460 CURVE SMOOTH",
"180 726 OFFCURVE",
"340 920 OFFCURVE",
"560 920 CURVE SMOOTH",
"788 920 OFFCURVE",
"972 714 OFFCURVE",
"972 460 CURVE SMOOTH",
"972 207 OFFCURVE",
"787 0 OFFCURVE",
"560 0 CURVE SMOOTH"
);
}
);
width = 1082;
},
{
anchors = (
{
name = bottom;
position = "{509, 0}";
},
{
name = top;
position = "{284, 1600}";
}
);
layerId = "CD8D3C65-81B5-4831-B5B6-20AA0404C7C2";
paths = (
{
closed = 1;
nodes = (
"58 0 LINE",
"377 1558 LINE",
"357 1558 LINE",
"40 0 LINE"
);
},
{
closed = 1;
nodes = (
"687 -18 OFFCURVE",
"930 277 OFFCURVE",
"930 569 CURVE SMOOTH",
"930 789 OFFCURVE",
"793 941 OFFCURVE",
"610 938 CURVE SMOOTH",
"357 934 OFFCURVE",
"127 641 OFFCURVE",
"127 344 CURVE SMOOTH",
"127 129 OFFCURVE",
"248 -18 OFFCURVE",
"430 -18 CURVE SMOOTH"
);
},
{
closed = 1;
nodes = (
"257 2 OFFCURVE",
"141 142 OFFCURVE",
"141 347 CURVE SMOOTH",
"141 632 OFFCURVE",
"367 914 OFFCURVE",
"605 918 CURVE SMOOTH",
"780 921 OFFCURVE",
"911 775 OFFCURVE",
"911 568 CURVE SMOOTH",
"911 290 OFFCURVE",
"674 2 OFFCURVE",
"428 2 CURVE SMOOTH"
);
}
);
width = 1018;
},
{
anchors = (
{
name = bottom;
position = "{536, 0}";
},
{
name = top;
position = "{311, 1600}";
}
);
layerId = "CF6F8622-38E2-4A45-B461-838A78B3383E";
paths = (
{
closed = 1;
nodes = (
"176 0 LINE",
"493 1560 LINE",
"335 1560 LINE",
"18 0 LINE"
);
},
{
closed = 1;
nodes = (
"744 -27 OFFCURVE",
"1002 249 OFFCURVE",
"1002 543 CURVE SMOOTH",
"1002 772 OFFCURVE",
"846 942 OFFCURVE",
"646 938 CURVE SMOOTH",
"397 933 OFFCURVE",
"185 664 OFFCURVE",
"185 347 CURVE SMOOTH",
"185 119 OFFCURVE",
"294 -15 OFFCURVE",
"477 -20 CURVE SMOOTH"
);
},
{
closed = 1;
nodes = (
"348 132 OFFCURVE",
"260 235 OFFCURVE",
"260 384 CURVE SMOOTH",
"260 596 OFFCURVE",
"439 788 OFFCURVE",
"620 788 CURVE SMOOTH",
"753 788 OFFCURVE",
"845 684 OFFCURVE",
"845 536 CURVE SMOOTH",
"845 328 OFFCURVE",
"662 132 OFFCURVE",
"480 132 CURVE SMOOTH"
);
}
);
userData = {
com.schriftgestaltung.Glyphs.lastChange = "2019-10-03 14:51:18 +0000";
};
width = 1072;
},
{
anchors = (
{
name = bottom;
position = "{570, 0}";
},
{
name = top;
position = "{570, 1600}";
}
);
layerId = "C81D5947-3D41-4C9D-B8BA-C68D41D38A45";
paths = (
{
closed = 1;
nodes = (
"300 0 LINE",
"300 1560 LINE",
"140 1560 LINE",
"140 0 LINE"
);
},
{
closed = 1;
nodes = (
"881 -20 OFFCURVE",
"1070 184 OFFCURVE",
"1070 460 CURVE SMOOTH",
"1070 736 OFFCURVE",
"880 940 OFFCURVE",
"624 940 CURVE SMOOTH",
"377 940 OFFCURVE",
"228 759 OFFCURVE",
"228 460 CURVE SMOOTH",
"228 164 OFFCURVE",
"379 -20 OFFCURVE",
"624 -20 CURVE SMOOTH"
);
},
{
closed = 1;
nodes = (
"429 130 OFFCURVE",
"300 270 OFFCURVE",
"300 460 CURVE SMOOTH",
"300 651 OFFCURVE",
"428 790 OFFCURVE",
"604 790 CURVE SMOOTH",
"777 790 OFFCURVE",
"908 648 OFFCURVE",
"908 460 CURVE SMOOTH",
"908 270 OFFCURVE",
"779 130 OFFCURVE",
"604 130 CURVE SMOOTH"
);
}
);
width = 1140;
},
{
anchors = (
{
name = bottom;
position = "{645, 0}";
},
{
name = top;
position = "{645, 1600}";
}
);
layerId = "2EABF22E-58CD-4ADD-8975-1500671E7F04";
paths = (
{
closed = 1;
nodes = (
"490 0 LINE",
"490 1560 LINE",
"100 1560 LINE",
"100 0 LINE"
);
},
{
closed = 1;
nodes = (
"1050 -20 OFFCURVE",
"1230 183 OFFCURVE",
"1230 460 CURVE SMOOTH",
"1230 737 OFFCURVE",
"1050 940 OFFCURVE",
"804 940 CURVE SMOOTH",
"563 940 OFFCURVE",
"398 745 OFFCURVE",
"398 460 CURVE SMOOTH",
"398 175 OFFCURVE",
"563 -20 OFFCURVE",
"804 -20 CURVE SMOOTH"
);
},
{
closed = 1;
nodes = (
"563 280 OFFCURVE",
"490 360 OFFCURVE",
"490 460 CURVE SMOOTH",
"490 560 OFFCURVE",
"563 640 OFFCURVE",
"654 640 CURVE SMOOTH",
"745 640 OFFCURVE",
"818 560 OFFCURVE",
"818 460 CURVE SMOOTH",
"818 360 OFFCURVE",
"745 280 OFFCURVE",
"654 280 CURVE SMOOTH"
);
}
);
width = 1290;
},
{
anchors = (
{
name = bottom;
position = "{606, 0}";
},
{
name = top;
position = "{476, 1600}";
}
);
layerId = "9017EC39-7277-4FD3-B807-1ABD7559DC0D";
paths = (
{
closed = 1;
nodes = (
"358 0 LINE",
"675 1560 LINE",
"293 1560 LINE",
"-22 0 LINE"
);
},
{
closed = 1;
nodes = (
"921 -20 OFFCURVE",
"1155 252 OFFCURVE",
"1155 542 CURVE SMOOTH",
"1155 769 OFFCURVE",
"1011 938 OFFCURVE",
"815 938 CURVE SMOOTH",
"566 938 OFFCURVE",
"349 665 OFFCURVE",
"349 368 CURVE SMOOTH",
"349 139 OFFCURVE",
"478 -20 OFFCURVE",
"670 -20 CURVE SMOOTH"
);
},
{
closed = 1;
nodes = (
"490 282 OFFCURVE",
"446 335 OFFCURVE",
"446 408 CURVE SMOOTH",
"446 518 OFFCURVE",
"546 638 OFFCURVE",
"643 638 CURVE SMOOTH",
"710 638 OFFCURVE",
"758 580 OFFCURVE",
"758 507 CURVE SMOOTH",
"758 401 OFFCURVE",
"654 282 OFFCURVE",
"553 282 CURVE SMOOTH"
);
}
);
width = 1212;
}
);
unicode = 0062;
},
{
color = 4;
glyphname = c;
lastChange = "2019-11-13 15:48:31 +0000";
layers = (
{
anchors = (
{
name = bottom;
position = "{488, 0}";
},
{
name = top;
position = "{546, 940}";
}
);
layerId = master01;
paths = (
{
closed = 1;
nodes = (
"664 -20 OFFCURVE",
"798 30 OFFCURVE",
"856 96 CURVE",
"856 122 LINE",
"796 54 OFFCURVE",
"660 0 OFFCURVE",
"546 0 CURVE SMOOTH",
"291 0 OFFCURVE",
"100 197 OFFCURVE",
"100 460 CURVE SMOOTH",
"100 723 OFFCURVE",
"291 920 OFFCURVE",
"546 920 CURVE SMOOTH",
"660 920 OFFCURVE",
"796 866 OFFCURVE",
"856 798 CURVE",
"856 824 LINE",
"796 890 OFFCURVE",
"661 940 OFFCURVE",
"546 940 CURVE SMOOTH",
"279 940 OFFCURVE",
"80 735 OFFCURVE",
"80 460 CURVE SMOOTH",
"80 185 OFFCURVE",
"279 -20 OFFCURVE",
"546 -20 CURVE SMOOTH"
);
}
);
width = 976;
},
{
anchors = (
{
name = bottom;
position = "{375, -5}";
},
{
name = top;
position = "{600, 938}";
}
);
layerId = "CD8D3C65-81B5-4831-B5B6-20AA0404C7C2";
paths = (
{
closed = 1;
nodes = (
"545 -18 OFFCURVE",
"651 20 OFFCURVE",
"754 94 CURVE",
"759 118 LINE",
"648 39 OFFCURVE",
"545 1 OFFCURVE",
"443 2 CURVE SMOOTH",
"244 5 OFFCURVE",
"95 167 OFFCURVE",
"95 386 CURVE SMOOTH",
"95 666 OFFCURVE",
"337 918 OFFCURVE",
"600 918 CURVE SMOOTH",
"704 918 OFFCURVE",
"793 879 OFFCURVE",
"871 800 CURVE",
"876 824 LINE",
"793 900 OFFCURVE",
"702 937 OFFCURVE",
"600 938 CURVE SMOOTH",
"329 940 OFFCURVE",
"77 680 OFFCURVE",
"77 385 CURVE SMOOTH",
"77 154 OFFCURVE",
"232 -18 OFFCURVE",
"444 -18 CURVE SMOOTH"
);
}
);
width = 918;
},
{
anchors = (
{
name = bottom;
position = "{328, 0}";
},
{
name = top;
position = "{600, 938}";
}
);
layerId = "CF6F8622-38E2-4A45-B461-838A78B3383E";
paths = (
{
closed = 1;
nodes = (
"550 -19 OFFCURVE",
"658 20 OFFCURVE",
"759 96 CURVE",
"787 294 LINE",
"685 192 OFFCURVE",
"569 132 OFFCURVE",
"458 132 CURVE SMOOTH",
"313 132 OFFCURVE",
"213 241 OFFCURVE",
"213 399 CURVE SMOOTH",
"213 608 OFFCURVE",
"389 788 OFFCURVE",
"585 788 CURVE SMOOTH",
"697 788 OFFCURVE",
"791 729 OFFCURVE",
"847 622 CURVE",
"877 822 LINE",
"792 900 OFFCURVE",
"694 939 OFFCURVE",
"582 938 CURVE SMOOTH",
"296 936 OFFCURVE",
"56 679 OFFCURVE",
"56 394 CURVE SMOOTH",
"56 158 OFFCURVE",
"220 -16 OFFCURVE",
"443 -18 CURVE SMOOTH"
);
}
);
userData = {
com.schriftgestaltung.Glyphs.lastChange = "2019-10-03 14:51:18 +0000";
};
width = 898;
},
{
anchors = (
{
name = bottom;
position = "{478, 0}";
},
{
name = top;
position = "{536, 940}";
}
);
layerId = "C81D5947-3D41-4C9D-B8BA-C68D41D38A45";
paths = (
{
closed = 1;
nodes = (
"669 -20 OFFCURVE",
"797 27 OFFCURVE",
"856 98 CURVE",
"856 298 LINE",
"812 203 OFFCURVE",
"672 130 OFFCURVE",
"536 130 CURVE SMOOTH",
"353 130 OFFCURVE",
"222 268 OFFCURVE",
"222 460 CURVE SMOOTH",
"222 653 OFFCURVE",
"352 790 OFFCURVE",
"536 790 CURVE SMOOTH",
"672 790 OFFCURVE",
"812 717 OFFCURVE",
"856 622 CURVE",
"856 822 LINE",
"794 893 OFFCURVE",
"667 940 OFFCURVE",
"536 940 CURVE SMOOTH",
"263 940 OFFCURVE",
"60 735 OFFCURVE",
"60 460 CURVE SMOOTH",
"60 183 OFFCURVE",
"261 -20 OFFCURVE",
"536 -20 CURVE SMOOTH"
);
}
);
width = 956;
},
{
anchors = (
{
name = bottom;
position = "{503, 0}";
},
{
name = top;
position = "{626, 940}";
}
);
layerId = "2EABF22E-58CD-4ADD-8975-1500671E7F04";
paths = (
{
closed = 1;
nodes = (
"742 -20 OFFCURVE",
"834 0 OFFCURVE",
"906 42 CURVE",
"906 394 LINE",
"852 319 OFFCURVE",
"764 276 OFFCURVE",
"666 276 CURVE SMOOTH",
"547 276 OFFCURVE",
"462 352 OFFCURVE",
"462 460 CURVE SMOOTH",
"462 566 OFFCURVE",
"548 644 OFFCURVE",
"666 644 CURVE SMOOTH",
"757 644 OFFCURVE",
"857 596 OFFCURVE",
"906 528 CURVE",
"906 882 LINE",
"813 923 OFFCURVE",
"730 940 OFFCURVE",
"626 940 CURVE SMOOTH",
"282 940 OFFCURVE",
"60 752 OFFCURVE",
"60 460 CURVE SMOOTH",
"60 163 OFFCURVE",
"275 -20 OFFCURVE",
"626 -20 CURVE SMOOTH"
);
}
);
width = 1006;
},
{
anchors = (
{
name = bottom;
position = "{458, 0}";
},
{
name = top;
position = "{630, 940}";
}
);
layerId = "9017EC39-7277-4FD3-B807-1ABD7559DC0D";
paths = (
{
closed = 1;
nodes = (
"605 -20 OFFCURVE",
"688 0 OFFCURVE",
"776 42 CURVE",
"817 392 LINE",
"712 311 OFFCURVE",
"642 280 OFFCURVE",
"572 280 CURVE SMOOTH",
"476 280 OFFCURVE",
"414 337 OFFCURVE",
"414 422 CURVE SMOOTH",
"414 538 OFFCURVE",
"531 644 OFFCURVE",
"658 644 CURVE SMOOTH",
"730 644 OFFCURVE",
"790 610 OFFCURVE",
"858 528 CURVE",
"903 880 LINE",
"791 923 OFFCURVE",
"713 940 OFFCURVE",
"629 940 CURVE SMOOTH",
"308 940 OFFCURVE",
"28 695 OFFCURVE",
"28 408 CURVE SMOOTH",
"28 167 OFFCURVE",
"226 -20 OFFCURVE",
"511 -20 CURVE SMOOTH"
);
}
);
width = 916;
}
);
unicode = 0063;
},
{
color = 4;
glyphname = d;
lastChange = "2019-11-13 15:48:31 +0000";
layers = (
{
anchors = (
{
name = bottom;
position = "{541, 0}";
},
{
name = center;
position = "{541, 460}";
},
{
name = top;
position = "{411, 1032}";
},
{
name = topright;
position = "{1062, 920}";
}
);
layerId = master01;
paths = (
{
closed = 1;
nodes = (
"745 -20 OFFCURVE",
"915 182 OFFCURVE",
"915 460 CURVE SMOOTH",
"915 739 OFFCURVE",
"747 940 OFFCURVE",
"516 940 CURVE SMOOTH",
"272 940 OFFCURVE",
"90 735 OFFCURVE",
"90 460 CURVE SMOOTH",
"90 191 OFFCURVE",
"277 -20 OFFCURVE",
"516 -20 CURVE SMOOTH"
);
},
{
closed = 1;
nodes = (
"291 0 OFFCURVE",
"110 202 OFFCURVE",
"110 460 CURVE SMOOTH",
"110 717 OFFCURVE",
"292 920 OFFCURVE",
"522 920 CURVE SMOOTH",
"735 920 OFFCURVE",
"902 718 OFFCURVE",
"902 460 CURVE SMOOTH",
"902 194 OFFCURVE",
"742 0 OFFCURVE",
"522 0 CURVE SMOOTH"
);
},
{
closed = 1;
nodes = (
"922 0 LINE",
"922 1560 LINE",
"902 1560 LINE",
"902 0 LINE"
);
}
);
width = 1082;
},
{
anchors = (
{
name = bottom;
position = "{509, 0}";
},
{
name = center;
position = "{445, 460}";
},
{
name = top;
position = "{284, 1600}";
},
{
name = topright;
position = "{869, 920}";
}
);
layerId = "CD8D3C65-81B5-4831-B5B6-20AA0404C7C2";
paths = (
{
closed = 1;
nodes = (
"633 -18 OFFCURVE",
"859 265 OFFCURVE",
"859 566 CURVE SMOOTH",
"859 789 OFFCURVE",
"738 938 OFFCURVE",
"554 938 CURVE SMOOTH",
"302 938 OFFCURVE",
"58 661 OFFCURVE",
"58 356 CURVE SMOOTH",
"58 135 OFFCURVE",
"187 -18 OFFCURVE",
"375 -18 CURVE SMOOTH"
);
},
{
closed = 1;
nodes = (
"198 2 OFFCURVE",
"79 149 OFFCURVE",
"79 356 CURVE SMOOTH",
"79 642 OFFCURVE",
"305 918 OFFCURVE",
"548 918 CURVE SMOOTH",
"726 918 OFFCURVE",
"843 770 OFFCURVE",
"843 560 CURVE SMOOTH",
"843 266 OFFCURVE",
"612 2 OFFCURVE",
"375 2 CURVE SMOOTH"
);
},
{
closed = 1;
nodes = (
"756 0 LINE",
"1075 1558 LINE",
"1055 1558 LINE",
"738 0 LINE"
);
}
);
width = 1018;
},
{
anchors = (
{
name = bottom;
position = "{536, 0}";
},
{
name = center;
position = "{471, 460}";
},
{
name = top;
position = "{311, 1600}";
},
{
name = topright;
position = "{922, 920}";
}
);
layerId = "CF6F8622-38E2-4A45-B461-838A78B3383E";
paths = (
{
closed = 1;
nodes = (
"650 -13 OFFCURVE",
"877 282 OFFCURVE",
"877 577 CURVE SMOOTH",
"877 789 OFFCURVE",
"759 937 OFFCURVE",
"564 940 CURVE SMOOTH",
"288 945 OFFCURVE",
"36 658 OFFCURVE",
"36 375 CURVE SMOOTH",
"36 151 OFFCURVE",
"195 -22 OFFCURVE",
"394 -18 CURVE SMOOTH"
);
},
{
closed = 1;
nodes = (
"288 132 OFFCURVE",
"194 237 OFFCURVE",
"194 381 CURVE SMOOTH",
"194 585 OFFCURVE",
"381 788 OFFCURVE",
"561 788 CURVE SMOOTH",
"690 788 OFFCURVE",
"781 683 OFFCURVE",
"781 536 CURVE SMOOTH",
"781 330 OFFCURVE",
"602 132 OFFCURVE",
"420 132 CURVE SMOOTH"
);
},
{
closed = 1;
nodes = (
"832 0 LINE",
"1152 1560 LINE",
"989 1558 LINE",
"682 0 LINE"
);
}
);
userData = {
com.schriftgestaltung.Glyphs.lastChange = "2019-10-03 14:51:18 +0000";
};
width = 1072;
},
{
anchors = (
{
name = bottom;
position = "{570, 0}";
},
{
name = center;
position = "{570, 460}";
},
{
name = top;
position = "{570, 1600}";
},
{
name = topright;
position = "{1120, 920}";
}
);
layerId = "C81D5947-3D41-4C9D-B8BA-C68D41D38A45";
paths = (
{
closed = 1;
nodes = (
"773 -20 OFFCURVE",
"932 167 OFFCURVE",
"932 460 CURVE SMOOTH",
"932 753 OFFCURVE",
"774 940 OFFCURVE",
"526 940 CURVE SMOOTH",
"265 940 OFFCURVE",
"70 734 OFFCURVE",
"70 460 CURVE SMOOTH",
"70 187 OFFCURVE",
"266 -20 OFFCURVE",
"526 -20 CURVE SMOOTH"
);
},
{
closed = 1;
nodes = (
"368 130 OFFCURVE",
"232 273 OFFCURVE",
"232 460 CURVE SMOOTH",
"232 646 OFFCURVE",
"369 790 OFFCURVE",
"546 790 CURVE SMOOTH",
"718 790 OFFCURVE",
"840 653 OFFCURVE",
"840 460 CURVE SMOOTH",
"840 266 OFFCURVE",
"719 130 OFFCURVE",
"546 130 CURVE SMOOTH"
);
},
{
closed = 1;
nodes = (
"1000 0 LINE",
"1000 1560 LINE",
"840 1560 LINE",
"840 0 LINE"
);
}
);
width = 1140;
},
{
anchors = (
{
name = bottom;
position = "{645, 0}";
},
{
name = center;
position = "{645, 460}";
},
{
name = top;
position = "{645, 1600}";
},
{
name = topright;
position = "{1270, 920}";
}
);
layerId = "2EABF22E-58CD-4ADD-8975-1500671E7F04";
paths = (
{
closed = 1;
nodes = (
"727 -20 OFFCURVE",
"892 175 OFFCURVE",
"892 460 CURVE SMOOTH",
"892 745 OFFCURVE",
"727 940 OFFCURVE",
"486 940 CURVE SMOOTH",
"240 940 OFFCURVE",
"60 737 OFFCURVE",
"60 460 CURVE SMOOTH",
"60 183 OFFCURVE",
"240 -20 OFFCURVE",
"486 -20 CURVE SMOOTH"
);
},
{
closed = 1;
nodes = (
"545 280 OFFCURVE",
"472 360 OFFCURVE",
"472 460 CURVE SMOOTH",
"472 560 OFFCURVE",
"545 640 OFFCURVE",
"636 640 CURVE SMOOTH",
"727 640 OFFCURVE",
"800 560 OFFCURVE",
"800 460 CURVE SMOOTH",
"800 360 OFFCURVE",
"727 280 OFFCURVE",
"636 280 CURVE SMOOTH"
);
},
{
closed = 1;
nodes = (
"1190 0 LINE",
"1190 1560 LINE",
"800 1560 LINE",
"800 0 LINE"
);
}
);
width = 1290;
},
{
anchors = (
{
name = bottom;
position = "{606, 0}";
},
{
name = center;
position = "{541, 460}";
},
{
name = top;
position = "{459, 1044}";
},
{
name = topright;
position = "{1062, 920}";
}
);
layerId = "9017EC39-7277-4FD3-B807-1ABD7559DC0D";
paths = (
{
closed = 1;
nodes = (
"617 -18 OFFCURVE",
"833 259 OFFCURVE",
"833 559 CURVE SMOOTH",
"833 784 OFFCURVE",
"711 940 OFFCURVE",
"516 940 CURVE SMOOTH",
"256 940 OFFCURVE",
"26 664 OFFCURVE",
"26 377 CURVE SMOOTH",
"26 147 OFFCURVE",
"174 -18 OFFCURVE",
"367 -18 CURVE SMOOTH"
);
},
{
closed = 1;
nodes = (
"472 282 OFFCURVE",
"424 337 OFFCURVE",
"424 410 CURVE SMOOTH",
"424 517 OFFCURVE",
"529 638 OFFCURVE",
"627 638 CURVE SMOOTH",
"691 638 OFFCURVE",
"735 586 OFFCURVE",
"735 513 CURVE SMOOTH",
"735 401 OFFCURVE",
"631 282 OFFCURVE",
"536 282 CURVE SMOOTH"
);
},
{
closed = 1;
nodes = (
"1016 0 LINE",
"1333 1560 LINE",
"953 1560 LINE",
"636 0 LINE"
);
}
);
width = 1212;
}
);
unicode = 0064;
},
